SplineFontDB: 3.2
FontName: NewCMMono10-Bold
FullName: NewComputerModernMono10-Bold
FamilyName: NewComputerModernMono10
Weight: Bold
Copyright: (C) 2019-2021 Antonis Tsolomitis. This work is released under the GUST Font License --  see http://tug.org/fonts/licenses/GUST-FONT-LICENSE.txt for details.
Version: 3.93
ItalicAngle: 0
UnderlinePosition: -163
UnderlineWidth: 82
Ascent: 783
Descent: 217
InvalidEm: 0
sfntRevision: 0x00024ccc
LayerCount: 2
Layer: 0 0 "Back" 1
Layer: 1 0 "Fore" 0
XUID: [1021 12 -395342500 5503184]
StyleMap: 0x0020
FSType: 12
OS2Version: 3
OS2_WeightWidthSlopeOnly: 0
OS2_UseTypoMetrics: 0
CreationTime: 1254996125
ModificationTime: 1633795119
PfmFamily: 81
TTFWeight: 700
TTFWidth: 5
LineGap: 0
VLineGap: 0
Panose: 0 0 8 9 0 0 0 0 0 0
OS2TypoAscent: 783
OS2TypoAOffset: 0
OS2TypoDescent: -217
OS2TypoDOffset: 0
OS2TypoLinegap: 200
OS2WinAscent: 1039
OS2WinAOffset: 0
OS2WinDescent: 308
OS2WinDOffset: 0
HheadAscent: 1039
HheadAOffset: 0
HheadDescent: -308
HheadDOffset: 0
OS2SubXSize: 650
OS2SubYSize: 600
OS2SubXOff: 0
OS2SubYOff: 75
OS2SupXSize: 650
OS2SupYSize: 600
OS2SupXOff: 0
OS2SupYOff: 350
OS2StrikeYSize: 82
OS2StrikeYPos: 258
OS2CapHeight: 611
OS2XHeight: 431
OS2Vendor: 'UKWN'
OS2CodePages: 20000193.00000000
OS2UnicodeRanges: 20000007.00000000.00000000.00000000
Lookup: 1 0 0 "'aalt' Access All Alternates lookup 0" { "'aalt' Access All Alternates lookup 0 subtable"  } ['aalt' ('DFLT' <'dflt' > 'cyrl' <'dflt' > 'latn' <'AZE ' 'CRT ' 'MOL ' 'ROM ' 'TRK ' 'dflt' > ) ]
Lookup: 3 0 0 "'aalt' Access All Alternates lookup 1" { "'aalt' Access All Alternates lookup 1 subtable"  } ['aalt' ('DFLT' <'dflt' > 'cyrl' <'dflt' > 'latn' <'AZE ' 'CRT ' 'MOL ' 'ROM ' 'TRK ' 'dflt' > ) ]
Lookup: 1 0 0 "'locl' Localized Forms in Latin lookup 2" { "'locl' Localized Forms in Latin lookup 2 subtable"  } ['locl' ('latn' <'MOL ' 'ROM ' > ) ]

StartChar: exclam
Encoding: 33 33 2
Width: 525
GlyphClass: 2
Flags: MW
HStem: 0 113<246 278> 602 20G<257 267>
VStem: 205 114<41 72.5 558 588>
LayerCount: 2
Fore
SplineSet
319 558 m 2
 310 234 l 2
 307 188 303 179 262 179 c 0
 246 179 216 181 215 212 c 2
 205 558 l 2
 205 618 252 622 262 622 c 0
 272 622 319 618 319 558 c 2
319 57 m 0
 319 25 294 0 262 0 c 0
 230 0 205 25 205 57 c 0
 205 88 230 113 262 113 c 0
 294 113 319 88 319 57 c 0
EndSplineSet
EndChar

StartChar: quotedbl
Encoding: 34 34 3
Width: 525
GlyphClass: 2
Flags: MW
HStem: 320 21G<157.5 189 334.5 366> 602 20G<163 181.5 340 358.5>
LayerCount: 2
Fore
SplineSet
402 560 m 2
 389 361 l 2
 388 341 381 320 351 320 c 0
 318 320 313 344 312 362 c 2
 299 560 l 2
 296 610 329 622 351 622 c 0
 366 622 405 613 402 560 c 2
225 560 m 2
 212 361 l 2
 211 341 204 320 174 320 c 0
 141 320 136 344 135 362 c 2
 122 560 l 2
 119 610 152 622 174 622 c 0
 189 622 228 613 225 560 c 2
EndSplineSet
EndChar

StartChar: numbersign
Encoding: 35 35 4
Width: 525
GlyphClass: 2
Flags: MW
HStem: 0 21G<130.5 160.5 300.5 330.5> 159 84<80 127 87 116 212 285 87 201 382 437> 369 84<80 155 87 143 87 228 240 313 409 437> 591 20G<193 220 363 390>
LayerCount: 2
Fore
SplineSet
491 201 m 0
 491 160 451 159 437 159 c 2
 370 159 l 1
 355 47 l 2
 353 33 348 0 313 0 c 0
 288 0 271 20 271 42 c 2
 271 42 271 47 285 159 c 1
 201 159 l 1
 186 47 l 2
 184 33 178 0 143 0 c 0
 118 0 101 20 101 42 c 2
 101 42 101 47 116 159 c 1
 87 159 l 2
 73 159 33 160 33 201 c 0
 33 241 73 243 87 243 c 2
 127 243 l 1
 143 369 l 1
 87 369 l 2
 73 369 33 371 33 411 c 0
 33 452 73 453 87 453 c 2
 155 453 l 1
 168 564 l 2
 170 578 175 611 211 611 c 0
 229 611 258 600 252 556 c 2
 240 453 l 1
 324 453 l 1
 338 564 l 2
 339 578 345 611 381 611 c 0
 399 611 428 600 422 556 c 2
 409 453 l 1
 437 453 l 2
 451 453 491 452 491 411 c 0
 491 371 451 369 437 369 c 2
 398 369 l 1
 382 243 l 1
 437 243 l 2
 451 243 491 241 491 201 c 0
313 369 m 1
 228 369 l 1
 212 243 l 1
 297 243 l 1
 313 369 l 1
EndSplineSet
EndChar

StartChar: dollar
Encoding: 36 36 5
Width: 525
GlyphClass: 2
Flags: MW
HStem: -81 21G<244.5 281> 672 20G<244.5 281>
VStem: 55 76<436 472.5 430.5 485> 225 75<-33 -4 -4 -4 74 267 367 538 538 538 615 644> 393 76<149 193>
LayerCount: 2
Fore
SplineSet
469 174 m 0
 469 105 419 19 300 -3 c 1
 300 -33 l 2
 300 -52 299 -81 263 -81 c 0
 226 -81 225 -52 225 -33 c 2
 225 -4 l 1
 112 10 55 87 55 170 c 0
 55 222 97 226 107 226 c 0
 130 226 158 207 158 174 c 0
 158 153 150 143 143 137 c 1
 157 98 189 79 225 72 c 1
 225 283 l 1
 61 316 55 424 55 448 c 0
 55 522 117 598 225 614 c 1
 225 644 l 2
 225 663 226 692 263 692 c 0
 299 692 300 663 300 644 c 2
 300 615 l 1
 415 603 469 530 469 453 c 0
 469 411 441 398 417 398 c 0
 386 398 366 422 366 448 c 0
 366 461 371 474 380 483 c 1
 365 521 328 534 300 539 c 1
 300 351 l 1
 442 322 469 223 469 174 c 0
225 367 m 1
 225 538 l 1
 171 527 131 493 131 452 c 0
 131 409 175 378 225 367 c 1
393 171 m 0
 393 215 357 253 300 267 c 1
 300 74 l 1
 356 86 393 127 393 171 c 0
EndSplineSet
Substitution2: "'onum' Oldstyle Figures lookup 4 subtable" dollar.oldstyle
Substitution2: "'aalt' Access All Alternates lookup 0 subtable" dollar.oldstyle
EndChar

StartChar: percent
Encoding: 37 37 6
Width: 525
GlyphClass: 2
Flags: MW
HStem: -81 76<397 407 397 428> 118 76<397 407> 416 76<117 127 117 147.5> 616 76<116.5 127.5>
VStem: 29 71<535.5 571.5 535.5 593.5> 144 71<535.5 571.5> 309 71<38 75.5 38 95.5> 424 71<38 75.5>
LayerCount: 2
Fore
SplineSet
215 554 m 0
 215 475 173 416 122 416 c 0
 72 416 29 473 29 554 c 0
 29 633 71 692 122 692 c 0
 172 692 215 635 215 554 c 0
440 650 m 0
 440 642 438 637 434 626 c 2
 167 -48 l 2
 162 -61 154 -81 126 -81 c 0
 103 -81 84 -62 84 -39 c 0
 84 -31 86 -26 90 -15 c 2
 356 655 l 2
 362 671 371 692 398 692 c 0
 422 692 440 672 440 650 c 0
495 57 m 0
 495 -21 454 -81 402 -81 c 0
 350 -81 309 -21 309 57 c 0
 309 134 350 194 402 194 c 0
 454 194 495 134 495 57 c 0
144 554 m 0
 144 589 133 616 122 616 c 0
 111 616 100 589 100 554 c 0
 100 517 112 492 122 492 c 0
 132 492 144 517 144 554 c 0
424 57 m 0
 424 94 412 118 402 118 c 0
 392 118 380 94 380 57 c 0
 380 19 392 -5 402 -5 c 0
 412 -5 424 19 424 57 c 0
EndSplineSet
EndChar

StartChar: ampersand
Encoding: 38 38 7
Width: 525
GlyphClass: 2
Flags: MW
HStem: -11 75<132.5 158.5 132.5 179 373.5 395.5> 361 75<420 445 420 420> 398 75 547 75<197.5 220.5>
VStem: 26 81<132.5 164.5 132.5 164.5> 99 69<469.5 498 469.5 524.5> 107 72 153 81 228 81 234 72<469 484> 275 70 364 81 419 70<112 116> 420 69 420 72<361 416.5>
LayerCount: 2
Fore
SplineSet
492 398 m 0x4090
 492 362 463 361 445 361 c 2x4010
 420 361 l 1x4002
 364 214 l 2x0010
 354 190 336 147 316 114 c 1
 328 99 358 64 389 64 c 0
 402 64 415 76 419 112 c 0x8008
 419 120 422 150 454 150 c 1
 454 150 489 151 489 110 c 0
 489 60 458 -11 389 -11 c 0
 335 -11 294 31 275 53 c 1
 244 18 204 -11 154 -11 c 0
 75 -11 26 63 26 141 c 0x8824
 26 188 42 224 63 250 c 0
 66 251 111 302 125 317 c 1
 106 377 99 431 99 473 c 0
 99 576 157 622 208 622 c 0
 282 622 306 544 306 480 c 0x3440
 306 458 306 399 209 296 c 1
 223 259 254 207 271 180 c 1
 295 229 322 300 345 361 c 1x4020
 327 362 309 368 309 399 c 0
 309 434 338 436 355 436 c 2
 445 436 l 2
 464 436 492 435 492 398 c 0x4090
234 480 m 0
 234 488 234 547 207 547 c 0
 188 547 168 523 168 473 c 0xb440
 168 466 169 423 179 379 c 1
 219 425 234 455 234 480 c 0
228 113 m 1
 206 144 178 190 153 240 c 1
 116 198 107 185 107 144 c 0x09
 107 121 113 64 152 64 c 0
 165 64 195 69 228 113 c 1
EndSplineSet
Substitution2: "'lnum' Lining Figures lookup 5 subtable" ampersand
Substitution2: "'onum' Oldstyle Figures lookup 4 subtable" ampersand
Substitution2: "'aalt' Access All Alternates lookup 0 subtable" ampersand
EndChar

StartChar: quotesingle
Encoding: 39 39 8
Width: 525
GlyphClass: 2
Flags: MW
HStem: 320 21G<246.5 278> 602 20G<252 270.5>
LayerCount: 2
Fore
SplineSet
314 560 m 2
 301 361 l 2
 300 341 293 320 263 320 c 0
 230 320 225 344 224 362 c 2
 211 560 l 2
 208 610 241 622 263 622 c 0
 278 622 317 613 314 560 c 2
EndSplineSet
EndChar

StartChar: parenleft
Encoding: 40 40 9
Width: 525
GlyphClass: 2
Flags: MW
HStem: -80 21G<391 419.5> 672 20G<388.5 419.5>
VStem: 169 82<252.5 353.5 252.5 434>
LayerCount: 2
Fore
SplineSet
441 -45 m 0
 441 -55 436 -80 403 -80 c 0
 379 -80 302 -25 249 49 c 0
 214 99 169 188 169 306 c 0
 169 562 374 692 403 692 c 0
 436 692 441 667 441 657 c 0
 441 639 434 634 416 621 c 0
 288 534 251 401 251 306 c 0
 251 199 295 72 414 -8 c 0
 434 -22 441 -27 441 -45 c 0
EndSplineSet
EndChar

StartChar: parenright
Encoding: 41 41 10
Width: 525
GlyphClass: 2
Flags: MW
HStem: -80 21G<106.5 136.5> 672 20G<106.5 134>
VStem: 274 82<258.5 337>
LayerCount: 2
Fore
SplineSet
356 306 m 0
 356 50 151 -80 122 -80 c 0
 91 -80 84 -55 84 -45 c 0
 84 -27 92 -21 109 -9 c 0
 238 78 274 211 274 306 c 0
 274 368 259 522 103 626 c 0
 97 630 84 639 84 657 c 0
 84 667 91 692 122 692 c 0
 146 692 223 637 276 563 c 0
 311 513 356 424 356 306 c 0
EndSplineSet
EndChar

StartChar: asterisk
Encoding: 42 42 11
Width: 525
GlyphClass: 2
Flags: MW
HStem: 88 21G<242.5 281.5> 503 20G<242.5 281.5>
VStem: 222 80<131 136 475 480> 379 80<193 226>
LayerCount: 2
Fore
SplineSet
459 216 m 0
 459 198 443 176 419 176 c 0
 410 176 407 176 379 193 c 2
 300 240 l 1
 302 136 l 2
 302 126 301 88 262 88 c 0
 223 88 222 126 222 136 c 2
 224 240 l 1
 114 176 l 1
 65 176 65 212 65 216 c 0
 65 239 79 247 94 255 c 2
 186 306 l 1
 93 357 l 2
 77 365 65 372 65 395 c 0
 65 413 81 435 105 435 c 0
 113 435 116 435 132 425 c 2
 224 371 l 1
 222 475 l 2
 222 485 223 523 262 523 c 0
 301 523 302 485 302 475 c 2
 300 371 l 1
 410 435 l 1
 459 435 459 399 459 395 c 0
 459 373 445 364 430 356 c 2
 338 305 l 1
 368 289 421 263 442 249 c 0
 446 246 459 236 459 216 c 0
EndSplineSet
EndChar

StartChar: plus
Encoding: 43 43 12
Width: 525
GlyphClass: 2
Flags: MW
HStem: 79 21G<241.5 282.5> 264 84<83 220 90 220 304 434> 513 20G<241.5 282.5>
VStem: 220 84<133 264 348 479>
LayerCount: 2
Fore
SplineSet
488 306 m 0
 488 265 448 264 434 264 c 2
 304 264 l 1
 304 133 l 2
 304 119 303 79 262 79 c 0
 221 79 220 119 220 133 c 2
 220 264 l 1
 90 264 l 2
 76 264 36 265 36 306 c 0
 36 347 76 348 90 348 c 2
 220 348 l 1
 220 479 l 2
 220 493 221 533 262 533 c 0
 303 533 304 493 304 479 c 2
 304 348 l 1
 434 348 l 2
 448 348 488 347 488 306 c 0
EndSplineSet
EndChar

StartChar: comma
Encoding: 44 44 13
Width: 525
GlyphClass: 2
Flags: MW
HStem: 0 137<244 263.5>
VStem: 194 158<48 64.5 -24.5 86.5>
LayerCount: 2
Fore
SplineSet
352 32 m 0
 352 -81 246 -135 213 -135 c 0
 193 -135 174 -115 174 -96 c 0
 174 -72 195 -65 207 -62 c 0
 217 -58 254 -46 270 1 c 1
 267 0 265 0 262 0 c 0
 226 0 194 27 194 69 c 0
 194 104 219 137 263 137 c 0
 310 137 352 97 352 32 c 0
EndSplineSet
EndChar

StartChar: hyphen
Encoding: 45 45 14
Width: 525
GlyphClass: 2
Flags: MW
HStem: 264 84<100 417 107 417>
LayerCount: 2
Fore
SplineSet
471 306 m 0
 471 265 431 264 417 264 c 2
 107 264 l 2
 93 264 53 265 53 306 c 0
 53 347 93 348 107 348 c 2
 417 348 l 2
 431 348 471 347 471 306 c 0
EndSplineSet
EndChar

StartChar: period
Encoding: 46 46 15
Width: 525
GlyphClass: 2
Flags: MW
HStem: 0 137<244.5 280.5 242 283>
VStem: 194 137<51 86>
LayerCount: 2
Fore
SplineSet
331 68 m 0
 331 34 304 0 262 0 c 0
 227 0 194 29 194 69 c 0
 194 103 221 137 263 137 c 0
 298 137 331 109 331 68 c 0
EndSplineSet
EndChar

StartChar: slash
Encoding: 47 47 16
Width: 525
GlyphClass: 2
Flags: MW
HStem: -81 21G<85 110> 672 20G<414 439>
LayerCount: 2
Fore
SplineSet
469 650 m 0
 469 643 468 641 460 623 c 2
 138 -49 l 2
 132 -64 123 -81 97 -81 c 0
 73 -81 55 -61 55 -39 c 0
 55 -32 56 -30 64 -12 c 2
 386 660 l 2
 392 675 401 692 427 692 c 0
 451 692 469 672 469 650 c 0
EndSplineSet
EndChar

StartChar: zero
Encoding: 48 48 17
Width: 525
GlyphClass: 2
Flags: MW
HStem: -11 75<225.5 298.5 225.5 318> 547 75<227.5 296>
VStem: 48 82<246.5 384.5 246.5 397.5> 394 82<246.5 384.5>
LayerCount: 2
Fore
SplineSet
476 305 m 0
 476 122 374 -11 262 -11 c 0
 152 -11 48 119 48 306 c 0
 48 489 150 622 262 622 c 0
 372 622 476 492 476 305 c 0
394 316 m 0
 394 453 330 547 262 547 c 0
 193 547 130 453 130 316 c 0
 130 177 189 64 262 64 c 0
 335 64 394 177 394 316 c 0
EndSplineSet
Substitution2: "'zero' Slashed Zero lookup 8 subtable" zero.slash
Substitution2: "'onum' Oldstyle Figures lookup 4 subtable" zero.taboldstyle
AlternateSubs2: "'aalt' Access All Alternates lookup 1 subtable" zero.taboldstyle zero.slash
EndChar

StartChar: one
Encoding: 49 49 18
Width: 525
GlyphClass: 2
Flags: MW
HStem: 0 75<145 235 154 235 318 399> 428 75 602 20G<269.5 298.5>
VStem: 235 83<75 462 462 462>
LayerCount: 2
Fore
SplineSet
445 37 m 0
 445 1 417 0 399 0 c 2
 154 0 l 2
 136 0 107 1 107 37 c 0
 107 74 135 75 154 75 c 2
 235 75 l 1
 235 462 l 1
 195 433 159 428 141 428 c 0
 123 428 102 434 102 465 c 0
 102 498 126 502 145 503 c 0
 162 505 210 516 244 594 c 0
 250 608 258 622 281 622 c 0
 316 622 318 593 318 574 c 2
 318 75 l 1
 399 75 l 2
 418 75 445 74 445 37 c 0
EndSplineSet
Substitution2: "'onum' Oldstyle Figures lookup 4 subtable" one.taboldstyle
Substitution2: "'aalt' Access All Alternates lookup 0 subtable" one.taboldstyle
EndChar

StartChar: two
Encoding: 50 50 19
Width: 525
GlyphClass: 2
Flags: MW
HStem: 0 75<189 392 189 428> 547 75<220 282>
VStem: 50 102<432 454 432 494.5> 392 82<29 89 391 464.5>
LayerCount: 2
Fore
SplineSet
474 48 m 2
 474 10 466 0 428 0 c 2
 97 0 l 2
 78 0 50 1 50 38 c 0
 50 55 56 61 67 70 c 2
 282 252 l 2
 345 303 392 358 392 424 c 0
 392 505 320 547 244 547 c 0
 196 547 155 521 140 482 c 1
 147 473 152 460 152 448 c 0
 152 416 125 397 101 397 c 0
 82 397 50 409 50 451 c 0
 50 538 129 622 249 622 c 0
 373 622 474 545 474 424 c 0
 474 344 429 279 366 223 c 0
 327 188 246 124 189 75 c 1
 392 75 l 1
 392 103 396 121 434 121 c 0
 474 121 474 96 474 73 c 2
 474 48 l 2
EndSplineSet
Substitution2: "'onum' Oldstyle Figures lookup 4 subtable" two.taboldstyle
Substitution2: "'aalt' Access All Alternates lookup 0 subtable" two.taboldstyle
EndChar

StartChar: three
Encoding: 51 51 20
Width: 525
GlyphClass: 2
Flags: MW
HStem: -11 75<246 305.5 246 330.5> 291 78<215.5 216 216 261> 547 75<260 294.5>
VStem: 42 102<135 157 135 158.5> 70 102<482 503.5 482 535> 371 83<462 496> 380 102 399 83<149 204>
LayerCount: 2
Fore
SplineSet
482 177 m 0x02
 482 83 397 -11 264 -11 c 0
 139 -11 42 50 42 140 c 0
 42 177 67 194 93 194 c 0
 122 194 144 171 144 143 c 0
 144 127 139 118 134 112 c 1
 161 73 228 64 264 64 c 0
 347 64 399 121 399 177 c 0x91
 399 231 352 291 261 291 c 2
 216 291 l 2
 197 291 169 292 169 329 c 0
 169 361 184 369 247 369 c 0
 280 369 303 373 333 397 c 0
 358 417 371 448 371 476 c 0
 371 516 325 547 264 547 c 0
 256 547 196 547 166 523 c 1
 169 517 172 509 172 498 c 0
 172 466 146 446 122 446 c 0
 99 446 70 462 70 500 c 0
 70 570 140 622 263 622 c 0
 380 622 454 552 454 477 c 0x6c
 454 425 429 371 380 334 c 1
 440 302 482 245 482 177 c 0x02
EndSplineSet
Substitution2: "'onum' Oldstyle Figures lookup 4 subtable" three.taboldstyle
Substitution2: "'aalt' Access All Alternates lookup 0 subtable" three.taboldstyle
EndChar

StartChar: four
Encoding: 52 52 21
Width: 525
GlyphClass: 2
Flags: MW
HStem: 0 75<250 312 259 312 382 434> 165 75<56 310 116 310 116 312 382 450 116 382> 603 20G<307 334 334 354>
VStem: 312 70<75 165 75 165>
LayerCount: 2
Fore
SplineSet
497 202 m 0
 497 166 468 165 450 165 c 2
 382 165 l 1
 382 75 l 1
 434 75 l 2
 454 75 481 74 481 37 c 0
 481 1 452 0 434 0 c 2
 259 0 l 2
 241 0 212 1 212 37 c 0
 212 74 240 75 259 75 c 2
 312 75 l 1
 312 165 l 1
 74 165 l 2
 38 165 27 173 27 211 c 0
 27 233 27 236 37 250 c 2
 259 599 l 2
 274 621 280 623 307 623 c 2
 334 623 l 2
 374 623 382 613 382 575 c 2
 382 240 l 1
 450 240 l 2
 469 240 497 239 497 202 c 0
310 240 m 1
 310 545 l 1
 116 240 l 1
 310 240 l 1
EndSplineSet
Substitution2: "'onum' Oldstyle Figures lookup 4 subtable" four.taboldstyle
Substitution2: "'aalt' Access All Alternates lookup 0 subtable" four.taboldstyle
EndChar

StartChar: five
Encoding: 53 53 22
Width: 525
GlyphClass: 2
Flags: MW
HStem: -11 75<236 287 236 311.5> 320 75<261 313.5> 536 75<167 394 167 167>
VStem: 50 102<140.5 165.5 140.5 168.5> 85 82<371 536 371 563 371 582> 392 82<156 222.5>
LayerCount: 2
Fore
SplineSet
474 193 m 0xec
 474 81 375 -11 248 -11 c 0
 134 -11 50 62 50 146 c 0
 50 191 84 201 101 201 c 0
 125 201 152 182 152 149 c 0x94
 152 132 146 123 141 117 c 1
 168 71 224 64 248 64 c 0
 326 64 392 119 392 193 c 0
 392 252 351 320 276 320 c 0
 222 320 184 303 159 274 c 0
 150 262 145 256 124 256 c 0
 86 256 85 283 85 304 c 2
 85 563 l 2
 85 601 93 611 131 611 c 2
 394 611 l 2
 413 611 440 610 440 573 c 0
 440 537 411 536 394 536 c 2
 167 536 l 1
 167 371 l 1
 205 389 245 395 277 395 c 0
 396 395 474 295 474 193 c 0xec
EndSplineSet
Substitution2: "'onum' Oldstyle Figures lookup 4 subtable" five.taboldstyle
Substitution2: "'aalt' Access All Alternates lookup 0 subtable" five.taboldstyle
EndChar

StartChar: six
Encoding: 54 54 23
Width: 525
GlyphClass: 2
Flags: MW
HStem: -11 75<234 297 234 319> 224 75 325 76<249.5 305> 547 75<279.5 329.5>
VStem: 51 92<218.5 252.5 218.5 400> 273 82 355 102<497 518> 391 82<156.5 230>
LayerCount: 2
Fore
SplineSet
473 196 m 0x34
 473 74 374 -11 264 -11 c 0
 165 -11 51 61 51 299 c 0
 51 501 185 622 319 622 c 0
 420 622 457 564 457 514 c 0xda
 457 479 434 460 405 460 c 0
 375 460 355 483 355 511 c 0
 355 525 357 532 361 538 c 1
 354 542 340 547 319 547 c 0
 240 547 157 476 138 356 c 1
 179 388 226 401 273 401 c 0
 384 401 473 311 473 196 c 0x34
391 196 m 0
 391 264 342 325 268 325 c 0
 199 325 143 281 143 224 c 0
 143 213 144 188 151 166 c 0
 169 110 204 64 264 64 c 0
 330 64 391 117 391 196 c 0
EndSplineSet
Substitution2: "'onum' Oldstyle Figures lookup 4 subtable" six.taboldstyle
Substitution2: "'aalt' Access All Alternates lookup 0 subtable" six.taboldstyle
EndChar

StartChar: seven
Encoding: 55 55 24
Width: 525
GlyphClass: 2
Flags: MW
HStem: -11 21G<186 216.5> 536 75<125 356 125 125>
VStem: 83 82 165 82<35 36 19 96>
LayerCount: 2
Fore
SplineSet
482 573 m 0xe0
 482 557 481 554 458 534 c 0
 399 477 252 309 247 36 c 0x10
 247 2 227 -11 206 -11 c 0
 166 -11 165 27 165 43 c 0
 165 149 196 358 356 536 c 1
 125 536 l 1
 124 508 120 490 83 490 c 0
 43 490 42 515 42 538 c 2
 42 579 l 2
 42 601 43 627 83 627 c 0
 92 627 110 626 119 611 c 1
 435 611 l 2
 455 611 482 610 482 573 c 0xe0
EndSplineSet
Substitution2: "'onum' Oldstyle Figures lookup 4 subtable" seven.taboldstyle
Substitution2: "'aalt' Access All Alternates lookup 0 subtable" seven.taboldstyle
EndChar

StartChar: eight
Encoding: 56 56 25
Width: 525
GlyphClass: 2
Flags: MW
HStem: -11 75<224 300 224 326> 291 75<229 295 229 304> 547 75<226 297.5>
VStem: 42 83<146.5 206 146.5 212> 55 83<431.5 480.5 431.5 499> 386 83<431.5 480.5> 399 83<146.5 206>
LayerCount: 2
Fore
SplineSet
482 177 m 0x2c
 482 79 390 -11 262 -11 c 0
 135 -11 42 79 42 177 c 0xd2
 42 247 95 303 162 329 c 1
 94 357 55 405 55 458 c 0
 55 540 140 622 262 622 c 0
 383 622 469 541 469 458 c 0
 469 405 431 358 362 329 c 1
 428 303 482 247 482 177 c 0x2c
386 457 m 0
 386 504 333 547 262 547 c 0
 190 547 138 504 138 457 c 0xac
 138 406 196 366 262 366 c 0
 328 366 386 405 386 457 c 0
399 178 m 0
 399 234 346 291 262 291 c 0
 178 291 125 234 125 178 c 0x52
 125 115 186 64 262 64 c 0
 338 64 399 115 399 178 c 0
EndSplineSet
Substitution2: "'onum' Oldstyle Figures lookup 4 subtable" eight.taboldstyle
Substitution2: "'aalt' Access All Alternates lookup 0 subtable" eight.taboldstyle
EndChar

StartChar: nine
Encoding: 57 57 26
Width: 525
GlyphClass: 2
Flags: MW
HStem: -11 75<213.5 259.5 213.5 283> 75 76 210 76<219 274.5> 312 75 547 75<232 306>
VStem: 51 82<381 455 381 476.5> 169 82 382 91<362 421>
LayerCount: 2
Fore
SplineSet
473 312 m 0
 473 114 349 -11 217 -11 c 0
 85 -11 67 64 67 97 c 0
 67 132 90 151 119 151 c 0
 149 151 169 128 169 100 c 0
 169 88 167 80 164 75 c 1
 183 65 210 64 217 64 c 0
 302 64 371 148 387 255 c 1
 345 223 298 210 251 210 c 0
 140 210 51 300 51 415 c 0
 51 538 153 622 265 622 c 0
 360 622 473 554 473 312 c 0
382 387 m 0
 382 455 347 547 265 547 c 0
 199 547 133 495 133 415 c 0
 133 347 182 286 256 286 c 0
 332 286 382 337 382 387 c 0
EndSplineSet
Substitution2: "'onum' Oldstyle Figures lookup 4 subtable" nine.taboldstyle
Substitution2: "'aalt' Access All Alternates lookup 0 subtable" nine.taboldstyle
EndChar

StartChar: colon
Encoding: 58 58 27
Width: 525
GlyphClass: 2
Flags: MW
HStem: 0 137<244.5 280.5 242 283> 298 138<244.5 280.5 242 283>
VStem: 194 137<51 86 349 384>
LayerCount: 2
Fore
SplineSet
331 366 m 0
 331 332 304 298 262 298 c 0
 227 298 194 327 194 367 c 0
 194 401 221 436 263 436 c 0
 298 436 331 407 331 366 c 0
331 68 m 0
 331 34 304 0 262 0 c 0
 227 0 194 29 194 69 c 0
 194 103 221 137 263 137 c 0
 298 137 331 109 331 68 c 0
EndSplineSet
EndChar

StartChar: semicolon
Encoding: 59 59 28
Width: 525
GlyphClass: 2
Flags: MW
HStem: -135 21G<202.5 224.5> 298 138<244.5 280.5 242 283>
VStem: 194 137<349 384>
LayerCount: 2
Fore
SplineSet
331 366 m 0
 331 332 304 298 262 298 c 0
 227 298 194 327 194 367 c 0
 194 401 221 436 263 436 c 0
 298 436 331 407 331 366 c 0
336 34 m 0
 336 -81 236 -135 213 -135 c 0
 192 -135 174 -115 174 -96 c 0
 174 -77 190 -68 198 -64 c 0
 211 -57 242 -41 256 0 c 1
 210 5 194 41 194 69 c 0
 194 107 222 137 262 137 c 0
 302 137 336 104 336 34 c 0
EndSplineSet
EndChar

StartChar: less
Encoding: 60 60 29
Width: 525
GlyphClass: 2
Flags: MW
HStem: 55 21G<423.5 438.5> 537 20G<423.5 438.5>
LayerCount: 2
Fore
SplineSet
471 96 m 0
 471 69 448 55 429 55 c 0
 418 55 415 55 399 66 c 2
 75 269 l 2
 63 278 53 291 53 306 c 0
 53 328 68 338 79 345 c 2
 399 546 l 2
 415 557 418 557 429 557 c 0
 448 557 471 543 471 516 c 0
 471 494 456 484 444 476 c 2
 174 306 l 1
 444 136 l 2
 456 128 471 118 471 96 c 0
EndSplineSet
EndChar

StartChar: equal
Encoding: 61 61 30
Width: 525
GlyphClass: 2
Flags: MW
HStem: 190 84<88 93 93 431> 338 84<81 431 93 431 431 436>
LayerCount: 2
Fore
SplineSet
488 380 m 0
 488 339 450 338 436 338 c 2
 88 338 l 2
 74 338 36 339 36 380 c 0
 36 420 77 422 93 422 c 2
 431 422 l 2
 447 422 488 420 488 380 c 0
488 232 m 0
 488 192 447 190 431 190 c 2
 93 190 l 2
 77 190 36 192 36 232 c 0
 36 273 74 274 88 274 c 2
 436 274 l 2
 450 274 488 273 488 232 c 0
EndSplineSet
EndChar

StartChar: greater
Encoding: 62 62 31
Width: 525
GlyphClass: 2
Flags: MW
HStem: 55 21G<85.5 100.5> 537 20G<85.5 100.5>
LayerCount: 2
Fore
SplineSet
471 306 m 0
 471 284 456 274 445 267 c 2
 125 66 l 2
 109 55 106 55 95 55 c 0
 76 55 53 69 53 96 c 0
 53 118 68 128 80 136 c 2
 350 306 l 1
 80 476 l 2
 68 484 53 494 53 516 c 0
 53 543 76 557 95 557 c 0
 106 557 109 557 125 546 c 2
 449 343 l 2
 461 334 471 321 471 306 c 0
EndSplineSet
EndChar

StartChar: question
Encoding: 63 63 32
Width: 525
GlyphClass: 2
Flags: MW
HStem: 0 113<231 263> 113 113<231 294> 542 75<235 298.5>
VStem: 59 103<472 493.5 472 518.5> 154 93 201 93<215.5 226 226 243 206 258> 201 103 382 83<480 502>
LayerCount: 2
Fore
SplineSet
465 488 m 0x30
 465 434 427 404 396 387 c 0
 310 339 294 286 294 243 c 2
 294 226 l 2x45
 294 186 282 179 247 179 c 0x08
 202 179 201 193 201 238 c 0x04
 201 278 201 368 358 455 c 0
 371 463 382 472 382 488 c 0
 382 516 345 542 252 542 c 0
 218 542 178 537 154 515 c 1x29
 158 508 162 499 162 488 c 0
 162 456 135 437 111 437 c 0
 87 437 59 454 59 490 c 0
 59 547 108 617 252 617 c 0
 441 617 465 526 465 488 c 0x30
304 57 m 0
 304 25 279 0 247 0 c 0x88
 215 0 190 25 190 57 c 0
 190 88 215 113 247 113 c 0x48
 279 113 304 88 304 57 c 0
EndSplineSet
EndChar

StartChar: at
Encoding: 64 64 33
Width: 525
GlyphClass: 2
Flags: MW
HStem: -6 75<253 319.5 253 351> 103 75<314.5 355.5 314.5 358> 433 75<316 342.5 293.5 355.5> 542 75<254.5 314>
VStem: 42 70<238 375 238 396> 185 72<269.5 343 269.5 363.5> 333 70 335 68 414 68<268 342>
LayerCount: 2
Fore
SplineSet
482 86 m 0xbd
 482 56 397 -6 305 -6 c 0
 165 -6 42 127 42 306 c 0
 42 486 167 617 303 617 c 0
 480 617 482 386 482 321 c 0
 482 145 383 103 333 103 c 0xde80
 258 103 185 185 185 306 c 0
 185 421 253 508 334 508 c 0
 351 508 368 503 380 498 c 1
 358 535 325 542 303 542 c 0
 206 542 112 445 112 305 c 0
 112 171 202 69 304 69 c 0
 335 69 370 79 403 109 c 0
 414 120 418 121 437 121 c 0
 449 121 482 120 482 86 c 0xbd
414 305 m 0
 414 379 376 433 335 433 c 0x2180
 297 433 257 381 257 305 c 0
 257 234 293 178 336 178 c 0
 375 178 414 231 414 305 c 0
EndSplineSet
EndChar

StartChar: A
Encoding: 65 65 34
Width: 525
GlyphClass: 2
Flags: MW
HStem: 0 75<65 85 78 85 439 446.5> 161 75<207 317 207 335 189 317> 603 20G<245.5 279.5>
LayerCount: 2
Fore
SplineSet
499 37 m 0
 499 2 469 0 449 0 c 2
 350 0 l 2
 328 0 301 1 301 37 c 0
 301 70 319 74 354 75 c 1
 335 161 l 1
 189 161 l 1
 170 75 l 1
 205 74 223 70 223 37 c 0
 223 1 196 0 174 0 c 2
 75 0 l 2
 55 0 25 2 25 37 c 0
 25 53 33 65 46 72 c 0
 52 74 71 75 85 75 c 1
 202 580 l 2
 212 622 229 623 262 623 c 0
 297 623 312 621 322 579 c 2
 439 75 l 1
 454 75 472 74 478 71 c 0
 492 65 499 53 499 37 c 0
317 236 m 1
 262 496 l 1
 207 236 l 1
 317 236 l 1
EndSplineSet
EndChar

StartChar: B
Encoding: 66 66 35
Width: 525
GlyphClass: 2
Flags: MW
HStem: 0 75<59.5 87 69 87 171 287 287 308> 280 75<171 263 263 298 171 263> 536 75<68 69 69 87 171 171 171 285>
VStem: 87 84<75 280 355 536> 381 82<432.5 466> 402 82<150 192.5>
LayerCount: 2
Fore
SplineSet
484 171 m 0xb8
 484 91 423 0 308 0 c 2
 68 0 l 2
 51 0 21 1 21 37 c 0
 21 74 50 75 69 75 c 2
 87 75 l 1
 87 536 l 1
 69 536 l 2
 50 536 21 537 21 574 c 0
 21 610 51 611 68 611 c 2
 288 611 l 2
 402 611 463 527 463 452 c 0
 463 396 428 347 374 321 c 1
 444 296 484 235 484 171 c 0xb8
381 451 m 0
 381 481 361 536 285 536 c 2
 171 536 l 1
 171 355 l 1
 263 355 l 2
 352 355 381 414 381 451 c 0
402 172 m 0
 402 213 375 280 298 280 c 2
 171 280 l 1
 171 75 l 1
 287 75 l 2
 366 75 402 128 402 172 c 0
EndSplineSet
EndChar

StartChar: C
Encoding: 67 67 36
Width: 525
GlyphClass: 2
Flags: MW
HStem: -11 75<242.5 304 242.5 340> 547 75<242.5 304.5 216 312>
VStem: 38 83<235.5 376 235.5 397> 403 83
LayerCount: 2
Fore
SplineSet
486 172 m 0
 486 80 399 -11 281 -11 c 0
 151 -11 38 123 38 306 c 0
 38 488 151 622 281 622 c 0
 328 622 372 604 405 579 c 1
 413 596 413 598 415 601 c 0
 421 610 430 622 449 622 c 0
 485 622 486 593 486 574 c 2
 486 439 l 2
 486 415 485 391 444 391 c 0
 409 391 406 409 402 429 c 0
 390 504 340 547 284 547 c 0
 201 547 121 446 121 306 c 0
 121 165 200 64 285 64 c 0
 323 64 397 86 403 176 c 0
 406 211 433 211 444 211 c 0
 457 211 486 211 486 172 c 0
EndSplineSet
EndChar

StartChar: D
Encoding: 68 68 37
Width: 525
GlyphClass: 2
Flags: MW
HStem: 0 75<56 79 65 79 162 248 248 266> 536 75<56 266 65 79 162 162 162 248>
VStem: 79 83<75 536 75 536> 405 82<246 355.5>
LayerCount: 2
Fore
SplineSet
487 301 m 0
 487 140 397 0 266 0 c 2
 65 0 l 2
 47 0 17 1 17 37 c 0
 17 74 46 75 65 75 c 2
 79 75 l 1
 79 536 l 1
 65 536 l 2
 47 536 17 537 17 573 c 0
 17 610 46 611 65 611 c 2
 266 611 l 2
 399 611 487 462 487 301 c 0
405 301 m 0
 405 410 354 536 248 536 c 2
 162 536 l 1
 162 75 l 1
 248 75 l 2
 352 75 405 191 405 301 c 0
EndSplineSet
EndChar

StartChar: E
Encoding: 69 69 38
Width: 525
GlyphClass: 2
Flags: MW
HStem: 0 75<63 93 72 93 176 421> 279 75<176 288 176 288> 536 75<63 436 72 93 176 176 176 399>
VStem: 93 83<75 279 354 536> 288 83<279 279 354 354> 399 83<492 536 536 536> 421 83<75 134>
LayerCount: 2
Fore
SplineSet
504 48 m 2xfa
 504 10 495 0 457 0 c 2
 72 0 l 2
 54 0 24 1 24 37 c 0
 24 74 53 75 72 75 c 2
 93 75 l 1
 93 536 l 1
 72 536 l 2
 54 536 24 537 24 574 c 0
 24 610 54 611 72 611 c 2
 436 611 l 2
 475 611 482 599 482 563 c 2
 482 492 l 2
 482 469 482 444 440 444 c 0
 400 444 399 470 399 492 c 2
 399 536 l 1xb4
 176 536 l 1
 176 354 l 1
 288 354 l 1
 289 394 293 409 330 409 c 0
 370 409 371 384 371 362 c 2
 371 271 l 2
 371 248 370 223 330 223 c 0
 293 223 289 238 288 279 c 1
 176 279 l 1
 176 75 l 1
 421 75 l 1
 421 134 l 2
 421 158 422 182 463 182 c 0
 503 182 504 157 504 134 c 2
 504 48 l 2xfa
EndSplineSet
EndChar

StartChar: F
Encoding: 70 70 39
Width: 525
GlyphClass: 2
Flags: MW
HStem: 0 75<65 98 74 98 181 224> 268 75<181 298 181 298> 536 75<65 445 74 98 181 409 181 181>
VStem: 98 83<75 268 343 536> 298 83<249 260 260 268 343 351> 409 83<492 536 536 536>
CounterMasks: 1 e0
LayerCount: 2
Fore
SplineSet
492 492 m 2
 492 469 491 444 450 444 c 0
 410 444 409 470 409 492 c 2
 409 536 l 1
 181 536 l 1
 181 343 l 1
 298 343 l 1
 298 384 302 399 340 399 c 0
 380 399 381 373 381 351 c 2
 381 260 l 2
 381 238 380 212 340 212 c 0
 302 212 298 227 298 268 c 1
 181 268 l 1
 181 75 l 1
 224 75 l 2
 243 75 271 74 271 37 c 0
 271 1 242 0 224 0 c 2
 74 0 l 2
 56 0 26 1 26 37 c 0
 26 74 55 75 74 75 c 2
 98 75 l 1
 98 536 l 1
 74 536 l 2
 56 536 26 537 26 573 c 0
 26 610 55 611 74 611 c 2
 445 611 l 2
 485 611 492 599 492 563 c 2
 492 492 l 2
EndSplineSet
EndChar

StartChar: G
Encoding: 71 71 40
Width: 525
GlyphClass: 2
Flags: MW
HStem: -11 75<226 285> 204 75<324.5 450 334 366 452 459 334 464.5> 547 75<228.5 281>
VStem: 36 83<236 377 236 396.5> 287 83 369 83 415 83
LayerCount: 2
Fore
SplineSet
498 242 m 0xf8
 498 209 477 204 452 204 c 1
 452 48 l 2x44
 452 25 451 0 411 0 c 0
 380 0 372 13 370 31 c 1
 347 10 309 -11 261 -11 c 0
 142 -11 36 122 36 306 c 0
 36 487 141 622 261 622 c 0
 301 622 339 609 372 583 c 1
 386 613 394 622 415 622 c 0xba
 451 622 452 593 452 574 c 2
 452 439 l 2
 452 415 451 391 410 391 c 0
 379 391 372 405 369 426 c 0x04
 354 525 297 547 265 547 c 0
 192 547 119 449 119 305 c 0
 119 167 188 64 264 64 c 0
 312 64 354 106 366 204 c 1
 334 204 l 2
 315 204 287 205 287 242 c 0
 287 277 316 279 334 279 c 2
 450 279 l 2
 468 279 498 277 498 242 c 0xf8
EndSplineSet
EndChar

StartChar: H
Encoding: 72 72 41
Width: 525
GlyphClass: 2
Flags: MW
HStem: 0 75<58 84 67 84 167 183 341 357 440 457> 280 75<167 357 167 357> 536 75<58 183 67 84 167 167 167 183 341 357 440 440 440 457>
VStem: 84 83<75 280 75 355 355 536> 357 83<75 280 280 280 355 536 75 536>
LayerCount: 2
Fore
SplineSet
504 37 m 0
 504 1 475 0 457 0 c 2
 341 0 l 2
 322 0 294 1 294 38 c 0
 294 74 323 75 341 75 c 2
 357 75 l 1
 357 280 l 1
 167 280 l 1
 167 75 l 1
 183 75 l 2
 202 75 230 74 230 37 c 0
 230 1 201 0 183 0 c 2
 67 0 l 2
 49 0 20 1 20 37 c 0
 20 74 48 75 67 75 c 2
 84 75 l 1
 84 536 l 1
 67 536 l 2
 49 536 20 537 20 573 c 0
 20 610 48 611 67 611 c 2
 183 611 l 2
 202 611 230 610 230 573 c 0
 230 537 201 536 183 536 c 2
 167 536 l 1
 167 355 l 1
 357 355 l 1
 357 536 l 1
 341 536 l 2
 322 536 294 537 294 574 c 0
 294 610 323 611 341 611 c 2
 457 611 l 2
 476 611 504 610 504 573 c 0
 504 537 475 536 457 536 c 2
 440 536 l 1
 440 75 l 1
 457 75 l 2
 476 75 504 74 504 37 c 0
EndSplineSet
EndChar

StartChar: I
Encoding: 73 73 42
Width: 525
GlyphClass: 2
Flags: MW
HStem: 0 75<115 221 124 221 304 401> 536 75<115 401 124 221 304 304 304 401>
VStem: 221 83<75 536 75 536>
LayerCount: 2
Fore
SplineSet
449 37 m 0
 449 1 419 0 401 0 c 2
 124 0 l 2
 106 0 76 1 76 38 c 0
 76 74 106 75 124 75 c 2
 221 75 l 1
 221 536 l 1
 124 536 l 2
 106 536 76 537 76 574 c 0
 76 610 106 611 124 611 c 2
 401 611 l 2
 419 611 449 610 449 573 c 0
 449 537 419 536 401 536 c 2
 304 536 l 1
 304 75 l 1
 401 75 l 2
 419 75 449 74 449 37 c 0
EndSplineSet
EndChar

StartChar: J
Encoding: 74 74 43
Width: 525
GlyphClass: 2
Flags: MW
HStem: -11 75<234.5 246.5 234.5 283.5> 83 75 536 75<247.5 433 256 329 411 433 411 411>
VStem: 68 103<101 121 101 122.5> 329 82<144 536>
LayerCount: 2
Fore
SplineSet
481 574 m 0
 481 537 452 536 433 536 c 2
 411 536 l 1
 411 138 l 2
 411 45 329 -11 238 -11 c 0
 135 -11 68 39 68 104 c 0
 68 141 94 158 120 158 c 0
 149 158 171 135 171 107 c 0
 171 95 169 88 166 83 c 1
 192 64 231 64 238 64 c 0
 255 64 329 68 329 144 c 2
 329 536 l 1
 256 536 l 2
 239 536 209 537 209 574 c 0
 209 610 239 611 256 611 c 2
 433 611 l 2
 451 611 481 610 481 574 c 0
EndSplineSet
EndChar

StartChar: K
Encoding: 75 75 44
Width: 525
GlyphClass: 2
Flags: MW
HStem: 0 75<62.5 86 72 86 156 169 443 449> 536 75<62.5 169 72 86 156 156 156 169 428 439 439 447>
VStem: 86 70<75 194 307 536> 306 70
LayerCount: 2
Fore
SplineSet
497 37 m 0
 497 1 467 0 449 0 c 2
 376 0 l 2
 357 0 328 1 328 38 c 0
 328 66 346 73 362 74 c 1
 237 297 l 1
 156 194 l 1
 156 75 l 1
 169 75 l 2
 188 75 217 74 217 37 c 0
 217 1 187 0 169 0 c 2
 72 0 l 2
 53 0 24 1 24 38 c 0
 24 74 54 75 72 75 c 2
 86 75 l 1
 86 536 l 1
 72 536 l 2
 53 536 24 537 24 574 c 0
 24 610 54 611 72 611 c 2
 169 611 l 2
 188 611 217 610 217 573 c 0
 217 537 187 536 169 536 c 2
 156 536 l 1
 156 307 l 1
 338 537 l 1
 323 539 306 547 306 573 c 0
 306 610 336 611 354 611 c 2
 439 611 l 2
 456 611 487 610 487 574 c 0
 487 540 466 536 428 536 c 1
 285 356 l 1
 443 75 l 1
 474 75 497 71 497 37 c 0
EndSplineSet
EndChar

StartChar: L
Encoding: 76 76 45
Width: 525
GlyphClass: 2
Flags: MW
HStem: 0 75<68 105 77 105 188 407> 536 75<68 235 77 105 188 188 188 235>
VStem: 105 83<75 536 75 536> 407 83<75 134>
LayerCount: 2
Fore
SplineSet
490 48 m 2
 490 10 482 0 443 0 c 2
 77 0 l 2
 59 0 30 1 30 37 c 0
 30 74 58 75 77 75 c 2
 105 75 l 1
 105 536 l 1
 77 536 l 2
 59 536 30 537 30 573 c 0
 30 610 58 611 77 611 c 2
 235 611 l 2
 252 611 282 610 282 573 c 0
 282 537 251 536 235 536 c 2
 188 536 l 1
 188 75 l 1
 407 75 l 1
 407 134 l 2
 407 159 408 182 449 182 c 0
 489 182 490 158 490 134 c 2
 490 48 l 2
EndSplineSet
EndChar

StartChar: M
Encoding: 77 77 46
Width: 525
GlyphClass: 2
Flags: MW
HStem: 0 75<53 62 62 67 138 142 373 382 382 387 457 462> 536 75<62 67 457 462 462 471>
VStem: 67 71<75 483 75 536 75 536> 387 70<75 483 483 483>
LayerCount: 2
Fore
SplineSet
509 37 m 0
 509 1 480 0 462 0 c 2
 382 0 l 2
 364 0 335 1 335 37 c 0
 335 70 355 75 387 75 c 1
 387 483 l 1
 303 225 l 2
 294 208 277 199 262 199 c 0
 248 199 234 207 226 218 c 1
 138 483 l 1
 138 75 l 1
 169 75 189 70 189 37 c 0
 189 1 160 0 142 0 c 2
 62 0 l 2
 44 0 15 1 15 37 c 0
 15 70 35 75 67 75 c 1
 67 536 l 1
 35 536 15 541 15 574 c 0
 15 610 44 611 62 611 c 2
 117 611 l 2
 133 611 160 610 172 583 c 2
 262 301 l 1
 347 567 l 2
 357 596 363 611 407 611 c 2
 462 611 l 2
 480 611 509 610 509 574 c 0
 509 541 489 536 457 536 c 1
 457 75 l 1
 489 75 509 70 509 37 c 0
EndSplineSet
EndChar

StartChar: N
Encoding: 78 78 47
Width: 525
GlyphClass: 2
Flags: MW
HStem: 0 75<63.5 90 73 90 160 176> 536 75<63.5 139 73 90 348 364 434 451 434 434>
VStem: 90 70<75 487 75 536 75 536> 364 70<124 536>
LayerCount: 2
Fore
SplineSet
498 573 m 0
 498 537 469 536 451 536 c 2
 434 536 l 1
 434 48 l 2
 434 4 421 0 386 0 c 0
 357 0 339 1 325 40 c 2
 160 487 l 1
 160 75 l 1
 176 75 l 2
 195 75 223 74 223 37 c 0
 223 1 194 0 176 0 c 2
 73 0 l 2
 54 0 26 1 26 38 c 0
 26 74 55 75 73 75 c 2
 90 75 l 1
 90 536 l 1
 73 536 l 2
 54 536 26 537 26 574 c 0
 26 610 55 611 73 611 c 2
 139 611 l 2
 169 611 186 607 199 571 c 2
 364 124 l 1
 364 536 l 1
 348 536 l 2
 330 536 301 537 301 573 c 0
 301 610 329 611 348 611 c 2
 451 611 l 2
 470 611 498 610 498 573 c 0
EndSplineSet
EndChar

StartChar: O
Encoding: 79 79 48
Width: 525
GlyphClass: 2
Flags: MW
HStem: -11 75<222 302.5 222 354.5> 547 75<225 296>
VStem: 53 83<287.5 342 287.5 450.5> 388 83<284 343.5>
LayerCount: 2
Fore
SplineSet
471 305 m 0
 471 15 447 -11 262 -11 c 0
 76 -11 53 15 53 305 c 0
 53 596 76 622 262 622 c 0
 448 622 471 595 471 305 c 0
388 314 m 0
 388 373 388 445 376 490 c 0
 363 540 330 547 262 547 c 0
 188 547 159 537 145 476 c 0
 136 432 136 370 136 314 c 0
 136 261 136 176 148 128 c 0
 159 82 182 64 262 64 c 0
 343 64 367 82 377 133 c 0
 388 185 388 254 388 314 c 0
EndSplineSet
EndChar

StartChar: P
Encoding: 80 80 49
Width: 525
GlyphClass: 2
Flags: MW
HStem: 0 75<63 93 72 93 176 197> 239 75<177 272 272 290 176 272> 536 75<63 290 72 93 177 177 177 272>
VStem: 93 83<75 239 75 536> 400 82<400.5 449>
LayerCount: 2
Fore
SplineSet
482 425 m 0
 482 330 408 239 290 239 c 2
 176 239 l 1
 176 75 l 1
 197 75 l 2
 215 75 245 74 245 37 c 0
 245 1 215 0 197 0 c 2
 72 0 l 2
 54 0 24 1 24 37 c 0
 24 74 53 75 72 75 c 2
 93 75 l 1
 93 536 l 1
 72 536 l 2
 54 536 24 537 24 574 c 0
 24 610 54 611 72 611 c 2
 290 611 l 2
 407 611 482 519 482 425 c 0
400 425 m 0
 400 473 360 536 272 536 c 2
 177 536 l 1
 177 314 l 1
 272 314 l 2
 360 314 400 376 400 425 c 0
EndSplineSet
EndChar

StartChar: Q
Encoding: 81 81 50
Width: 525
GlyphClass: 2
Flags: MW
HStem: -135 21G<400.5 410 410 419> -11 75<254 262> 64 75<234 273 234 273> 547 75<220 302.5>
VStem: 53 83<279 332 279 450.5> 146 83 229 83 388 83<282.5 332>
LayerCount: 2
Fore
SplineSet
471 305 m 0xdb
 471 260 471 194 465 141 c 0
 456 63 438 27 399 8 c 1
 427 -43 l 2
 438 -66 458 -105 458 -109 c 0
 458 -133 438 -135 419 -135 c 2
 410 -135 l 2
 391 -135 379 -134 369 -120 c 2
 312 -10 l 1
 262 -11 l 2
 76 -11 53 15 53 305 c 0
 53 596 76 622 262 622 c 0
 448 622 471 595 471 305 c 0xdb
388 306 m 0
 388 358 388 424 379 473 c 0
 369 532 343 547 262 547 c 0
 178 547 158 530 146 480 c 0
 136 434 136 359 136 305 c 0
 136 253 136 187 145 138 c 0
 154 89 173 64 254 64 c 2
 273 64 l 1
 234 139 l 2x3d
 230 146 229 150 229 156 c 0
 229 180 250 182 268 182 c 2
 279 182 l 2
 303 182 304 181 315 163 c 2
 357 86 l 1
 375 100 388 131 388 306 c 0
EndSplineSet
EndChar

StartChar: R
Encoding: 82 82 51
Width: 525
GlyphClass: 2
Flags: MW
HStem: 0 75<58 84 67 84 167 183> 268 75<167 229 229 235 167 167> 536 75<58 240 67 84 166 166 166 229>
VStem: 84 82<343 536 343 536 343 536> 84 83<75 268 75 536> 328 82<133 184.5 129.5 185> 347 83 354 83<419.5 461> 440 83<82.5 112.5>
CounterMasks: 1 e0
LayerCount: 2
Fore
SplineSet
523 98 m 0xe280
 523 58 497 -11 431 -11 c 0
 395 -11 365 6 347 38 c 0xf280
 328 70 328 100 328 166 c 0
 328 204 328 225 309 243 c 0
 280 268 252 268 235 268 c 2
 167 268 l 1
 167 75 l 1xec
 183 75 l 2
 202 75 230 74 230 37 c 0
 230 1 201 0 183 0 c 2
 67 0 l 2
 49 0 21 1 21 37 c 0
 21 74 48 75 67 75 c 2
 84 75 l 1
 84 536 l 1
 67 536 l 2
 49 536 21 537 21 573 c 0
 21 610 48 611 67 611 c 2
 240 611 l 2
 360 611 437 527 437 439 c 0xf1
 437 400 419 341 359 303 c 1
 373 291 391 272 401 248 c 0
 410 224 410 216 410 153 c 0xe4
 410 106 410 64 430 64 c 0
 437 64 440 77 440 88 c 0
 440 137 469 137 482 137 c 0
 495 137 523 137 523 98 c 0xe280
354 439 m 0
 354 483 313 536 229 536 c 2
 166 536 l 1
 166 343 l 1
 229 343 l 2
 312 343 354 395 354 439 c 0
EndSplineSet
EndChar

StartChar: S
Encoding: 83 83 52
Width: 525
GlyphClass: 2
Flags: MW
HStem: -11 75<271.5 320 271.5 342> 90 75 356 75 547 75<205.5 260 182.5 290.5>
VStem: 50 78<437 481 437 497.5> 201 78<356 374> 293 78 396 78<141 202.5 124.5 204.5>
LayerCount: 2
Fore
SplineSet
474 170 m 0
 474 79 401 -11 283 -11 c 0
 224 -11 167 3 127 29 c 1
 118 1 109 -11 87 -11 c 0
 51 -11 50 18 50 37 c 2
 50 166 l 2
 50 189 50 213 91 213 c 0
 130 213 131 192 132 172 c 0
 133 156 137 118 180 90 c 0
 216 68 259 64 284 64 c 0
 356 64 396 117 396 165 c 0
 396 244 319 262 293 267 c 2
 181 294 l 2
 96 318 50 386 50 454 c 0
 50 541 126 622 239 622 c 0
 281 622 331 611 371 582 c 1
 379 608 387 622 411 622 c 0
 447 622 448 593 448 574 c 2
 448 445 l 2
 448 422 447 398 406 398 c 0
 382 398 369 405 365 431 c 0
 360 460 343 547 238 547 c 0
 173 547 128 504 128 458 c 0
 128 416 163 385 201 374 c 2
 279 356 l 2
 357 338 384 331 425 291 c 0
 438 278 474 235 474 170 c 0
EndSplineSet
EndChar

StartChar: T
Encoding: 84 84 53
Width: 525
GlyphClass: 2
Flags: MW
HStem: 0 75<168.5 221 178 221 304 347> 536 75<107 221 107 107 304 417 304 304>
VStem: 24 83<492 536 480.5 563 480.5 582.5> 221 83<75 536 75 536> 417 83<492 536 536 536>
LayerCount: 2
Fore
SplineSet
500 492 m 2
 500 469 499 444 458 444 c 0
 418 444 417 470 417 492 c 2
 417 536 l 1
 304 536 l 1
 304 75 l 1
 347 75 l 2
 366 75 394 74 394 37 c 0
 394 1 365 0 347 0 c 2
 178 0 l 2
 159 0 131 1 131 38 c 0
 131 74 160 75 178 75 c 2
 221 75 l 1
 221 536 l 1
 107 536 l 1
 107 492 l 2
 107 469 106 444 65 444 c 0
 25 444 24 470 24 492 c 2
 24 563 l 2
 24 602 34 611 72 611 c 2
 453 611 l 2
 493 611 500 599 500 563 c 2
 500 492 l 2
EndSplineSet
EndChar

StartChar: U
Encoding: 85 85 54
Width: 525
GlyphClass: 2
Flags: MW
HStem: -11 75<237.5 286 237.5 312.5> 536 75<42 176 51 72 155 155 155 176 348 369 452 473 452 452>
VStem: 72 83<207 211 211 536> 369 83<211 536>
LayerCount: 2
Fore
SplineSet
521 574 m 0
 521 537 492 536 473 536 c 2
 452 536 l 1
 452 207 l 2
 452 82 363 -11 262 -11 c 0
 161 -11 72 82 72 207 c 2
 72 536 l 1
 51 536 l 2
 33 536 3 537 3 574 c 0
 3 610 33 611 51 611 c 2
 176 611 l 2
 194 611 224 610 224 574 c 0
 224 537 194 536 176 536 c 2
 155 536 l 1
 155 211 l 2
 155 113 213 64 262 64 c 0
 310 64 369 113 369 211 c 2
 369 536 l 1
 348 536 l 2
 330 536 300 537 300 574 c 0
 300 610 330 611 348 611 c 2
 473 611 l 2
 491 611 521 610 521 574 c 0
EndSplineSet
EndChar

StartChar: V
Encoding: 86 86 55
Width: 525
GlyphClass: 2
Flags: MW
HStem: -8 21G<246 277> 536 75<64 74 159 159 365 365 450 460 460 468.5>
LayerCount: 2
Fore
SplineSet
508 574 m 0
 508 540 487 536 450 536 c 1
 323 34 l 2
 313 -7 292 -8 262 -8 c 0
 230 -8 212 -7 201 35 c 2
 74 536 l 1
 37 536 16 540 16 574 c 0
 16 610 46 611 64 611 c 2
 164 611 l 2
 181 611 211 610 211 574 c 0
 211 542 193 537 159 536 c 1
 262 111 l 1
 365 536 l 1
 331 537 313 542 313 574 c 0
 313 610 343 611 360 611 c 2
 460 611 l 2
 478 611 508 610 508 574 c 0
EndSplineSet
EndChar

StartChar: W
Encoding: 87 87 56
Width: 525
GlyphClass: 2
Flags: MW
HStem: -8 21G<158 170 355 366> 536 75<48 134 119 119 119 134 390 405>
LayerCount: 2
Fore
SplineSet
514 573 m 0
 514 542 491 537 476 536 c 1
 407 33 l 2
 401 -8 373 -8 359 -8 c 0
 351 -8 321 -7 313 22 c 2
 263 257 l 1
 210 17 l 1
 198 -7 175 -8 165 -8 c 0
 151 -8 123 -8 117 33 c 2
 48 536 l 1
 34 537 10 542 10 573 c 0
 10 610 40 611 57 611 c 2
 134 611 l 2
 153 611 181 610 181 573 c 0
 181 537 152 536 134 536 c 2
 119 536 l 1
 170 129 l 1
 216 346 l 1
 228 373 250 373 262 373 c 0
 272 373 299 373 309 345 c 1
 354 130 l 1
 405 536 l 1
 390 536 l 2
 372 536 343 537 343 573 c 0
 343 610 371 611 390 611 c 2
 467 611 l 2
 484 611 514 610 514 573 c 0
EndSplineSet
EndChar

StartChar: X
Encoding: 88 88 57
Width: 525
GlyphClass: 2
Flags: MW
HStem: 0 75<63 89 72 89 72 173 432 450> 536 75<75 185 84 101 84 195 405 405 405 422>
LayerCount: 2
Fore
SplineSet
498 37 m 0
 498 1 468 0 450 0 c 2
 349 0 l 2
 331 0 302 1 302 37 c 0
 302 68 319 74 341 75 c 1
 257 239 l 1
 180 75 l 1
 202 74 221 68 221 37 c 0
 221 1 191 0 173 0 c 2
 72 0 l 2
 54 0 25 1 25 37 c 0
 25 74 53 75 72 75 c 2
 89 75 l 1
 214 324 l 1
 101 536 l 1
 84 536 l 2
 66 536 36 537 36 574 c 0
 36 610 66 611 84 611 c 2
 185 611 l 2
 203 611 232 610 232 574 c 0
 232 544 214 538 195 536 c 1
 257 419 l 1
 314 536 l 1
 292 537 274 543 274 574 c 0
 274 610 303 611 320 611 c 2
 422 611 l 2
 440 611 470 610 470 573 c 0
 470 537 440 536 422 536 c 2
 405 536 l 1
 299 326 l 1
 432 75 l 1
 450 75 l 2
 468 75 498 74 498 37 c 0
EndSplineSet
EndChar

StartChar: Y
Encoding: 89 89 58
Width: 525
GlyphClass: 2
Flags: MW
HStem: 0 75<195 221 205 221 304 320> 536 75<54.5 166 64 80 172 172 444 460 444 444>
VStem: 221 83<75 244 75 244>
LayerCount: 2
Fore
SplineSet
507 573 m 0
 507 537 478 536 460 536 c 2
 444 536 l 1
 304 244 l 1
 304 75 l 1
 320 75 l 2
 340 75 367 74 367 37 c 0
 367 1 338 0 320 0 c 2
 205 0 l 2
 185 0 158 1 158 38 c 0
 158 74 187 75 205 75 c 2
 221 75 l 1
 221 244 l 1
 80 536 l 1
 64 536 l 2
 45 536 17 537 17 574 c 0
 17 610 46 611 64 611 c 2
 166 611 l 2
 183 611 212 610 212 574 c 0
 212 543 194 537 172 536 c 1
 263 333 l 1
 352 536 l 1
 330 537 312 543 312 574 c 0
 312 610 341 611 358 611 c 2
 460 611 l 2
 479 611 507 610 507 573 c 0
EndSplineSet
EndChar

StartChar: Z
Encoding: 90 90 59
Width: 525
GlyphClass: 2
Flags: MW
HStem: 0 75<57 93 155 400> 536 75<140 369 140 140 105 467>
VStem: 57 83<492 536 480.5 563 480.5 582.5> 400 83<75 137>
LayerCount: 2
Fore
SplineSet
483 48 m 2
 483 10 475 0 436 0 c 2
 93 0 l 2
 71 0 46 1 46 41 c 0
 46 52 46 59 57 75 c 2
 369 536 l 1
 140 536 l 1
 140 492 l 2
 140 469 140 444 98 444 c 0
 58 444 57 470 57 492 c 2
 57 563 l 2
 57 602 67 611 105 611 c 2
 431 611 l 2
 453 611 478 610 478 570 c 0
 478 559 478 552 467 536 c 2
 155 75 l 1
 400 75 l 1
 400 137 l 2
 400 161 401 185 442 185 c 0
 482 185 483 160 483 137 c 2
 483 48 l 2
EndSplineSet
EndChar

StartChar: bracketleft
Encoding: 91 91 60
Width: 525
GlyphClass: 2
Flags: MW
HStem: -81 75<244.5 441 300 441 300 441> 617 75<300 441 300 300>
VStem: 218 82<-6 617 -6 644 -6 662.5>
LayerCount: 2
Fore
SplineSet
487 -44 m 0
 487 -80 459 -81 441 -81 c 2
 264 -81 l 2
 225 -81 218 -69 218 -33 c 2
 218 644 l 2
 218 681 226 692 264 692 c 2
 441 692 l 2
 460 692 487 691 487 654 c 0
 487 618 459 617 441 617 c 2
 300 617 l 1
 300 -6 l 1
 441 -6 l 2
 460 -6 487 -7 487 -44 c 0
EndSplineSet
EndChar

StartChar: backslash
Encoding: 92 92 61
Width: 525
GlyphClass: 2
Flags: MW
HStem: -81 21G<414 439> 672 20G<85 110>
LayerCount: 2
Fore
SplineSet
469 -39 m 0
 469 -61 451 -81 427 -81 c 0
 401 -81 391 -62 386 -50 c 2
 63 623 l 2
 60 630 55 641 55 650 c 0
 55 672 73 692 97 692 c 0
 123 692 133 673 138 661 c 2
 461 -12 l 2
 464 -19 469 -30 469 -39 c 0
EndSplineSet
EndChar

StartChar: bracketright
Encoding: 93 93 62
Width: 525
GlyphClass: 2
Flags: MW
HStem: -81 75<73.5 224 83 224 83 260> 617 75<73.5 260 83 224>
VStem: 224 82<-6 617 617 617>
LayerCount: 2
Fore
SplineSet
306 -33 m 2
 306 -70 298 -81 260 -81 c 2
 83 -81 l 2
 64 -81 37 -80 37 -43 c 0
 37 -7 65 -6 83 -6 c 2
 224 -6 l 1
 224 617 l 1
 83 617 l 2
 64 617 37 618 37 655 c 0
 37 691 65 692 83 692 c 2
 260 692 l 2
 299 692 306 680 306 644 c 2
 306 -33 l 2
EndSplineSet
EndChar

StartChar: asciicircum
Encoding: 94 94 63
Width: 525
GlyphClass: 2
Flags: W
LayerCount: 2
Fore
SplineSet
436 544 m 2
 479 523 449 459 406 477 c 2
 262 539 l 1
 118 477 l 2
 76 459 46 523 89 544 c 2
 248 621 l 2
 257 625 268 625 277 621 c 2
 436 544 l 2
EndSplineSet
EndChar

StartChar: underscore
Encoding: 95 95 64
Width: 525
GlyphClass: 2
Flags: MW
HStem: -159 84<100 417 107 417>
LayerCount: 2
Fore
SplineSet
471 -117 m 0
 471 -158 431 -159 417 -159 c 2
 107 -159 l 2
 93 -159 53 -158 53 -117 c 0
 53 -76 93 -75 107 -75 c 2
 417 -75 l 2
 431 -75 471 -76 471 -117 c 0
EndSplineSet
EndChar

StartChar: grave
Encoding: 96 96 65
Width: 525
GlyphClass: 2
Flags: MW
HStem: 476 21G<329 348.5> 602 20G<181 193>
LayerCount: 2
Fore
SplineSet
373 522 m 0
 373 513 364 476 333 476 c 0
 325 476 319 478 312 481 c 2
 183 539 l 2
 155 551 151 567 151 580 c 0
 151 604 169 622 193 622 c 1
 193 622 202 622 215 616 c 2
 344 558 l 2
 361 551 373 544 373 522 c 0
EndSplineSet
EndChar

StartChar: a
Encoding: 97 97 66
Width: 525
GlyphClass: 2
Flags: MW
HStem: -6 75<194.5 226 194.5 234.5> 0 75<459.5 480.5> 369 75<216 257>
VStem: 48 82<115.5 155 115.5 180.5>
LayerCount: 2
Fore
SplineSet
521 38 m 0x70
 521 2 497 0 464 0 c 0x40
 427 0 382 2 357 29 c 1
 311 1 252 -6 217 -6 c 0x80
 112 -6 48 62 48 133 c 0
 48 228 167 281 340 285 c 1
 337 344 290 369 224 369 c 0
 208 369 176 366 176 366 c 1
 175 323 142 313 125 313 c 0
 98 313 74 331 74 365 c 0
 74 441 178 444 223 444 c 0
 369 444 423 358 423 286 c 2
 423 81 l 1
 431 78 445 75 474 75 c 0
 492 75 521 74 521 38 c 0x70
339 138 m 2
 339 212 l 1
 209 207 130 177 130 133 c 0
 130 98 167 69 222 69 c 0x90
 230 69 272 69 306 85 c 0
 339 100 339 119 339 138 c 2
EndSplineSet
EndChar

StartChar: b
Encoding: 98 98 67
Width: 525
GlyphClass: 2
Flags: MW
HStem: -6 75<266.5 311.5 243.5 336> 366 75<270.5 321> 536 75<48.5 129 58 93>
VStem: 10 83<48 591.5> 93 82 93 83<403 536 536 536> 408 82<174 258>
LayerCount: 2
Fore
SplineSet
490 218 m 0x64
 490 90 391 -6 281 -6 c 0
 252 -6 213 2 175 34 c 1xca
 174 14 166 0 135 0 c 0
 94 0 93 24 93 48 c 2
 93 536 l 1
 57 536 l 2
 40 536 10 537 10 573 c 0x30
 10 610 39 611 58 611 c 2
 129 611 l 2
 169 611 176 599 176 563 c 2
 176 403 l 1
 209 427 249 441 292 441 c 0
 399 441 490 343 490 218 c 0x64
408 218 m 0
 408 298 355 366 287 366 c 0
 230 366 177 319 177 265 c 2
 177 194 l 2
 177 150 208 69 279 69 c 0
 344 69 408 130 408 218 c 0
EndSplineSet
EndChar

StartChar: c
Encoding: 99 99 68
Width: 525
GlyphClass: 2
Flags: MW
HStem: -6 75<259 330 259 363.5> 369 75<241.5 304>
VStem: 70 83<176 240.5 176 262.5> 304 83 355 102<368 368>
LayerCount: 2
Fore
SplineSet
469 114 m 0xf0
 469 97 435 -6 292 -6 c 0
 165 -6 70 97 70 218 c 0
 70 307 131 444 304 444 c 0xf0
 351 444 457 441 457 365 c 0
 457 332 433 313 405 313 c 0
 378 313 356 328 355 368 c 1x08
 304 369 l 2
 179 369 153 263 153 218 c 0
 153 134 220 69 298 69 c 0
 362 69 382 111 387 123 c 0
 396 147 408 149 427 149 c 0
 434 149 469 148 469 114 c 0xf0
EndSplineSet
EndChar

StartChar: d
Encoding: 100 100 69
Width: 525
GlyphClass: 2
Flags: MW
HStem: -6 75<203 257.5> 0 75<375.5 467 431 466> 366 75<212.5 261 187 274> 536 75<303.5 384 313 348>
VStem: 265 83<406 591.5> 348 83<406 536 536 536> 431 83<19.5 563 19.5 75>
CounterMasks: 1 0e
LayerCount: 2
Fore
SplineSet
514 38 m 0x7e
 514 1 485 0 466 0 c 2
 395 0 l 2x4e
 356 0 350 11 348 39 c 1
 320 14 282 -6 233 -6 c 0x8e
 126 -6 34 92 34 217 c 0
 34 346 132 441 242 441 c 0
 280 441 317 429 348 406 c 1
 348 536 l 1
 312 536 l 2
 295 536 265 537 265 573 c 0
 265 610 294 611 313 611 c 2
 384 611 l 2
 424 611 431 599 431 563 c 2
 431 75 l 1
 467 75 l 2
 484 75 514 74 514 38 c 0x7e
347 197 m 2
 347 266 l 2
 347 316 303 366 245 366 c 0
 180 366 116 306 116 217 c 0
 116 135 170 69 236 69 c 0xae
 306 69 347 146 347 197 c 2
EndSplineSet
EndChar

StartChar: e
Encoding: 101 101 70
Width: 525
GlyphClass: 2
Flags: MW
HStem: -6 75<257.5 303.5 257.5 352> 186 74<140 381 140 420 139 381> 369 75<239 293>
LayerCount: 2
Fore
SplineSet
467 114 m 0
 467 88 420 -6 284 -6 c 0
 154 -6 52 96 52 219 c 0
 52 343 150 444 270 444 c 0
 401 444 467 345 467 230 c 0
 467 186 445 186 420 186 c 2
 139 186 l 1
 157 112 224 69 291 69 c 0
 316 69 365 77 385 123 c 0
 394 145 403 149 425 149 c 0
 432 149 467 148 467 114 c 0
381 260 m 1
 370 347 316 369 270 369 c 0
 208 369 156 323 140 260 c 1
 381 260 l 1
EndSplineSet
EndChar

StartChar: f
Encoding: 102 102 71
Width: 525
GlyphClass: 2
Flags: MW
HStem: 0 75<78 178 87 178 260 351> 361 75<78 178 88 178 88 178 260 372> 542 75<326.5 341>
VStem: 178 82<75 361 75 361 436 474>
LayerCount: 2
Fore
SplineSet
440 551 m 0
 440 518 413 500 390 500 c 0
 358 500 345 528 341 542 c 1
 312 542 260 537 260 474 c 2
 260 436 l 1
 372 436 l 2
 391 436 418 435 418 398 c 0
 418 362 389 361 372 361 c 2
 260 361 l 1
 260 75 l 1
 351 75 l 2
 369 75 399 74 399 37 c 0
 399 1 369 0 351 0 c 2
 87 0 l 2
 69 0 39 1 39 38 c 0
 39 74 69 75 87 75 c 2
 178 75 l 1
 178 361 l 1
 87 361 l 2
 69 361 40 362 40 398 c 0
 40 434 69 436 88 436 c 2
 178 436 l 1
 178 479 l 2
 178 569 256 617 338 617 c 0
 356 617 440 615 440 551 c 0
EndSplineSet
EndChar

StartChar: g
Encoding: 103 103 72
Width: 525
GlyphClass: 2
Flags: MW
HStem: -223 74<216 308 216 327> 4 71<212 277> 113 74<215.5 256.5 209 281> 367 74<209.5 255.5 186 257>
VStem: 27 72<-92.5 -66.5> 65 82<257.5 302.5 253 321.5> 151 82 319 84<252.5 292 232.5 301.5> 425 72<-92.5 -53 -115 -34>
LayerCount: 2
Fore
SplineSet
511 386 m 0x14
 511 352 484 338 464 338 c 0
 453 338 429 345 420 371 c 1
 409 369 395 366 380 359 c 1
 395 333 403 306 403 278 c 0
 403 187 328 113 234 113 c 0
 197 113 165 126 151 134 c 1
 149 127 148 121 148 118 c 2
 148 118 149 99 158 88 c 0
 173 70 194 75 212 75 c 2
 281 75 l 2
 371 75 413 53 426 46 c 0
 478 18 497 -34 497 -72 c 0
 497 -158 392 -223 262 -223 c 0
 132 -223 27 -159 27 -72 c 0xeb80
 27 -61 27 5 96 51 c 1
 87 65 77 88 77 119 c 0
 77 147 85 169 95 185 c 1
 80 205 65 237 65 278 c 0
 65 365 138 441 234 441 c 0
 277 441 310 425 328 414 c 1
 374 445 421 446 432 446 c 0
 491 446 511 411 511 386 c 0x14
319 278 m 0
 319 325 281 367 233 367 c 0
 186 367 147 328 147 277 c 0x97
 147 229 185 187 233 187 c 0
 280 187 319 227 319 278 c 0
425 -72 m 0
 425 4 318 4 236 4 c 0
 167 4 158 4 136 -10 c 0
 107 -28 99 -56 99 -72 c 0x4880
 99 -113 170 -149 262 -149 c 0
 354 -149 425 -113 425 -72 c 0
EndSplineSet
EndChar

StartChar: h
Encoding: 104 104 73
Width: 525
GlyphClass: 2
Flags: MW
HStem: 0 75<49 93 58 93 176 211 211 212 318 348 431 466 466 467> 366 75<268.5 313.5> 536 75<49 129 58 93>
VStem: 93 83<75 240 399 536 536 536> 129 83 176 83<19 240 19 75> 348 83<75 288 288 293 75 314.5>
LayerCount: 2
Fore
SplineSet
513 37 m 0xd2
 513 1 483 0 467 0 c 2
 318 0 l 2
 301 0 270 1 270 37 c 0
 270 74 299 75 318 75 c 2
 348 75 l 1
 348 288 l 2
 348 341 337 366 290 366 c 0
 244 366 176 331 176 240 c 2
 176 75 l 1
 211 75 l 2
 230 75 259 74 259 37 c 0xc6
 259 1 229 0 212 0 c 2x88
 57 0 l 2
 41 0 11 1 11 37 c 0
 11 74 39 75 58 75 c 2
 93 75 l 1
 93 536 l 1xb0
 57 536 l 2
 41 536 11 537 11 573 c 0
 11 610 39 611 58 611 c 2
 129 611 l 2x28
 169 611 176 599 176 563 c 2
 176 399 l 1
 200 418 241 441 296 441 c 0
 378 441 431 397 431 293 c 2
 431 75 l 1
 466 75 l 2
 485 75 513 74 513 37 c 0xd2
EndSplineSet
EndChar

StartChar: i
Encoding: 105 105 74
Width: 525
GlyphClass: 2
Flags: MW
HStem: 0 75<114 233 123 233 316 410> 361 75<122 269 131 233> 493 113<247 279>
VStem: 206 114<534 565.5> 233 83<75 361 361 361>
LayerCount: 2
Fore
SplineSet
458 37 m 0xc8
 458 1 428 0 410 0 c 2
 123 0 l 2
 105 0 75 1 75 37 c 0
 75 74 104 75 123 75 c 2
 233 75 l 1
 233 361 l 1
 131 361 l 2
 113 361 83 362 83 399 c 0
 83 434 113 436 131 436 c 2
 269 436 l 2
 309 436 316 424 316 388 c 2
 316 75 l 1
 410 75 l 2
 428 75 458 74 458 37 c 0xc8
320 550 m 0x30
 320 518 295 493 263 493 c 0
 231 493 206 518 206 550 c 0
 206 581 231 606 263 606 c 0
 295 606 320 581 320 550 c 0x30
EndSplineSet
EndChar

StartChar: j
Encoding: 106 106 75
Width: 525
GlyphClass: 2
Flags: MW
HStem: -222 75<182 202.5 182 261.5> 361 75<161 325 171 289> 493 113<303 335>
VStem: 44 103<-144 -139 -144 -123.5> 262 114<534 565.5> 289 83<-30 361 361 361>
LayerCount: 2
Fore
SplineSet
372 -35 m 2xd4
 372 -100 335 -222 188 -222 c 0
 145 -222 44 -219 44 -140 c 0
 44 -107 70 -88 96 -88 c 0
 120 -88 147 -107 147 -139 c 2
 147 -144 l 1
 159 -146 172 -147 192 -147 c 0
 213 -147 241 -147 268 -109 c 0
 289 -78 289 -45 289 -30 c 2
 289 361 l 1
 170 361 l 2
 152 361 123 362 123 398 c 0
 123 434 152 436 171 436 c 2
 325 436 l 2
 365 436 372 424 372 388 c 2
 372 -35 l 2xd4
376 550 m 0x28
 376 518 351 493 319 493 c 0
 287 493 262 518 262 550 c 0
 262 581 287 606 319 606 c 0
 351 606 376 581 376 550 c 0x28
EndSplineSet
EndChar

StartChar: k
Encoding: 107 107 76
Width: 525
GlyphClass: 2
Flags: MW
HStem: 0 75<56.5 106 66 106 176 216 435 462> 361 75<281 440 290 307 409 409 409 440> 536 75<56.5 130 66 106>
VStem: 106 70<75 143 238 536 536 536> 440 70
LayerCount: 2
Fore
SplineSet
510 37 m 0
 510 1 480 0 462 0 c 2
 347 0 l 2
 329 0 300 1 300 37 c 0
 300 68 316 74 347 75 c 1
 245 207 l 1
 176 143 l 1
 176 75 l 1
 216 75 l 2
 235 75 263 74 263 37 c 0
 263 1 234 0 216 0 c 2
 66 0 l 2
 47 0 19 1 19 38 c 0
 19 74 48 75 66 75 c 2
 106 75 l 1
 106 536 l 1
 66 536 l 2
 47 536 19 537 19 574 c 0
 19 610 48 611 66 611 c 2
 130 611 l 2
 169 611 176 599 176 563 c 2
 176 238 l 1
 307 361 l 1
 290 361 l 2
 272 361 244 362 244 398 c 0
 244 435 271 436 290 436 c 2
 440 436 l 2
 458 436 488 434 488 398 c 0
 488 362 458 361 440 361 c 2
 409 361 l 1
 297 255 l 1
 435 75 l 1
 462 75 l 2
 480 75 510 74 510 37 c 0
EndSplineSet
EndChar

StartChar: l
Encoding: 108 108 77
Width: 525
GlyphClass: 2
Flags: MW
HStem: 0 75<93.5 221 103 221 304 423> 536 75<93.5 257 103 221>
VStem: 221 83<75 536 536 536>
LayerCount: 2
Fore
SplineSet
470 37 m 0
 470 1 441 0 423 0 c 2
 102 0 l 2
 85 0 55 1 55 37 c 0
 55 74 84 75 103 75 c 2
 221 75 l 1
 221 536 l 1
 102 536 l 2
 85 536 55 537 55 573 c 0
 55 610 84 611 103 611 c 2
 257 611 l 2
 297 611 304 599 304 563 c 2
 304 75 l 1
 423 75 l 2
 442 75 470 74 470 37 c 0
EndSplineSet
EndChar

StartChar: m
Encoding: 109 109 78
Width: 525
GlyphClass: 2
Flags: MW
HStem: 0 75<39.5 48 48 55 126 133 296 304 467 474> 361 75<48 55> 366 75<187.5 207.5 358 378>
VStem: 55 71<75 242 75 361> 226 70<75 242 75 294 75 322> 396 71<75 294 294 303 75 322>
CounterMasks: 1 1c
LayerCount: 2
Fore
SplineSet
522 37 m 0xbc
 522 1 492 0 474 0 c 2
 401 0 l 2
 385 0 357 1 357 37 c 0
 357 69 376 74 396 75 c 1
 396 294 l 2
 396 350 388 366 368 366 c 0
 331 366 296 322 296 242 c 2
 296 75 l 1
 332 75 349 70 349 37 c 0
 349 1 322 0 304 0 c 2
 231 0 l 2
 214 0 186 1 186 37 c 0
 186 69 205 74 226 75 c 1
 226 294 l 2
 226 350 217 366 198 366 c 0xbc
 160 366 126 322 126 242 c 2
 126 75 l 1
 162 75 178 70 178 37 c 0
 178 1 151 0 133 0 c 2
 48 0 l 2
 31 0 0 1 0 37 c 0
 0 70 19 75 55 75 c 1
 55 361 l 1
 19 361 0 366 0 399 c 0
 0 434 30 436 48 436 c 2
 79 436 l 2xdc
 97 436 116 435 123 413 c 1
 146 431 173 441 202 441 c 0
 233 441 260 426 277 397 c 1
 306 430 344 441 372 441 c 0
 465 441 467 324 467 303 c 2
 467 75 l 1
 503 75 522 70 522 37 c 0xbc
EndSplineSet
EndChar

StartChar: n
Encoding: 110 110 79
Width: 525
GlyphClass: 2
Flags: MW
HStem: 0 75<49 93 58 93 176 211 211 212 318 348 431 466 466 467> 361 75<49 129 58 93> 366 75<268 313.5>
VStem: 93 83<75 240 75 361> 129 83 176 83<19 240 19 75> 348 83<75 288 288 293 75 314.5>
LayerCount: 2
Fore
SplineSet
513 37 m 0xb2
 513 1 483 0 467 0 c 2
 318 0 l 2
 301 0 270 1 270 37 c 0
 270 74 299 75 318 75 c 2
 348 75 l 1
 348 288 l 2
 348 341 337 366 290 366 c 0
 244 366 176 331 176 240 c 2
 176 75 l 1
 211 75 l 2
 230 75 259 74 259 37 c 0xa6
 259 1 229 0 212 0 c 2x88
 57 0 l 2
 41 0 11 1 11 37 c 0
 11 74 39 75 58 75 c 2
 93 75 l 1
 93 361 l 1xd0
 57 361 l 2
 41 361 11 362 11 398 c 0
 11 434 39 436 58 436 c 2
 129 436 l 2x48
 168 436 175 424 176 399 c 1
 200 418 240 441 296 441 c 0
 378 441 431 397 431 293 c 2
 431 75 l 1
 466 75 l 2
 485 75 513 74 513 37 c 0xb2
EndSplineSet
EndChar

StartChar: o
Encoding: 111 111 80
Width: 525
GlyphClass: 2
Flags: MW
HStem: -6 75<228 296 228 317.5> 369 75<229.5 295>
VStem: 54 83<182 267 182 281.5> 387 83<182 267>
LayerCount: 2
Fore
SplineSet
470 218 m 0
 470 91 373 -6 262 -6 c 0
 151 -6 54 90 54 218 c 0
 54 345 149 444 262 444 c 0
 375 444 470 345 470 218 c 0
387 225 m 0
 387 309 328 369 262 369 c 0
 197 369 137 309 137 225 c 0
 137 139 194 69 262 69 c 0
 330 69 387 139 387 225 c 0
EndSplineSet
EndChar

StartChar: p
Encoding: 112 112 81
Width: 525
GlyphClass: 2
Flags: MW
HStem: -216 75<48.5 93 58 93 176 211 211 212> -6 75<266.5 311.5 243.5 336> 361 75<48.5 129 58 93> 366 75<270.5 321>
VStem: 93 82 129 82 177 82 408 82<174 258>
LayerCount: 2
Fore
SplineSet
490 218 m 0x18
 490 90 391 -6 281 -6 c 0
 252 -6 214 1 176 34 c 1
 176 -141 l 1
 211 -141 l 2xc5
 230 -141 259 -142 259 -179 c 0
 259 -215 229 -216 212 -216 c 2
 57 -216 l 2
 40 -216 10 -215 10 -179 c 0
 10 -142 39 -141 58 -141 c 2
 93 -141 l 1
 93 361 l 1xaa
 57 361 l 2
 40 361 10 362 10 398 c 0
 10 434 39 436 58 436 c 2
 129 436 l 2x24
 165 436 174 425 175 402 c 1
 208 427 249 441 292 441 c 0
 399 441 490 343 490 218 c 0x18
408 218 m 0
 408 298 355 366 287 366 c 0
 230 366 177 319 177 265 c 2
 177 194 l 2x13
 177 150 208 69 279 69 c 0
 344 69 408 130 408 218 c 0
EndSplineSet
EndChar

StartChar: q
Encoding: 113 113 82
Width: 525
GlyphClass: 2
Flags: MW
HStem: -216 75<319.5 369 329 369 452 492> -6 75<214 273.5> 366 75<222 279.5 198.5 293>
VStem: 39 81<175.5 259.5 175.5 281.5> 248 81 369 83<-141 42 42 42> 411 81
LayerCount: 2
Fore
SplineSet
538 -179 m 0x82
 538 -215 510 -216 492 -216 c 2xfa
 329 -216 l 2
 310 -216 282 -215 282 -178 c 0
 282 -143 311 -141 329 -141 c 2
 369 -141 l 1
 369 42 l 1
 344 20 302 -6 245 -6 c 0
 134 -6 39 92 39 217 c 0
 39 346 142 441 255 441 c 0
 304 441 342 422 369 398 c 1xfc
 370 429 377 441 411 441 c 0x22
 451 441 452 416 452 394 c 2
 452 -141 l 1x84
 492 -141 l 2
 511 -141 538 -142 538 -179 c 0x82
368 197 m 2
 368 235 l 2
 368 295 327 366 259 366 c 0
 185 366 120 302 120 217 c 0
 120 134 180 69 248 69 c 0
 323 69 368 145 368 197 c 2
EndSplineSet
EndChar

StartChar: r
Encoding: 114 114 83
Width: 525
GlyphClass: 2
Flags: MW
HStem: 0 75<67.5 148 77 148 231 331> 324 75 361 75<67.5 184 77 148> 366 75
VStem: 148 83<75 189 75 361> 391 98<357.5 366>
LayerCount: 2
Fore
SplineSet
489 373 m 0x18
 489 342 466 324 440 324 c 0x44
 414 324 391 342 391 366 c 1x14
 283 363 231 275 231 189 c 2
 231 75 l 1
 331 75 l 2
 349 75 379 74 379 37 c 0
 379 1 349 0 331 0 c 2
 77 0 l 2
 58 0 30 1 30 38 c 0
 30 74 59 75 77 75 c 2
 148 75 l 1
 148 361 l 1
 77 361 l 2xa8
 58 361 30 362 30 399 c 0x40
 30 434 59 436 77 436 c 2
 184 436 l 2x20
 224 436 231 424 231 388 c 2
 231 374 l 1
 283 426 341 441 389 441 c 0
 477 441 489 395 489 373 c 0x18
EndSplineSet
EndChar

StartChar: s
Encoding: 115 115 84
Width: 525
GlyphClass: 2
Flags: MW
HStem: -6 75<255.5 311 248.5 349.5> 322 75 369 75<217.5 271 176.5 296.5>
VStem: 69 75<310.5 333.5 310.5 340> 387 75<113 152.5>
LayerCount: 2
Fore
SplineSet
462 130 m 0x50
 462 81 430 -6 269 -6 c 0
 242 -6 193 -4 146 27 c 1
 133 -6 116 -6 106 -6 c 0
 70 -6 69 23 69 42 c 2
 69 136 l 2
 69 160 70 184 111 184 c 0
 142 184 147 172 153 150 c 0
 176 79 227 69 270 69 c 0
 352 69 387 96 387 130 c 0
 387 175 312 187 268 194 c 0
 174 208 69 228 69 322 c 0xd8
 69 358 91 444 262 444 c 0
 280 444 320 444 362 427 c 1
 366 435 374 444 396 444 c 0x20
 431 444 433 416 433 397 c 2
 433 329 l 2
 433 306 432 282 391 282 c 0
 354 282 351 302 350 322 c 0x40
 347 345 333 369 260 369 c 0x20
 175 369 144 345 144 322 c 0
 144 299 171 288 197 282 c 2
 298 264 l 2
 331 259 462 236 462 130 c 0x50
EndSplineSet
EndChar

StartChar: t
Encoding: 116 116 85
Width: 525
GlyphClass: 2
Flags: MW
HStem: -6 75<263.5 307.5 263.5 331> 361 75<60 147 70 147 70 147 230 382>
VStem: 147 83<131 136 136 361 436 508> 369 82<132 141.5 85 142>
LayerCount: 2
Fore
SplineSet
451 131 m 0
 451 39 369 -6 293 -6 c 0
 217 -6 147 32 147 131 c 2
 147 361 l 1
 69 361 l 2
 51 361 23 362 23 398 c 0
 23 434 51 436 70 436 c 2
 147 436 l 1
 147 508 l 2
 147 531 148 555 189 555 c 0
 229 555 230 530 230 508 c 2
 230 436 l 1
 382 436 l 2
 401 436 429 435 429 398 c 0
 429 362 400 361 382 361 c 2
 230 361 l 1
 230 136 l 2
 230 115 230 69 297 69 c 0
 318 69 368 78 369 132 c 0
 369 152 370 176 409 176 c 0
 451 176 451 152 451 131 c 0
EndSplineSet
EndChar

StartChar: u
Encoding: 117 117 86
Width: 525
GlyphClass: 2
Flags: MW
HStem: -6 75<211 258.5> 0 75<385.5 467 431 466> 361 75<49 129 58 93 313 348>
VStem: 312 83 348 83<161 361 361 361> 384 83
CounterMasks: 1 1c
LayerCount: 2
Fore
SplineSet
513 38 m 0x7c
 513 1 485 0 466 0 c 2
 395 0 l 2x5c
 376 0 356 1 349 25 c 1
 315 3 277 -6 240 -6 c 0
 164 -6 93 20 93 119 c 2
 93 361 l 1
 57 361 l 2
 41 361 11 362 11 398 c 0
 11 434 39 436 58 436 c 2
 129 436 l 2
 169 436 176 424 176 388 c 2
 176 125 l 2
 176 97 177 69 245 69 c 0xbc
 274 69 348 80 348 161 c 2
 348 361 l 1
 312 361 l 2
 295 361 265 362 265 398 c 0
 265 434 294 436 313 436 c 2
 384 436 l 2
 423 436 431 424 431 388 c 2
 431 75 l 1
 467 75 l 2
 483 75 513 74 513 38 c 0x7c
EndSplineSet
EndChar

StartChar: v
Encoding: 118 118 87
Width: 525
GlyphClass: 2
Flags: MW
HStem: -4 21G<250.5 272.5> 361 75<60 183 69 93 167 167 167 183 341 357 431 455 431 431>
LayerCount: 2
Fore
SplineSet
502 398 m 0
 502 362 473 361 455 361 c 2
 431 361 l 1
 321 34 l 2
 309 -3 283 -4 262 -4 c 0
 239 -4 216 -4 203 34 c 2
 93 361 l 1
 69 361 l 2
 51 361 22 362 22 398 c 0
 22 435 50 436 69 436 c 2
 183 436 l 2
 202 436 230 435 230 398 c 0
 230 362 201 361 183 361 c 2
 167 361 l 1
 262 79 l 1
 357 361 l 1
 341 361 l 2
 322 361 294 362 294 399 c 0
 294 434 323 436 341 436 c 2
 455 436 l 2
 474 436 502 435 502 398 c 0
EndSplineSet
EndChar

StartChar: w
Encoding: 119 119 88
Width: 525
GlyphClass: 2
Flags: MW
HStem: -4 21G 40 75<345 401> 115 75<326 345> 361 75<63 65 137 137 137 175 349 387 459 461 461 471.5>
LayerCount: 2
Fore
SplineSet
510 399 m 0x30
 510 365 490 361 459 361 c 1
 401 40 l 2
 397 14 393 -4 351 -4 c 0
 337 -4 317 -3 303 17 c 1
 265 162 l 1
 240 70 l 2
 224 4 219 -4 176 -4 c 0
 131 -4 127 13 123 40 c 2xd0
 65 361 l 1
 34 361 14 365 14 399 c 0
 14 434 42 436 63 436 c 2
 175 436 l 2
 198 436 224 434 224 398 c 0
 224 362 197 361 175 361 c 2
 137 361 l 1
 180 113 l 1
 218 242 l 1
 231 268 252 268 264 268 c 0
 301 268 307 258 326 190 c 2
 345 115 l 1
 387 361 l 1
 349 361 l 2
 326 361 300 362 300 399 c 0
 300 434 327 436 349 436 c 2
 461 436 l 2
 482 436 510 434 510 399 c 0x30
EndSplineSet
EndChar

StartChar: x
Encoding: 120 120 89
Width: 525
GlyphClass: 2
Flags: MW
HStem: 0 75<64.5 108 73 108 73 187 415 450> 361 75<70.5 193 79 114 200 200 401 401 401 436>
LayerCount: 2
Fore
SplineSet
498 37 m 0
 498 1 467 0 450 0 c 2
 336 0 l 2
 318 0 289 1 289 37 c 0
 289 67 306 73 331 75 c 1
 259 174 l 1
 190 75 l 1
 217 74 234 68 234 37 c 0
 234 1 205 0 187 0 c 2
 73 0 l 2
 56 0 25 1 25 37 c 0
 25 74 55 75 73 75 c 2
 108 75 l 1
 223 224 l 1
 114 361 l 1
 79 361 l 2
 62 361 31 362 31 398 c 0
 31 434 61 436 79 436 c 2
 193 436 l 2
 211 436 240 434 240 399 c 0
 240 369 223 362 200 361 c 1
 259 283 l 1
 316 361 l 1
 292 362 276 369 276 399 c 0
 276 434 305 436 322 436 c 2
 436 436 l 2
 454 436 484 434 484 398 c 0
 484 362 453 361 436 361 c 2
 401 361 l 1
 296 224 l 1
 415 75 l 1
 450 75 l 2
 468 75 498 74 498 37 c 0
EndSplineSet
EndChar

StartChar: y
Encoding: 121 121 90
Width: 525
GlyphClass: 2
Flags: MW
HStem: -222 66<130 139.5 130 179> -222 138<103 105.5 75.5 179> 361 75<62 185 71 96 172 172 172 185 341 357 431 455 431 431>
VStem: 41 100<-141.5 -119.5 -141.5 -119.5>
LayerCount: 2
Fore
SplineSet
502 398 m 0xb0
 502 362 473 361 455 361 c 2
 431 361 l 1
 282 -78 l 2
 278 -89 229 -222 129 -222 c 0
 77 -222 41 -179 41 -134 c 0
 41 -105 60 -84 91 -84 c 0x70
 120 -84 141 -105 141 -134 c 0
 141 -149 131 -152 130 -156 c 1
 149 -156 180 -133 200 -95 c 0
 211 -73 232 -3 236 8 c 1
 96 361 l 1
 71 361 l 2
 53 361 24 362 24 398 c 0
 24 435 52 436 71 436 c 2
 185 436 l 2
 204 436 232 435 232 398 c 0
 232 362 203 361 185 361 c 2
 172 361 l 1
 271 100 l 1
 357 361 l 1
 341 361 l 2
 322 361 294 362 294 399 c 0
 294 434 323 436 341 436 c 2
 455 436 l 2
 474 436 502 435 502 398 c 0xb0
EndSplineSet
EndChar

StartChar: z
Encoding: 122 122 91
Width: 525
GlyphClass: 2
Flags: MW
HStem: 0 75<160 394 160 449> 361 75<129 345 129 129>
VStem: 46 83<343 361 331 388 331 407> 394 83<75 104 39 116>
LayerCount: 2
Fore
SplineSet
477 48 m 2
 477 30 476 7 449 0 c 1
 79 0 l 2
 56 0 31 1 31 41 c 0
 31 60 31 63 55 86 c 2
 345 361 l 1
 129 361 l 1
 129 343 l 2
 129 319 129 295 87 295 c 0
 47 295 46 321 46 343 c 2
 46 388 l 2
 46 426 56 436 94 436 c 2
 426 436 l 2
 448 436 473 435 473 395 c 0
 473 376 473 372 449 350 c 2
 160 75 l 1
 394 75 l 1
 394 104 l 2
 394 128 395 152 436 152 c 0
 476 152 477 127 477 104 c 2
 477 48 l 2
EndSplineSet
EndChar

StartChar: braceleft
Encoding: 123 123 92
Width: 525
GlyphClass: 2
Flags: MW
HStem: -81 75<429 431.5> 268 75<89 95> 617 75<420 431.5 385.5 440>
VStem: 221 83<57 211 400.5 416>
CounterMasks: 1 e0
LayerCount: 2
Fore
SplineSet
470 -43 m 0
 470 -80 442 -81 421 -81 c 0
 373 -81 318 -74 276 -51 c 0
 222 -20 221 26 221 57 c 2
 221 219 l 2
 219 263 119 267 95 268 c 0
 83 268 54 270 54 306 c 0
 54 336 80 343 88 343 c 0
 109 343 157 344 191 358 c 0
 221 372 221 385 221 416 c 2
 222 587 l 2
 223 675 350 692 421 692 c 0
 442 692 470 691 470 654 c 0
 470 624 444 617 436 617 c 0
 404 617 305 628 304 576 c 2
 304 386 l 2
 304 362 290 330 254 305 c 1
 301 275 304 236 304 211 c 2
 304 55 l 2
 304 26 305 -3 429 -6 c 0
 440 -6 470 -8 470 -43 c 0
EndSplineSet
EndChar

StartChar: bar
Encoding: 124 124 93
Width: 525
GlyphClass: 2
Flags: MW
HStem: -81 21G<241.5 282.5> 672 20G<241.5 282.5>
VStem: 220 84<-27 638>
LayerCount: 2
Fore
SplineSet
304 -27 m 2
 304 -41 303 -81 262 -81 c 0
 221 -81 220 -41 220 -27 c 2
 220 638 l 2
 220 652 221 692 262 692 c 0
 303 692 304 652 304 638 c 2
 304 -27 l 2
EndSplineSet
EndChar

StartChar: braceright
Encoding: 125 125 94
Width: 525
GlyphClass: 2
Flags: MW
HStem: -81 75<84 147.5> 268 75<429 435 429 440> 617 75<93 94>
VStem: 221 83<195 210.5 195 225 195 227 399 555>
CounterMasks: 1 e0
LayerCount: 2
Fore
SplineSet
470 305 m 0
 470 275 444 268 436 268 c 0
 414 268 368 267 334 253 c 0
 304 239 304 226 304 195 c 2
 303 24 l 2
 303 -42 192 -81 103 -81 c 0
 83 -81 54 -80 54 -43 c 0
 54 -13 80 -6 88 -6 c 0
 220 -4 221 25 221 52 c 2
 221 225 l 2
 221 229 222 273 270 306 c 1
 234 329 221 360 221 399 c 2
 221 555 l 2
 221 585 220 615 94 617 c 0
 77 617 54 622 54 654 c 0
 54 691 83 692 103 692 c 0
 138 692 201 688 249 662 c 0
 303 631 304 585 304 555 c 2
 304 393 l 2
 306 348 407 344 429 343 c 0
 441 343 470 341 470 305 c 0
EndSplineSet
EndChar

StartChar: asciitilde
Encoding: 126 126 95
Width: 525
GlyphClass: 2
Flags: MW
HStem: 239 79<309.5 318 309.5 324> 293 79<208 216.5>
LayerCount: 2
Fore
SplineSet
441 333 m 0x40
 441 314 412 289 390 273 c 0
 367 256 338 239 310 239 c 0x80
 274 239 253 261 239 275 c 0
 228 285 219 293 214 293 c 0x40
 202 293 179 278 151 252 c 0
 143 245 136 239 123 239 c 0x80
 103 239 85 259 85 278 c 0
 85 298 114 322 136 338 c 0
 159 356 188 372 216 372 c 0x40
 252 372 273 350 287 337 c 0
 298 327 307 318 312 318 c 0x80
 324 318 347 334 375 359 c 0
 383 366 390 372 403 372 c 0
 423 372 441 352 441 333 c 0x40
EndSplineSet
EndChar

StartChar: exclamdown
Encoding: 161 161 97
Width: 525
GlyphClass: 3
Flags: MW
HStem: -227 21G<257 267> 282 113<246 278>
VStem: 205 114<-193.5 -164 322 354>
LayerCount: 2
Fore
SplineSet
319 338 m 0
 319 306 294 282 262 282 c 0
 230 282 205 306 205 338 c 0
 205 370 230 395 262 395 c 0
 294 395 319 370 319 338 c 0
319 -164 m 2
 319 -223 272 -227 262 -227 c 0
 252 -227 205 -223 205 -164 c 2
 214 161 l 2
 217 207 222 215 262 215 c 0
 276 215 308 214 309 184 c 2
 319 -164 l 2
EndSplineSet
Ligature2: "'dlig' Discretionary Ligatures lookup 6 subtable" exclam quoteleft
Ligature2: "'dlig' Discretionary Ligatures lookup 6 subtable" exclam grave
EndChar

StartChar: cent
Encoding: 162 162 98
Width: 525
GlyphClass: 2
Flags: MW
HStem: -91 21G<278.5 299> 506 20G<278.5 299>
VStem: 70 81<185 237 185 257.5> 250 77<-53 -4 -63 -2 -63 -2> 355 102<368 368>
LayerCount: 2
Fore
SplineSet
469 114 m 0
 469 98 440 11 327 -4 c 1
 327 -53 l 2
 327 -73 309 -91 289 -91 c 0
 268 -91 250 -73 250 -53 c 2
 250 -2 l 1
 145 18 70 110 70 218 c 0
 70 297 118 414 251 439 c 1
 250 488 l 2
 250 509 268 526 289 526 c 0
 309 526 327 509 327 488 c 2
 327 444 l 1
 378 442 457 431 457 365 c 0
 457 332 433 313 405 313 c 0
 378 313 356 328 355 368 c 1
 355 368 340 369 327 369 c 1
 327 72 l 1
 370 81 383 112 387 123 c 0
 396 146 408 149 427 149 c 0
 434 149 469 148 469 114 c 0
249 78 m 1
 249 362 l 1
 169 336 151 256 151 218 c 0
 151 152 193 98 249 78 c 1
EndSplineSet
Substitution2: "'onum' Oldstyle Figures lookup 4 subtable" cent.oldstyle
Substitution2: "'aalt' Access All Alternates lookup 0 subtable" cent.oldstyle
EndChar

StartChar: sterling
Encoding: 163 163 99
Width: 525
GlyphClass: 2
Flags: MW
HStem: -11 84<110.5 129 110.5 147 369 406> 103 84<133.5 151.5> 264 84<76.5 108 88 108 88 146 232 232 232 344> 527 84<248.5 295.5>
VStem: 46 101 92 84<414 455 414 478.5> 108 84<348 348> 192 84 357 101<433.5 453> 425 84<130.5 159.5>
LayerCount: 2
Fore
SplineSet
509 148 m 0xb540
 509 67 464 -11 391 -11 c 0
 345 -11 300 21 259 51 c 1
 231 13 176 -11 118 -11 c 0
 62 -11 16 33 16 88 c 0
 16 149 80 187 147 187 c 0
 160 187 171 185 183 182 c 1
 174 207 159 237 146 264 c 1
 88 264 l 2
 65 264 46 282 46 306 c 0xe840
 46 329 65 348 88 348 c 2
 108 348 l 1x22
 99 373 92 400 92 428 c 0
 92 529 174 611 276 611 c 0
 373 611 458 541 458 447 c 0
 458 420 435 397 407 397 c 0
 380 397 357 420 357 447 c 0x1580
 357 459 361 469 367 478 c 1
 352 509 315 527 276 527 c 0
 221 527 176 482 176 428 c 0
 176 400 183 373 192 348 c 1
 344 348 l 2
 367 348 386 329 386 306 c 0
 386 282 367 264 344 264 c 2
 232 264 l 1
 254 219 276 173 278 125 c 1
 313 98 347 73 391 73 c 0
 421 73 425 113 425 148 c 0
 425 171 444 190 467 190 c 0
 491 190 509 171 509 148 c 0xb540
186 95 m 1
 173 100 159 103 144 103 c 0
 123 103 97 103 97 88 c 0
 97 79 106 73 115 73 c 0
 143 73 173 78 186 95 c 1
EndSplineSet
EndChar

StartChar: currency
Encoding: 164 164 100
Width: 525
GlyphClass: 2
Flags: MW
HStem: 147 84 153 84<249 276.5 243.5 355> 375 84<249 276.5> 381 84
VStem: 110 84<214 325 292.5 319.5> 331 84<292 319.5> 337 84
LayerCount: 2
Fore
SplineSet
422 146 m 0x94
 395 118 366 144 355 153 c 2
 337 172 l 1
 314 160 290 153 263 153 c 0x6a
 235 153 210 160 188 172 c 1
 170 154 l 2
 159 145 130 118 103 147 c 0
 74 174 101 203 110 214 c 2
 129 232 l 1
 117 254 110 279 110 306 c 0
 110 333 117 358 129 380 c 1
 109 399 l 2
 100 410 74 439 102 466 c 0
 129 494 158 468 169 459 c 2
 188 440 l 1
 210 452 235 459 263 459 c 0xa8
 290 459 314 452 337 440 c 1
 354 458 l 2
 365 467 394 494 421 465 c 0x12
 450 438 423 409 414 398 c 2
 396 381 l 1
 408 358 415 333 415 306 c 0
 415 278 408 254 396 231 c 1
 415 213 l 2
 424 202 450 173 422 146 c 0x94
331 306 m 0
 331 344 301 375 263 375 c 0
 224 375 194 344 194 306 c 0
 194 268 224 237 263 237 c 0
 301 237 331 268 331 306 c 0
EndSplineSet
EndChar

StartChar: yen
Encoding: 165 165 101
Width: 525
GlyphClass: 2
Flags: MW
HStem: 0 75<195 221 205 221 304 320> 188 84<97.5 208 109 208 109 221 317 416> 340 84<97.5 134 109 134 109 174 253 253 253 274 390 416> 536 75<54.5 166 64 80 172 172 444 460 444 444>
VStem: 221 83<75 188 75 188>
LayerCount: 2
Fore
SplineSet
507 573 m 0
 507 537 478 536 460 536 c 2
 444 536 l 1
 390 424 l 1
 416 424 l 2
 439 424 458 405 458 382 c 0
 458 358 439 340 416 340 c 2
 350 340 l 1
 317 272 l 1
 416 272 l 2
 439 272 458 254 458 230 c 0
 458 207 439 188 416 188 c 2
 304 188 l 1
 304 75 l 1
 320 75 l 2
 340 75 367 74 367 37 c 0
 367 1 338 0 320 0 c 2
 205 0 l 2
 185 0 158 1 158 38 c 0
 158 74 187 75 205 75 c 2
 221 75 l 1
 221 188 l 1
 109 188 l 2
 86 188 67 207 67 230 c 0
 67 254 86 272 109 272 c 2
 208 272 l 1
 174 340 l 1
 109 340 l 2
 86 340 67 358 67 382 c 0
 67 405 86 424 109 424 c 2
 134 424 l 1
 80 536 l 1
 64 536 l 2
 45 536 17 537 17 574 c 0
 17 610 46 611 64 611 c 2
 166 611 l 2
 183 611 212 610 212 574 c 0
 212 543 195 537 172 536 c 1
 225 424 l 1
 303 424 l 1
 352 536 l 1
 330 537 312 543 312 574 c 0
 312 610 341 611 358 611 c 2
 460 611 l 2
 479 611 507 610 507 573 c 0
274 340 m 1
 253 340 l 1
 263 315 l 1
 274 340 l 1
EndSplineSet
EndChar

StartChar: brokenbar
Encoding: 166 166 102
Width: 525
GlyphClass: 2
Flags: MW
HStem: -81 21G<241.5 282.5> 672 20G<241.5 282.5>
VStem: 220 84<-27 207 404 638>
LayerCount: 2
Fore
SplineSet
304 404 m 2
 304 383 285 366 262 366 c 0
 239 366 220 383 220 404 c 2
 220 638 l 2
 220 652 221 692 262 692 c 0
 303 692 304 652 304 638 c 2
 304 404 l 2
304 -27 m 2
 304 -41 303 -81 262 -81 c 0
 221 -81 220 -41 220 -27 c 2
 220 207 l 2
 220 228 239 245 262 245 c 0
 285 245 304 228 304 207 c 2
 304 -27 l 2
EndSplineSet
EndChar

StartChar: section
Encoding: 167 167 103
Width: 525
GlyphClass: 2
Flags: MW
HStem: -122 84<243 291.5 243 314.5> 538 84<234.5 283>
VStem: 43 84<282.5 315 282.5 325> 63 84<458.5 496.5 454 518.5> 63 102<0.5 19 0.5 19> 361 102<481 499.5> 379 84<3.5 41 -18.5 46> 399 84<185 217.5>
LayerCount: 2
Fore
SplineSet
483 194 m 0x54
 483 156 466 121 439 97 c 1
 454 77 463 54 463 28 c 0
 463 -65 366 -122 263 -122 c 0
 164 -122 63 -82 63 5 c 0
 63 33 86 56 114 56 c 0
 142 56 165 33 165 5 c 0x8a
 165 -4 163 -13 158 -20 c 1
 179 -38 223 -38 263 -38 c 0
 320 -38 379 -21 379 28 c 0
 379 64 329 82 288 98 c 2
 189 135 l 2
 110 164 43 225 43 306 c 0xa2
 43 344 60 378 87 402 c 1
 72 422 63 445 63 472 c 0
 63 565 160 622 263 622 c 0
 362 622 463 582 463 495 c 0
 463 467 440 444 412 444 c 0
 384 444 361 467 361 495 c 0
 361 504 363 513 368 520 c 1
 347 538 303 538 263 538 c 0
 206 538 147 521 147 472 c 0
 147 436 197 418 238 402 c 2
 337 365 l 2
 416 336 483 275 483 194 c 0x54
399 194 m 0
 399 241 354 269 308 287 c 2
 209 324 l 2
 188 332 167 341 149 352 c 1
 135 341 127 324 127 306 c 0
 127 259 172 231 218 213 c 2
 317 176 l 2
 338 168 359 159 377 148 c 1
 391 158 399 176 399 194 c 0
EndSplineSet
EndChar

StartChar: dieresis
Encoding: 168 168 104
Width: 525
GlyphClass: 2
Flags: MW
HStem: 498 103
VStem: 128 104 293 104
LayerCount: 2
Fore
SplineSet
90 544 m 0
 90 577 117 604 150 604 c 0
 180 604 210 579 210 544 c 0
 210 514 185 484 150 484 c 0
 119 484 90 509 90 544 c 0
314 544 m 0
 314 575 339 604 374 604 c 0
 410 604 434 574 434 544 c 0
 434 514 409 484 374 484 c 0
 343 484 314 509 314 544 c 0
EndSplineSet
EndChar

StartChar: copyright
Encoding: 169 169 105
Width: 525
GlyphClass: 2
Flags: MW
HStem: 0 42<201.5 324 201.5 335.5> 107 43<243.5 273 243.5 291.5> 221 43 377 44<244 273 229.5 276.5> 486 41<201.5 324>
VStem: -1 42<203 325 203 336.5> 140 47<230.5 297 230.5 309.5> 318 47 484 42<203 325>
LayerCount: 2
Fore
SplineSet
526 264 m 0
 526 118 408 0 263 0 c 0
 117 0 -1 118 -1 264 c 0
 -1 409 117 527 263 527 c 0
 408 527 526 409 526 264 c 0
484 264 m 0
 484 386 385 486 263 486 c 0
 140 486 41 386 41 264 c 0
 41 142 140 42 263 42 c 0
 385 42 484 142 484 264 c 0
365 198 m 0
 365 153 321 107 262 107 c 0
 197 107 140 173 140 264 c 0
 140 355 197 421 262 421 c 0
 284 421 304 413 320 402 c 1
 323 406 323 407 324 409 c 0
 329 414 332 421 343 421 c 0
 363 421 365 405 365 394 c 2
 365 328 l 2
 365 314 364 302 340 302 c 0
 320 302 320 313 318 323 c 0
 311 358 289 377 264 377 c 0
 224 377 187 330 187 264 c 0
 187 197 223 150 264 150 c 0
 282 150 315 161 318 201 c 0
 320 221 336 221 340 221 c 0
 348 221 365 221 365 198 c 0
EndSplineSet
EndChar

StartChar: ordfeminine
Encoding: 170 170 106
Width: 525
GlyphClass: 2
Flags: MW
HStem: 231 57<152 362 163 362> 302 58<200.5 221.5 200.5 227.5> 306 57<386 400.5> 564 58<193.5 271.5 203 220> 565 57<189 271.5>
VStem: 94 63<389.5 416.5 389.5 434.5> 113 76<565 565 565 591.5> 157 63 299 63<510 510> 313 76
LayerCount: 2
Fore
SplineSet
431 335 m 0x2880
 431 308 412 306 389 306 c 0x2040
 363 306 331 308 313 326 c 1
 280 307 240 302 215 302 c 0
 140 302 94 350 94 401 c 0x4440
 94 468 177 507 299 510 c 1
 295 549 264 564 220 564 c 2
 196 564 l 2x1180
 191 564 189 565 189 565 c 1x0a
 188 532 164 525 151 525 c 0
 130 525 113 539 113 564 c 0x12
 113 619 187 622 219 622 c 0
 324 622 362 559 362 509 c 2
 362 366 l 1
 367 365 376 363 396 363 c 0
 408 363 431 362 431 335 c 0x2880
400 259 m 0
 400 244 384 231 362 231 c 2
 163 231 l 2
 141 231 125 244 125 259 c 0
 125 274 141 288 163 288 c 2
 362 288 l 2xc180
 384 288 400 274 400 259 c 0
298 405 m 2
 298 455 l 1
 210 451 157 432 157 401 c 0
 157 378 182 360 219 360 c 0
 224 360 253 360 280 372 c 0
 298 382 298 393 298 405 c 2
EndSplineSet
EndChar

StartChar: guillemotleft
Encoding: 171 171 107
Width: 525
GlyphClass: 2
Flags: MW
HStem: 79 21G<288 298 449.5 460> 513 20G<288 298 449.5 460>
LayerCount: 2
Fore
SplineSet
482 118 m 0
 482 92 467 79 453 79 c 0
 446 79 443 80 431 90 c 2
 218 273 l 2
 211 280 205 292 205 306 c 0
 205 325 214 334 221 341 c 2
 431 523 l 2
 443 532 446 533 453 533 c 0
 467 533 482 520 482 494 c 0
 482 474 473 466 465 459 c 2
 289 306 l 1
 465 153 l 2
 473 146 482 138 482 118 c 0
320 118 m 0
 320 92 305 79 291 79 c 0
 285 79 281 80 269 90 c 2
 56 273 l 2
 49 280 43 292 43 306 c 0
 43 325 52 334 59 341 c 2
 269 523 l 2
 281 532 285 533 291 533 c 0
 305 533 320 520 320 494 c 0
 320 474 311 466 303 459 c 2
 127 306 l 1
 303 153 l 2
 311 146 320 138 320 118 c 0
EndSplineSet
Substitution2: "'cv04' Character Variants 04 in Greek lookup 24-1" guillemotleft.gr
Substitution2: "'cv03' Character Variants 03 in Cyrillic lookup 23-1" guillemotleft.cyr
EndChar

StartChar: logicalnot
Encoding: 172 172 108
Width: 525
GlyphClass: 2
Flags: MW
HStem: 338 84<66.5 446 78 404>
VStem: 404 84<232 338 338 338>
LayerCount: 2
Fore
SplineSet
488 232 m 2
 488 209 469 190 446 190 c 0
 423 190 404 209 404 232 c 2
 404 338 l 1
 78 338 l 2
 55 338 36 357 36 380 c 0
 36 403 55 422 78 422 c 2
 446 422 l 2
 469 422 488 403 488 380 c 2
 488 232 l 2
EndSplineSet
EndChar

StartChar: uni00AD
Encoding: 173 173 109
Width: 525
GlyphClass: 2
Flags: MW
HStem: 264 84<100 417 107 417>
LayerCount: 2
Fore
SplineSet
471 306 m 0
 471 265 431 264 417 264 c 2
 107 264 l 2
 93 264 53 265 53 306 c 0
 53 347 93 348 107 348 c 2
 417 348 l 2
 431 348 471 347 471 306 c 0
EndSplineSet
EndChar

StartChar: registered
Encoding: 174 174 110
Width: 525
GlyphClass: 2
Flags: MW
HStem: 0 42<201.5 324 201.5 335.5> 110 42<346 349 346 366.5> 115 43<168 178 173 178 224 229> 192 41 198 42 245 42<224 251 251 255 224 251> 375 43<168 257 173 178 224 224 224 251> 486 41<201.5 324>
VStem: -1 42<203 325 203 336.5> 178 46<158 245 158 287 287 375> 263 46 296 42 296 47<182 206.5> 309 47<322 341> 350 47<154 177> 484 42<203 325>
LayerCount: 2
Fore
SplineSet
526 264 m 0xc1a3
 526 118 408 0 263 0 c 0
 117 0 -1 118 -1 264 c 0
 -1 409 117 527 263 527 c 0
 408 527 526 409 526 264 c 0xc1a3
484 264 m 0
 484 386 385 486 263 486 c 0
 140 486 41 386 41 264 c 0
 41 142 140 42 263 42 c 0
 385 42 484 142 484 264 c 0
397 166 m 0
 397 144 384 110 349 110 c 0
 331 110 315 118 306 134 c 0
 297 152 296 166 296 198 c 0x4e4a
 296 215 296 226 288 233 c 0
 275 245 262 245 255 245 c 2
 224 245 l 1
 224 158 l 1
 229 158 l 2
 241 158 255 157 255 136 c 0
 255 116 239 115 229 115 c 2
 173 115 l 2
 163 115 148 116 148 136 c 0
 148 157 163 158 173 158 c 2
 178 158 l 1
 178 375 l 1
 173 375 l 2
 163 375 148 376 148 396 c 0
 148 416 163 418 173 418 c 2
 257 418 l 2
 317 418 356 376 356 331 c 0x3644
 356 313 348 284 321 265 c 1
 326 259 333 250 338 240 c 0x0810
 343 227 343 224 343 192 c 0x1008
 343 171 343 152 349 152 c 1
 350 154 l 1
 352 188 367 188 375 188 c 0
 381 188 397 188 397 166 c 0
309 331 m 0
 309 351 289 375 251 375 c 2
 224 375 l 1
 224 287 l 1
 251 287 l 2
 289 287 309 311 309 331 c 0
EndSplineSet
EndChar

StartChar: macron
Encoding: 175 175 111
Width: 525
GlyphClass: 2
Flags: MW
HStem: 511 77<118 119 119 408>
LayerCount: 2
Fore
SplineSet
455 549 m 0
 455 512 427 511 408 511 c 2
 119 511 l 2
 99 511 71 512 71 550 c 0
 71 587 99 588 118 588 c 2
 408 588 l 2
 428 588 455 587 455 549 c 0
EndSplineSet
EndChar

StartChar: degree
Encoding: 176 176 112
Width: 525
GlyphClass: 2
Flags: MW
HStem: 466 42<250 272.5 250 286.5> 580 42<250 272.5>
VStem: 183 42<536 552 536 560> 297 42<535.5 552.5>
LayerCount: 2
Fore
SplineSet
339 544 m 0
 339 507 312 466 261 466 c 0
 213 466 183 510 183 544 c 0
 183 576 213 622 261 622 c 0
 312 622 339 582 339 544 c 0
297 544 m 0
 297 561 284 580 261 580 c 0
 239 580 225 560 225 544 c 0
 225 528 239 508 261 508 c 0
 284 508 297 527 297 544 c 0
EndSplineSet
EndChar

StartChar: plusminus
Encoding: 177 177 113
Width: 525
GlyphClass: 2
Flags: MW
HStem: 0 84<83 220 90 220 304 434> 185 84<83 220 90 220 304 434> 434 20G<241.5 282.5>
VStem: 220 84<84 185 84 185 269 401>
LayerCount: 2
Fore
SplineSet
488 42 m 0
 488 1 448 0 434 0 c 2
 90 0 l 2
 76 0 36 1 36 42 c 0
 36 83 76 84 90 84 c 2
 220 84 l 1
 220 185 l 1
 90 185 l 2
 76 185 36 186 36 227 c 0
 36 268 76 269 90 269 c 2
 220 269 l 1
 220 401 l 2
 220 414 221 454 262 454 c 0
 303 454 304 414 304 401 c 2
 304 269 l 1
 434 269 l 2
 448 269 488 268 488 227 c 0
 488 186 448 185 434 185 c 2
 304 185 l 1
 304 84 l 1
 434 84 l 2
 448 84 488 83 488 42 c 0
EndSplineSet
EndChar

StartChar: two.superior
Encoding: 178 178 114
Width: 525
GlyphClass: 2
Flags: MW
HStem: 303 46<237 324 237 346> 326 45 371 45<317 360.5> 531 46 577 45<243 272>
VStem: 153 58<521.5 534 521.5 555.5> 206 50 323 50<503 538.5>
LayerCount: 2
Fore
SplineSet
373 331 m 2xab
 373 310 368 303 346 303 c 2
 180 303 l 2x81
 169 303 153 304 153 326 c 0x44
 153 336 156 339 162 345 c 2
 271 436 l 2
 301 461 323 487 323 519 c 0
 323 558 290 577 254 577 c 0
 232 577 214 566 206 549 c 1x0b
 210 544 211 537 211 531 c 0
 211 512 197 502 182 502 c 0
 172 502 153 508 153 533 c 0x14
 153 578 194 622 256 622 c 0
 320 622 373 582 373 519 c 0
 373 478 350 445 317 416 c 2
 237 349 l 1
 324 349 l 1
 324 363 328 371 349 371 c 0
 372 371 373 357 373 344 c 2
 373 331 l 2xab
EndSplineSet
EndChar

StartChar: three.superior
Encoding: 179 179 115
Width: 525
GlyphClass: 2
Flags: MW
HStem: 298 45<256 283.5 256 298> 363 45 577 45<262 278>
VStem: 207 48 255 59 314 48<538.5 554.5>
CounterMasks: 1 1c
LayerCount: 2
Fore
SplineSet
377 396 m 0xe4
 377 347 332 298 264 298 c 0
 198 298 149 331 149 377 c 0
 149 398 164 408 178 408 c 0
 195 408 207 395 207 379 c 0xf4
 207 371 206 366 204 363 c 0
 217 347 248 343 264 343 c 0
 303 343 327 370 327 396 c 0
 327 421 305 449 262 449 c 2
 240 449 l 2
 228 449 212 450 212 472 c 0
 212 490 220 494 255 496 c 0xe8
 271 497 282 498 296 509 c 0
 307 518 314 532 314 545 c 0
 314 564 292 577 264 577 c 0
 260 577 235 577 220 567 c 0
 221 564 222 561 222 556 c 0
 222 538 206 526 193 526 c 0
 180 526 163 535 163 557 c 0
 163 594 199 622 263 622 c 0
 325 622 362 585 362 546 c 0
 362 521 351 494 328 475 c 1
 357 458 377 430 377 396 c 0xe4
EndSplineSet
EndChar

StartChar: acute
Encoding: 180 180 116
Width: 525
GlyphClass: 2
Flags: MW
HStem: 476 21G<176.5 196> 602 20G<332 344>
LayerCount: 2
Fore
SplineSet
374 580 m 0
 374 567 370 551 342 539 c 2
 213 481 l 2
 206 478 200 476 192 476 c 0
 161 476 152 513 152 522 c 0
 152 544 164 551 181 558 c 2
 310 616 l 2
 323 622 332 622 332 622 c 1
 356 622 374 604 374 580 c 0
EndSplineSet
EndChar

StartChar: uni00B5
Encoding: 181 181 117
Width: 525
GlyphClass: 2
Flags: MW
HStem: -236 75<48.5 93 58 93 176 211 211 212> -6 75<229 258.5> 0 75<385.5 467 431 466> 361 75<49 129 58 93 313 348>
VStem: 93 83<-161 0 111 125 125 361 361 361> 348 83<161 361 361 361>
LayerCount: 2
Fore
SplineSet
513 38 m 0x34
 513 1 485 0 466 0 c 2
 395 0 l 2x20
 376 0 356 1 349 25 c 1
 315 3 277 -6 240 -6 c 0x40
 218 -6 208 -6 176 0 c 1x28
 176 -161 l 1
 211 -161 l 2
 230 -161 259 -162 259 -199 c 0
 259 -235 229 -236 212 -236 c 2
 57 -236 l 2
 40 -236 10 -235 10 -199 c 0
 10 -162 39 -161 58 -161 c 2
 93 -161 l 1
 93 361 l 1
 57 361 l 2
 41 361 11 362 11 398 c 0
 11 434 39 436 58 436 c 2
 129 436 l 2
 169 436 176 424 176 388 c 2
 176 125 l 2
 176 97 177 69 245 69 c 0xd8
 274 69 348 80 348 161 c 2
 348 361 l 1
 312 361 l 2
 295 361 265 362 265 398 c 0
 265 434 294 436 313 436 c 2
 384 436 l 2
 423 436 431 424 431 388 c 2
 431 75 l 1
 467 75 l 2
 483 75 513 74 513 38 c 0x34
EndSplineSet
EndChar

StartChar: paragraph
Encoding: 182 182 118
Width: 525
GlyphClass: 2
Flags: MW
HStem: -189 21G<305 326.5 397 419> 637 55<340 383 340 340 433 467 433 433>
VStem: 292 48<-149 225 225 225> 383 50<-149 637>
LayerCount: 2
Fore
SplineSet
502 665 m 0
 502 639 482 637 467 637 c 2
 433 637 l 1
 433 -149 l 2
 433 -167 430 -189 408 -189 c 0
 386 -189 383 -167 383 -149 c 2
 383 637 l 1
 340 637 l 1
 340 -149 l 2
 340 -167 337 -189 316 -189 c 0
 294 -189 292 -167 292 -149 c 2
 292 225 l 1
 182 232 46 305 46 459 c 0
 46 586 142 692 263 692 c 2
 467 692 l 2
 482 692 502 690 502 665 c 0
EndSplineSet
EndChar

StartChar: periodcentered
Encoding: 183 183 119
Width: 525
GlyphClass: 2
Flags: MW
HStem: 237 137<244.5 280.5 242 283>
VStem: 194 137<288 323>
LayerCount: 2
Fore
SplineSet
331 305 m 0
 331 271 304 237 262 237 c 0
 227 237 194 265 194 306 c 0
 194 340 221 374 263 374 c 0
 298 374 331 346 331 305 c 0
EndSplineSet
EndChar

StartChar: cedilla
Encoding: 184 184 120
Width: 525
GlyphClass: 2
Flags: MW
HStem: -203 76<202.5 241 202.5 244>
VStem: 253 83<5 11 11 22.5> 350 82<-111 -87>
LayerCount: 2
Fore
SplineSet
432 -95 m 0
 432 -199 292 -203 196 -203 c 0
 177 -203 158 -193 158 -165 c 0
 158 -130 181 -127 224 -127 c 0
 258 -127 350 -127 350 -95 c 0
 350 -79 329 -66 292 -64 c 0
 254 -62 253 -39 253 -16 c 2
 253 11 l 2
 253 34 254 59 295 59 c 0
 332 59 336 43 336 5 c 1
 405 -11 432 -56 432 -95 c 0
EndSplineSet
EndChar

StartChar: one.superior
Encoding: 185 185 121
Width: 525
GlyphClass: 2
Flags: MW
HStem: 303 46<198 240 203 240 288 325> 517 45<192.5 198 192.5 201> 602 20G<259.5 276.5>
VStem: 240 48<349 531 531 531>
LayerCount: 2
Fore
SplineSet
353 325 m 0
 353 304 335 303 325 303 c 2
 203 303 l 2
 193 303 175 304 175 325 c 0
 175 348 191 349 203 349 c 2
 240 349 l 1
 240 531 l 1
 221 519 205 517 197 517 c 0
 185 517 172 521 172 540 c 0
 172 560 187 562 198 562 c 0
 206 563 224 568 240 596 c 0
 249 614 253 622 266 622 c 0
 287 622 288 606 288 594 c 2
 288 349 l 1
 325 349 l 2
 337 349 353 348 353 325 c 0
EndSplineSet
EndChar

StartChar: ordmasculine
Encoding: 186 186 122
Width: 525
GlyphClass: 2
Flags: MW
HStem: 231 57<172.5 342 183 342> 302 58<239.5 286 239.5 302> 564 58<240.5 285.5>
VStem: 115 62<436.5 494.5 436.5 506> 348 62<436.5 494.5>
LayerCount: 2
Fore
SplineSet
410 461 m 0
 410 371 341 302 263 302 c 0
 184 302 115 370 115 461 c 0
 115 551 182 622 263 622 c 0
 343 622 410 551 410 461 c 0
380 259 m 0
 380 244 363 231 342 231 c 2
 183 231 l 2
 162 231 145 244 145 259 c 0
 145 274 162 288 183 288 c 2
 342 288 l 2
 363 288 380 274 380 259 c 0
348 466 m 0
 348 523 308 564 263 564 c 0
 218 564 177 523 177 466 c 0
 177 407 216 360 263 360 c 0
 309 360 348 407 348 466 c 0
EndSplineSet
EndChar

StartChar: guillemotright
Encoding: 187 187 123
Width: 525
GlyphClass: 2
Flags: MW
HStem: 79 21G<64 74.5 226 236> 513 20G<64 74.5 226 236>
LayerCount: 2
Fore
SplineSet
481 306 m 0
 481 292 475 280 468 273 c 2
 255 90 l 2
 243 80 239 79 233 79 c 0
 219 79 204 92 204 118 c 0
 204 138 213 146 221 153 c 2
 397 306 l 1
 221 459 l 2
 213 466 204 474 204 494 c 0
 204 520 219 533 233 533 c 0
 239 533 243 532 255 523 c 2
 465 341 l 2
 472 334 481 325 481 306 c 0
319 306 m 0
 319 292 313 280 306 273 c 2
 93 90 l 2
 81 80 78 79 71 79 c 0
 57 79 42 92 42 118 c 0
 42 138 51 146 59 153 c 2
 235 306 l 1
 59 459 l 2
 51 466 42 474 42 494 c 0
 42 520 57 533 71 533 c 0
 78 533 81 532 93 523 c 2
 303 341 l 2
 310 334 319 325 319 306 c 0
EndSplineSet
Substitution2: "'cv04' Character Variants 04 in Greek lookup 24-1" guillemotright.gr
Substitution2: "'cv03' Character Variants 03 in Cyrillic lookup 23-1" guillemotright.cyr
EndChar

StartChar: onequarter
Encoding: 188 188 124
Width: 525
GlyphClass: 3
Flags: MW
HStem: -15 21G<96.5 109.5> 0 46<376 403 381 403 446 469> 83 45<278 403 317 403 317 403 446 477 317 446> 303 46<46 88 51 88 136 173> 517 45<40.5 46 40.5 49> 606 20G<430 447>
VStem: 88 48<349 531 531 531> 403 43<46 83 46 83 128 264 264 264>
LayerCount: 2
Fore
SplineSet
201 325 m 0x7f
 201 304 183 303 173 303 c 2
 51 303 l 2
 41 303 23 304 23 325 c 0
 23 348 39 349 51 349 c 2
 88 349 l 1
 88 531 l 1
 69 519 53 517 45 517 c 0
 33 517 20 521 20 540 c 0
 20 560 35 562 46 562 c 0
 54 563 72 568 88 596 c 0
 97 614 101 622 114 622 c 0
 135 622 136 606 136 594 c 2
 136 349 l 1
 173 349 l 2
 185 349 201 348 201 325 c 0x7f
504 105 m 0
 504 84 488 83 477 83 c 2
 446 83 l 1
 446 46 l 1
 469 46 l 2
 480 46 496 45 496 22 c 0
 496 1 480 0 469 0 c 2
 381 0 l 2
 371 0 354 1 354 22 c 0
 354 45 370 46 381 46 c 2
 403 46 l 1
 403 83 l 1
 288 83 l 2
 268 83 261 87 261 110 c 0
 261 123 261 124 268 131 c 2
 378 305 l 2
 386 318 390 320 405 320 c 2
 419 320 l 2
 442 320 446 314 446 291 c 2
 446 128 l 1
 477 128 l 2
 488 128 504 126 504 105 c 0
403 128 m 1
 403 264 l 1
 317 128 l 1
 403 128 l 1
456 597 m 0
 456 589 449 569 445 563 c 2
 138 7 l 2
 131 -6 118 -15 101 -15 c 0x80
 92 -15 83 1 83 16 c 0
 83 24 91 42 95 48 c 2
 402 604 l 2
 409 617 422 626 438 626 c 0
 456 626 456 604 456 597 c 0
EndSplineSet
Ligature2: "'frac' Diagonal Fractions lookup 3 subtable" one fraction four
Ligature2: "'frac' Diagonal Fractions lookup 3 subtable" one slash four
EndChar

StartChar: onehalf
Encoding: 189 189 125
Width: 525
GlyphClass: 3
Flags: MW
HStem: -15 21G<83.5 96.5> 0 46<369 456 369 477> 23 45 68 45<449 491.5> 199 46 228 46 274 45<374.5 403> 303 46<46 88 51 88 136 173> 517 45<40.5 46 40.5 49> 517 46 606 20G<417 434>
VStem: 23 59 88 48<349 531 531 531> 114 59 125 48 284 59<218.5 231 218.5 252> 295 48 343 59 432 48 455 49<200 235.5> 456 48<17.5 53>
LayerCount: 2
Fore
SplineSet
201 325 m 0x0102
 201 304 183 303 173 303 c 2x010208
 51 303 l 2
 41 303 23 304 23 325 c 0
 23 348 39 349 51 349 c 2
 88 349 l 1
 88 531 l 1
 69 519 53 517 45 517 c 0
 33 517 20 521 20 540 c 0
 20 560 35 562 46 562 c 0
 54 563 72 568 88 596 c 0x0198
 97 614 101 622 114 622 c 0x0004
 135 622 136 606 136 594 c 2
 136 349 l 1x0108
 173 349 l 2
 185 349 201 348 201 325 c 0x0102
504 28 m 2
 504 7 500 0 477 0 c 2
 312 0 l 2x403008
 301 0 284 1 284 23 c 0x2001
 284 33 288 36 295 42 c 2x000080
 402 133 l 2
 432 158 455 184 455 216 c 0
 455 255 421 274 385 274 c 0
 364 274 345 262 338 245 c 1x0a0050
 341 241 343 234 343 228 c 0x040080
 343 209 327 199 314 199 c 0
 302 199 284 205 284 230 c 0
 284 274 326 319 388 319 c 0
 452 319 504 279 504 216 c 0
 504 175 481 142 449 113 c 2
 369 46 l 1
 456 46 l 1x5a0108
 456 60 460 68 480 68 c 0x100020
 503 68 504 53 504 41 c 2
 504 28 l 2
443 597 m 0
 443 589 436 569 432 563 c 2
 125 7 l 2x004220
 118 -6 105 -15 88 -15 c 0x8008
 79 -15 70 1 70 16 c 0
 70 24 78 42 82 48 c 2
 389 604 l 2
 396 617 409 626 425 626 c 0
 443 626 443 604 443 597 c 0
EndSplineSet
Ligature2: "'frac' Diagonal Fractions lookup 3 subtable" one fraction two
Ligature2: "'frac' Diagonal Fractions lookup 3 subtable" one slash two
EndChar

StartChar: threequarters
Encoding: 190 190 126
Width: 525
GlyphClass: 3
Flags: MW
HStem: -15 21G<107.5 120.5> 0 46<376 403 381 403 446 469> 83 45<278 403 317 403 317 403 446 477 317 446> 298 45<124 152 124 166.5> 577 45<130.5 146> 606 20G<441 458>
VStem: 17 59<376 387 376 387.5> 32 49 182 49<538.5 554.5> 196 49<383 408.5> 354 49<11.5 83> 403 43<46 83 46 83 128 264 264 264>
LayerCount: 2
Fore
SplineSet
245 396 m 0x0980
 245 347 201 298 132 298 c 0
 68 298 17 331 17 377 c 0
 17 398 32 408 47 408 c 0
 63 408 76 395 76 379 c 0
 76 373 74 368 72 364 c 1
 85 347 116 343 132 343 c 0
 172 343 196 370 196 396 c 0x7250
 196 421 173 449 131 449 c 2
 109 449 l 2
 97 449 81 450 81 472 c 0
 81 490 88 494 124 496 c 0
 139 497 150 498 164 509 c 0
 176 518 182 532 182 545 c 0
 182 564 160 577 132 577 c 0
 129 577 102 577 88 567 c 0
 89 564 90 561 90 556 c 0
 90 538 75 526 61 526 c 0
 48 526 32 535 32 557 c 0
 32 594 68 622 132 622 c 0
 193 622 231 585 231 546 c 0
 231 521 220 494 197 475 c 1
 226 458 245 430 245 396 c 0x0980
504 105 m 0
 504 84 488 83 477 83 c 2
 446 83 l 1
 446 46 l 1x6410
 469 46 l 2
 480 46 496 45 496 22 c 0
 496 1 480 0 469 0 c 2
 381 0 l 2
 371 0 354 1 354 22 c 0x4020
 354 45 370 46 381 46 c 2
 403 46 l 1
 403 83 l 1
 288 83 l 2
 268 83 261 87 261 110 c 0
 261 123 261 124 268 131 c 2
 378 305 l 2
 386 318 390 320 405 320 c 2
 419 320 l 2
 442 320 446 314 446 291 c 2
 446 128 l 1
 477 128 l 2
 488 128 504 126 504 105 c 0
403 128 m 1
 403 264 l 1
 317 128 l 1
 403 128 l 1
467 597 m 0
 467 589 460 569 456 563 c 2
 149 7 l 2
 142 -6 129 -15 112 -15 c 0x80
 103 -15 94 1 94 16 c 0
 94 24 102 42 106 48 c 2
 413 604 l 2
 420 617 433 626 449 626 c 0
 467 626 467 604 467 597 c 0
EndSplineSet
Ligature2: "'frac' Diagonal Fractions lookup 3 subtable" three fraction four
Ligature2: "'frac' Diagonal Fractions lookup 3 subtable" three slash four
EndChar

StartChar: questiondown
Encoding: 191 191 127
Width: 525
GlyphClass: 3
Flags: MW
HStem: -222 75<240 256.5 240 264.5> 282 113<231 263>
VStem: 59 83<-106 -82.5 -120.5 -64.5> 201 93<151 168 168 179 137 189> 201 103 362 103<-98.5 -77.5>
LayerCount: 2
Fore
SplineSet
304 338 m 0xec
 304 306 279 282 247 282 c 0
 215 282 190 306 190 338 c 0
 190 370 215 395 247 395 c 0
 279 395 304 370 304 338 c 0xec
465 -95 m 0
 465 -220 281 -222 248 -222 c 0
 66 -222 59 -118 59 -94 c 0
 59 -35 102 -4 130 15 c 0
 197 65 201 123 201 151 c 2
 201 168 l 2
 201 210 212 215 247 215 c 0
 293 215 294 201 294 157 c 0xb4
 294 117 294 31 169 -53 c 0
 159 -60 142 -71 142 -94 c 0
 142 -147 231 -147 249 -147 c 0
 264 -147 335 -147 369 -121 c 1
 364 -112 362 -103 362 -94 c 0
 362 -61 389 -42 413 -42 c 0
 437 -42 465 -59 465 -95 c 0
EndSplineSet
Ligature2: "'dlig' Discretionary Ligatures lookup 6 subtable" question quoteleft
Ligature2: "'dlig' Discretionary Ligatures lookup 6 subtable" question grave
EndChar

StartChar: Agrave
Encoding: 192 192 128
Width: 525
GlyphClass: 2
Flags: MW
HStem: 0 75<65 85 78 85 439 446.5> 161 75<207 317 207 335 189 317> 603 20G<245.5 279.5> 673 21G<329 348.5> 799 20G<181 193>
LayerCount: 2
Fore
SplineSet
499 37 m 0
 499 2 469 0 449 0 c 2
 350 0 l 2
 328 0 301 1 301 37 c 0
 301 70 319 74 354 75 c 1
 335 161 l 1
 189 161 l 1
 170 75 l 1
 205 74 223 70 223 37 c 0
 223 1 196 0 174 0 c 2
 75 0 l 2
 55 0 25 2 25 37 c 0
 25 53 33 65 46 72 c 0
 52 74 71 75 85 75 c 1
 202 580 l 2
 212 622 229 623 262 623 c 0
 297 623 312 621 322 579 c 2
 439 75 l 1
 454 75 472 74 478 71 c 0
 492 65 499 53 499 37 c 0
317 236 m 1
 262 496 l 1
 207 236 l 1
 317 236 l 1
373 719 m 0
 373 710 364 673 333 673 c 0
 325 673 319 675 312 678 c 2
 183 736 l 2
 155 749 151 764 151 777 c 0
 151 801 169 819 193 819 c 1
 193 819 202 819 215 813 c 2
 344 755 l 2
 361 748 373 741 373 719 c 0
EndSplineSet
EndChar

StartChar: Aacute
Encoding: 193 193 129
Width: 525
GlyphClass: 2
Flags: MW
HStem: 0 75<65 85 78 85 439 446.5> 161 75<207 317 207 335 189 317> 603 20G<245.5 279.5> 673 21G<176.5 196> 799 20G<332 344>
LayerCount: 2
Fore
SplineSet
499 37 m 0
 499 2 469 0 449 0 c 2
 350 0 l 2
 328 0 301 1 301 37 c 0
 301 70 319 74 354 75 c 1
 335 161 l 1
 189 161 l 1
 170 75 l 1
 205 74 223 70 223 37 c 0
 223 1 196 0 174 0 c 2
 75 0 l 2
 55 0 25 2 25 37 c 0
 25 53 33 65 46 72 c 0
 52 74 71 75 85 75 c 1
 202 580 l 2
 212 622 229 623 262 623 c 0
 297 623 312 621 322 579 c 2
 439 75 l 1
 454 75 472 74 478 71 c 0
 492 65 499 53 499 37 c 0
317 236 m 1
 262 496 l 1
 207 236 l 1
 317 236 l 1
374 777 m 0
 374 764 370 749 342 736 c 2
 213 678 l 2
 206 675 200 673 192 673 c 0
 161 673 152 710 152 719 c 0
 152 741 164 748 181 755 c 2
 310 813 l 2
 323 819 332 819 332 819 c 1
 356 819 374 801 374 777 c 0
EndSplineSet
EndChar

StartChar: Acircumflex
Encoding: 194 194 130
Width: 525
GlyphClass: 2
Flags: MW
HStem: 0 75<65 85 78 85 439 446.5> 161 75<207 317 207 335 189 317> 603 20G<245.5 279.5> 663 21G<134.5 152.5 371.5 389.5>
LayerCount: 2
Fore
SplineSet
499 37 m 0
 499 2 469 0 449 0 c 2
 350 0 l 2
 328 0 301 1 301 37 c 0
 301 70 319 74 354 75 c 1
 335 161 l 1
 189 161 l 1
 170 75 l 1
 205 74 223 70 223 37 c 0
 223 1 196 0 174 0 c 2
 75 0 l 2
 55 0 25 2 25 37 c 0
 25 53 33 65 46 72 c 0
 52 74 71 75 85 75 c 1
 202 580 l 2
 212 622 229 623 262 623 c 0
 297 623 312 621 322 579 c 2
 439 75 l 1
 454 75 472 74 478 71 c 0
 492 65 499 53 499 37 c 0
317 236 m 1
 262 496 l 1
 207 236 l 1
 317 236 l 1
412 702 m 0
 412 684 403 663 376 663 c 0
 367 663 348 669 328 675 c 2
 262 695 l 1
 196 675 l 2
 176 669 157 663 148 663 c 0
 121 663 112 684 112 702 c 0
 112 722 135 733 168 745 c 2
 246 773 l 2
 259 778 265 778 278 773 c 2
 356 745 l 2
 388 733 412 722 412 702 c 0
EndSplineSet
EndChar

StartChar: Atilde
Encoding: 195 195 131
Width: 525
GlyphClass: 2
Flags: MW
HStem: 0 75<65 85 78 85 439 446.5> 161 75<207 317 207 335 189 317> 603 20G<245.5 279.5> 663 79<309.5 318 309.5 324> 717 79<208 216.5>
LayerCount: 2
Fore
SplineSet
499 37 m 0xe0
 499 2 469 0 449 0 c 2
 350 0 l 2
 328 0 301 1 301 37 c 0
 301 70 319 74 354 75 c 1
 335 161 l 1
 189 161 l 1
 170 75 l 1
 205 74 223 70 223 37 c 0
 223 1 196 0 174 0 c 2
 75 0 l 2
 55 0 25 2 25 37 c 0
 25 53 33 65 46 72 c 0
 52 74 71 75 85 75 c 1
 202 580 l 2
 212 622 229 623 262 623 c 0
 297 623 312 621 322 579 c 2
 439 75 l 1
 454 75 472 74 478 71 c 0
 492 65 499 53 499 37 c 0xe0
317 236 m 1
 262 496 l 1
 207 236 l 1
 317 236 l 1
441 757 m 0x08
 441 738 412 713 390 697 c 0
 367 680 338 663 310 663 c 0x10
 274 663 253 685 239 699 c 0
 228 709 219 717 214 717 c 0x08
 202 717 179 702 151 676 c 0
 143 669 136 663 123 663 c 0x10
 103 663 85 683 85 702 c 0
 85 722 114 746 136 762 c 0
 159 780 188 796 216 796 c 0x08
 252 796 273 774 287 761 c 0
 298 751 307 742 312 742 c 0x10
 324 742 347 758 375 783 c 0
 383 791 390 796 403 796 c 0
 423 796 441 777 441 757 c 0x08
EndSplineSet
EndChar

StartChar: Adieresis
Encoding: 196 196 132
Width: 525
GlyphClass: 2
Flags: MW
HStem: 0 75<65 85 78 85 439 446.5> 161 75<207 317 207 335 189 317> 603 20G<245.5 279.5> 663 103<150.5 179.5 345.5 374.5>
VStem: 113 104<700.5 730> 308 104<700.5 730>
LayerCount: 2
Fore
SplineSet
499 37 m 0
 499 2 469 0 449 0 c 2
 350 0 l 2
 328 0 301 1 301 37 c 0
 301 70 319 74 354 75 c 1
 335 161 l 1
 189 161 l 1
 170 75 l 1
 205 74 223 70 223 37 c 0
 223 1 196 0 174 0 c 2
 75 0 l 2
 55 0 25 2 25 37 c 0
 25 53 33 65 46 72 c 0
 52 74 71 75 85 75 c 1
 202 580 l 2
 212 622 229 623 262 623 c 0
 297 623 312 621 322 579 c 2
 439 75 l 1
 454 75 472 74 478 71 c 0
 492 65 499 53 499 37 c 0
317 236 m 1
 262 496 l 1
 207 236 l 1
 317 236 l 1
217 715 m 0
 217 686 194 663 165 663 c 0
 136 663 113 686 113 715 c 0
 113 745 136 766 165 766 c 0
 194 766 217 745 217 715 c 0
412 715 m 0
 412 686 389 663 360 663 c 0
 331 663 308 686 308 715 c 0
 308 745 331 766 360 766 c 0
 389 766 412 745 412 715 c 0
EndSplineSet
EndChar

StartChar: Aring
Encoding: 197 197 133
Width: 525
GlyphClass: 2
Flags: MW
HStem: 0 75<65 85 78 85 439 446.5> 161 75<207 317 207 335 189 317> 623 47<255.5 270.5 255.5 288.5 255.5 270.5 255.5 279.5> 710 47<255.5 270.5>
VStem: 176 56<684 696.5 684 707.5> 294 56<684 696.5>
LayerCount: 2
Fore
SplineSet
499 37 m 0
 499 2 469 0 449 0 c 2
 350 0 l 2
 328 0 301 1 301 37 c 0
 301 70 319 74 354 75 c 1
 335 161 l 1
 189 161 l 1
 170 75 l 1
 205 74 223 70 223 37 c 0
 223 1 196 0 174 0 c 2
 75 0 l 2
 55 0 25 2 25 37 c 0
 25 53 33 65 46 72 c 0
 52 74 71 75 85 75 c 1
 202 580 l 2
 212 622 229 623 262 623 c 0
 297 623 312 621 322 579 c 2
 439 75 l 1
 454 75 472 74 478 71 c 0
 492 65 499 53 499 37 c 0
317 236 m 1
 262 496 l 1
 207 236 l 1
 317 236 l 1
294 690 m 0
 294 703 278 710 263 710 c 0
 248 710 232 703 232 690 c 0
 232 678 248 670 263 670 c 0
 278 670 294 678 294 690 c 0
350 691 m 0
 350 656 314 623 263 623 c 0
 212 623 176 656 176 691 c 0
 176 724 212 757 263 757 c 0
 314 757 350 724 350 691 c 0
EndSplineSet
EndChar

StartChar: AE
Encoding: 198 198 134
Width: 525
GlyphClass: 2
Flags: MW
HStem: 0 75<59 68 68 69 55.5 137 326 431> 178 75<176 255 176 256 162 255> 279 75<326 431 326 431> 536 75<163 446 233 233 233 255 326 326 326 423>
VStem: 163 70<536 536> 256 70<75 178 178 178> 423 70<492 536 536 536> 431 70<75 134>
LayerCount: 2
Fore
SplineSet
501 48 m 2xb5
 501 10 492 0 454 0 c 2
 265 0 l 2
 246 0 217 1 217 38 c 0
 217 69 239 74 256 75 c 1
 256 178 l 1
 162 178 l 1
 141 75 l 1
 164 74 184 69 184 37 c 0
 184 1 155 0 137 0 c 2
 68 0 l 2
 50 0 21 1 21 37 c 0
 21 71 42 75 69 75 c 1
 163 536 l 1
 145 537 126 543 126 574 c 0
 126 610 154 611 172 611 c 2
 446 611 l 2
 486 611 493 599 493 563 c 2
 493 492 l 2
 493 475 491 444 458 444 c 0
 424 444 423 475 423 492 c 2
 423 536 l 1xde
 326 536 l 1
 326 354 l 1
 431 354 l 2
 450 354 477 353 477 316 c 0
 477 280 448 279 431 279 c 2
 326 279 l 1
 326 75 l 1
 431 75 l 1
 431 134 l 2
 431 151 432 182 466 182 c 0
 499 182 501 151 501 134 c 2
 501 48 l 2xb5
255 253 m 1
 255 536 l 1
 233 536 l 1
 176 253 l 1
 255 253 l 1
EndSplineSet
EndChar

StartChar: Ccedilla
Encoding: 199 199 135
Width: 525
GlyphClass: 2
Flags: MW
HStem: -203 76<214.5 253 214.5 255.5> 547 75<242.5 304.5 216 312>
VStem: 38 83<235.5 376 235.5 397> 361 83<-111 -87> 403 83
LayerCount: 2
Fore
SplineSet
486 172 m 0x10
 486 101 436 31 358 3 c 1
 420 -15 444 -58 444 -95 c 0
 444 -199 304 -203 207 -203 c 0
 189 -203 169 -193 169 -165 c 0
 169 -130 193 -127 236 -127 c 0
 270 -127 361 -127 361 -95 c 0x90
 361 -79 341 -66 304 -64 c 0
 266 -62 265 -39 265 -16 c 2
 265 -10 l 1
 142 0 38 130 38 306 c 0
 38 488 151 622 281 622 c 0
 328 622 372 604 405 579 c 1
 413 596 413 598 415 601 c 0
 421 610 430 622 449 622 c 0
 485 622 486 593 486 574 c 2
 486 439 l 2x68
 486 415 485 391 444 391 c 0x10
 409 391 406 409 402 429 c 0
 390 504 340 547 284 547 c 0
 201 547 121 446 121 306 c 0
 121 165 200 64 285 64 c 0
 323 64 397 86 403 176 c 0x68
 406 211 433 211 444 211 c 0
 457 211 486 211 486 172 c 0x10
EndSplineSet
EndChar

StartChar: Egrave
Encoding: 200 200 136
Width: 525
GlyphClass: 2
Flags: MW
HStem: 0 75<63 93 72 93 176 421> 279 75<176 288 176 288> 536 75<63 436 72 93 176 176 176 399> 673 21G<329 348.5> 799 20G<181 193>
VStem: 93 83<75 279 354 536> 288 83<279 279 354 354> 399 83<492 536 536 536> 421 83<75 134>
LayerCount: 2
Fore
SplineSet
504 48 m 2xe680
 504 10 495 0 457 0 c 2
 72 0 l 2
 54 0 24 1 24 37 c 0
 24 74 53 75 72 75 c 2
 93 75 l 1
 93 536 l 1
 72 536 l 2
 54 536 24 537 24 574 c 0
 24 610 54 611 72 611 c 2
 436 611 l 2
 475 611 482 599 482 563 c 2
 482 492 l 2
 482 469 482 444 440 444 c 0
 400 444 399 470 399 492 c 2
 399 536 l 1xa5
 176 536 l 1
 176 354 l 1
 288 354 l 1
 289 394 293 409 330 409 c 0
 370 409 371 384 371 362 c 2
 371 271 l 2
 371 248 370 223 330 223 c 0
 293 223 289 238 288 279 c 1
 176 279 l 1
 176 75 l 1
 421 75 l 1
 421 134 l 2
 421 158 422 182 463 182 c 0
 503 182 504 157 504 134 c 2
 504 48 l 2xe680
373 719 m 0x18
 373 710 364 673 333 673 c 0
 325 673 319 675 312 678 c 2
 183 736 l 2
 155 749 151 764 151 777 c 0
 151 801 169 819 193 819 c 1
 193 819 202 819 215 813 c 2
 344 755 l 2
 361 748 373 741 373 719 c 0x18
EndSplineSet
EndChar

StartChar: Eacute
Encoding: 201 201 137
Width: 525
GlyphClass: 2
Flags: MW
HStem: 0 75<63 93 72 93 176 421> 279 75<176 288 176 288> 536 75<63 436 72 93 176 176 176 399> 673 21G<176.5 196> 799 20G<332 344>
VStem: 93 83<75 279 354 536> 288 83<279 279 354 354> 399 83<492 536 536 536> 421 83<75 134>
LayerCount: 2
Fore
SplineSet
504 48 m 2xe680
 504 10 495 0 457 0 c 2
 72 0 l 2
 54 0 24 1 24 37 c 0
 24 74 53 75 72 75 c 2
 93 75 l 1
 93 536 l 1
 72 536 l 2
 54 536 24 537 24 574 c 0
 24 610 54 611 72 611 c 2
 436 611 l 2
 475 611 482 599 482 563 c 2
 482 492 l 2
 482 469 482 444 440 444 c 0
 400 444 399 470 399 492 c 2
 399 536 l 1xa5
 176 536 l 1
 176 354 l 1
 288 354 l 1
 289 394 293 409 330 409 c 0
 370 409 371 384 371 362 c 2
 371 271 l 2
 371 248 370 223 330 223 c 0
 293 223 289 238 288 279 c 1
 176 279 l 1
 176 75 l 1
 421 75 l 1
 421 134 l 2
 421 158 422 182 463 182 c 0
 503 182 504 157 504 134 c 2
 504 48 l 2xe680
374 777 m 0x18
 374 764 370 749 342 736 c 2
 213 678 l 2
 206 675 200 673 192 673 c 0
 161 673 152 710 152 719 c 0
 152 741 164 748 181 755 c 2
 310 813 l 2
 323 819 332 819 332 819 c 1
 356 819 374 801 374 777 c 0x18
EndSplineSet
EndChar

StartChar: Ecircumflex
Encoding: 202 202 138
Width: 525
GlyphClass: 2
Flags: MW
HStem: 0 75<63 93 72 93 176 421> 279 75<176 288 176 288> 536 75<63 436 72 93 176 176 176 399> 663 21G<134.5 152.5 371.5 389.5>
VStem: 93 83<75 279 354 536> 288 83<279 279 354 354> 399 83<492 536 536 536> 421 83<75 134>
LayerCount: 2
Fore
SplineSet
504 48 m 2xed
 504 10 495 0 457 0 c 2
 72 0 l 2
 54 0 24 1 24 37 c 0
 24 74 53 75 72 75 c 2
 93 75 l 1
 93 536 l 1
 72 536 l 2
 54 536 24 537 24 574 c 0
 24 610 54 611 72 611 c 2
 436 611 l 2
 475 611 482 599 482 563 c 2
 482 492 l 2
 482 469 482 444 440 444 c 0
 400 444 399 470 399 492 c 2
 399 536 l 1xaa
 176 536 l 1
 176 354 l 1
 288 354 l 1
 289 394 293 409 330 409 c 0
 370 409 371 384 371 362 c 2
 371 271 l 2
 371 248 370 223 330 223 c 0
 293 223 289 238 288 279 c 1
 176 279 l 1
 176 75 l 1
 421 75 l 1
 421 134 l 2
 421 158 422 182 463 182 c 0
 503 182 504 157 504 134 c 2
 504 48 l 2xed
412 702 m 0x10
 412 684 403 663 376 663 c 0
 367 663 348 669 328 675 c 2
 262 695 l 1
 196 675 l 2
 176 669 157 663 148 663 c 0
 121 663 112 684 112 702 c 0
 112 722 135 733 168 745 c 2
 246 773 l 2
 259 778 265 778 278 773 c 2
 356 745 l 2
 388 733 412 722 412 702 c 0x10
EndSplineSet
EndChar

StartChar: Edieresis
Encoding: 203 203 139
Width: 525
GlyphClass: 2
Flags: MW
HStem: 0 75<63 93 72 93 176 421> 279 75<176 288 176 288> 536 75<63 436 72 93 176 176 176 399> 663 103<150.5 179.5 345.5 374.5>
VStem: 93 83<75 279 354 536> 113 104<700.5 730> 288 83<279 279 354 354> 308 104<700.5 730> 399 83<492 536 536 536> 421 83<75 134>
LayerCount: 2
Fore
SplineSet
504 48 m 2xea40
 504 10 495 0 457 0 c 2
 72 0 l 2
 54 0 24 1 24 37 c 0
 24 74 53 75 72 75 c 2
 93 75 l 1
 93 536 l 1
 72 536 l 2
 54 536 24 537 24 574 c 0
 24 610 54 611 72 611 c 2
 436 611 l 2
 475 611 482 599 482 563 c 2
 482 492 l 2
 482 469 482 444 440 444 c 0
 400 444 399 470 399 492 c 2
 399 536 l 1xa880
 176 536 l 1
 176 354 l 1
 288 354 l 1
 289 394 293 409 330 409 c 0
 370 409 371 384 371 362 c 2
 371 271 l 2
 371 248 370 223 330 223 c 0
 293 223 289 238 288 279 c 1
 176 279 l 1
 176 75 l 1
 421 75 l 1
 421 134 l 2
 421 158 422 182 463 182 c 0
 503 182 504 157 504 134 c 2
 504 48 l 2xea40
217 715 m 0x15
 217 686 194 663 165 663 c 0
 136 663 113 686 113 715 c 0
 113 745 136 766 165 766 c 0
 194 766 217 745 217 715 c 0x15
412 715 m 0
 412 686 389 663 360 663 c 0
 331 663 308 686 308 715 c 0
 308 745 331 766 360 766 c 0
 389 766 412 745 412 715 c 0
EndSplineSet
EndChar

StartChar: Igrave
Encoding: 204 204 140
Width: 525
GlyphClass: 2
Flags: MW
HStem: 0 75<115 221 124 221 304 401> 536 75<115 401 124 221 304 304 304 401> 673 21G<329 348.5> 799 20G<181 193>
VStem: 221 83<75 536 75 536>
LayerCount: 2
Fore
SplineSet
449 37 m 0
 449 1 419 0 401 0 c 2
 124 0 l 2
 106 0 76 1 76 38 c 0
 76 74 106 75 124 75 c 2
 221 75 l 1
 221 536 l 1
 124 536 l 2
 106 536 76 537 76 574 c 0
 76 610 106 611 124 611 c 2
 401 611 l 2
 419 611 449 610 449 573 c 0
 449 537 419 536 401 536 c 2
 304 536 l 1
 304 75 l 1
 401 75 l 2
 419 75 449 74 449 37 c 0
373 719 m 0
 373 710 364 673 333 673 c 0
 325 673 319 675 312 678 c 2
 183 736 l 2
 155 749 151 764 151 777 c 0
 151 801 169 819 193 819 c 1
 193 819 202 819 215 813 c 2
 344 755 l 2
 361 748 373 741 373 719 c 0
EndSplineSet
EndChar

StartChar: Iacute
Encoding: 205 205 141
Width: 525
GlyphClass: 2
Flags: MW
HStem: 0 75<115 221 124 221 304 401> 536 75<115 401 124 221 304 304 304 401> 673 21G<176.5 196> 799 20G<332 344>
VStem: 221 83<75 536 75 536>
LayerCount: 2
Fore
SplineSet
449 37 m 0
 449 1 419 0 401 0 c 2
 124 0 l 2
 106 0 76 1 76 38 c 0
 76 74 106 75 124 75 c 2
 221 75 l 1
 221 536 l 1
 124 536 l 2
 106 536 76 537 76 574 c 0
 76 610 106 611 124 611 c 2
 401 611 l 2
 419 611 449 610 449 573 c 0
 449 537 419 536 401 536 c 2
 304 536 l 1
 304 75 l 1
 401 75 l 2
 419 75 449 74 449 37 c 0
374 777 m 0
 374 764 370 749 342 736 c 2
 213 678 l 2
 206 675 200 673 192 673 c 0
 161 673 152 710 152 719 c 0
 152 741 164 748 181 755 c 2
 310 813 l 2
 323 819 332 819 332 819 c 1
 356 819 374 801 374 777 c 0
EndSplineSet
EndChar

StartChar: Icircumflex
Encoding: 206 206 142
Width: 525
GlyphClass: 2
Flags: MW
HStem: 0 75<115 221 124 221 304 401> 536 75<115 401 124 221 304 304 304 401> 663 21G<134.5 152.5 371.5 389.5>
VStem: 221 83<75 536 75 536>
LayerCount: 2
Fore
SplineSet
449 37 m 0
 449 1 419 0 401 0 c 2
 124 0 l 2
 106 0 76 1 76 38 c 0
 76 74 106 75 124 75 c 2
 221 75 l 1
 221 536 l 1
 124 536 l 2
 106 536 76 537 76 574 c 0
 76 610 106 611 124 611 c 2
 401 611 l 2
 419 611 449 610 449 573 c 0
 449 537 419 536 401 536 c 2
 304 536 l 1
 304 75 l 1
 401 75 l 2
 419 75 449 74 449 37 c 0
412 702 m 0
 412 684 403 663 376 663 c 0
 367 663 348 669 328 675 c 2
 262 695 l 1
 196 675 l 2
 176 669 157 663 148 663 c 0
 121 663 112 684 112 702 c 0
 112 722 135 733 168 745 c 2
 246 773 l 2
 259 778 265 778 278 773 c 2
 356 745 l 2
 388 733 412 722 412 702 c 0
EndSplineSet
EndChar

StartChar: Idieresis
Encoding: 207 207 143
Width: 525
GlyphClass: 2
Flags: MW
HStem: 0 75<115 221 124 221 304 401> 536 75<115 401 124 221 304 304 304 401> 663 103<150.5 179.5 345.5 374.5>
VStem: 113 104<700.5 730> 221 83<75 536 75 536> 308 104<700.5 730>
LayerCount: 2
Fore
SplineSet
449 37 m 0
 449 1 419 0 401 0 c 2
 124 0 l 2
 106 0 76 1 76 38 c 0
 76 74 106 75 124 75 c 2
 221 75 l 1
 221 536 l 1
 124 536 l 2
 106 536 76 537 76 574 c 0
 76 610 106 611 124 611 c 2
 401 611 l 2
 419 611 449 610 449 573 c 0
 449 537 419 536 401 536 c 2
 304 536 l 1
 304 75 l 1
 401 75 l 2
 419 75 449 74 449 37 c 0
217 715 m 0
 217 686 194 663 165 663 c 0
 136 663 113 686 113 715 c 0
 113 745 136 766 165 766 c 0
 194 766 217 745 217 715 c 0
412 715 m 0
 412 686 389 663 360 663 c 0
 331 663 308 686 308 715 c 0
 308 745 331 766 360 766 c 0
 389 766 412 745 412 715 c 0
EndSplineSet
EndChar

StartChar: Eth
Encoding: 208 208 144
Width: 525
GlyphClass: 2
Flags: MW
HStem: 0 75<56 79 65 79 162 248 248 266> 268 76<48.5 79 59 79 162 212> 536 75<56 266 65 79 162 162 162 248>
VStem: 79 83<75 268 75 268 344 536> 405 82<246 355.5>
LayerCount: 2
Fore
SplineSet
487 301 m 0
 487 140 397 0 266 0 c 2
 65 0 l 2
 47 0 17 1 17 37 c 0
 17 74 46 75 65 75 c 2
 79 75 l 1
 79 268 l 1
 59 268 l 2
 38 268 21 284 21 306 c 0
 21 327 38 344 59 344 c 2
 79 344 l 1
 79 536 l 1
 65 536 l 2
 47 536 17 537 17 573 c 0
 17 610 46 611 65 611 c 2
 266 611 l 2
 399 611 487 462 487 301 c 0
405 301 m 0
 405 410 354 536 248 536 c 2
 162 536 l 1
 162 344 l 1
 212 344 l 2
 233 344 250 327 250 306 c 0
 250 284 233 268 212 268 c 2
 162 268 l 1
 162 75 l 1
 248 75 l 2
 352 75 405 191 405 301 c 0
EndSplineSet
EndChar

StartChar: Ntilde
Encoding: 209 209 145
Width: 525
GlyphClass: 2
Flags: MW
HStem: 0 75<63.5 90 73 90 160 176> 536 75<63.5 139 73 90 348 364 434 451 434 434> 663 79<309.5 318 309.5 324> 717 79<208 216.5>
VStem: 90 70<75 487 75 536 75 536> 364 70<124 536>
LayerCount: 2
Fore
SplineSet
498 573 m 0xcc
 498 537 469 536 451 536 c 2
 434 536 l 1
 434 48 l 2
 434 4 421 0 386 0 c 0
 357 0 339 1 325 40 c 2
 160 487 l 1
 160 75 l 1
 176 75 l 2
 195 75 223 74 223 37 c 0
 223 1 194 0 176 0 c 2
 73 0 l 2
 54 0 26 1 26 38 c 0
 26 74 55 75 73 75 c 2
 90 75 l 1
 90 536 l 1
 73 536 l 2
 54 536 26 537 26 574 c 0
 26 610 55 611 73 611 c 2
 139 611 l 2
 169 611 186 607 199 571 c 2
 364 124 l 1
 364 536 l 1
 348 536 l 2
 330 536 301 537 301 573 c 0
 301 610 329 611 348 611 c 2
 451 611 l 2
 470 611 498 610 498 573 c 0xcc
441 757 m 0x10
 441 738 412 713 390 697 c 0
 367 680 338 663 310 663 c 0x20
 274 663 253 685 239 699 c 0
 228 709 219 717 214 717 c 0x10
 202 717 179 702 151 676 c 0
 143 669 136 663 123 663 c 0x20
 103 663 85 683 85 702 c 0
 85 722 114 746 136 762 c 0
 159 780 188 796 216 796 c 0x10
 252 796 273 774 287 761 c 0
 298 751 307 742 312 742 c 0x20
 324 742 347 758 375 783 c 0
 383 791 390 796 403 796 c 0
 423 796 441 777 441 757 c 0x10
EndSplineSet
EndChar

StartChar: Ograve
Encoding: 210 210 146
Width: 525
GlyphClass: 2
Flags: MW
HStem: -11 75<222 302.5 222 354.5> 547 75<225 296> 673 21G<329 348.5> 799 20G<181 193>
VStem: 53 83<287.5 342 287.5 450.5> 388 83<284 343.5>
LayerCount: 2
Fore
SplineSet
471 305 m 0
 471 15 447 -11 262 -11 c 0
 76 -11 53 15 53 305 c 0
 53 596 76 622 262 622 c 0
 448 622 471 595 471 305 c 0
388 314 m 0
 388 373 388 445 376 490 c 0
 363 540 330 547 262 547 c 0
 188 547 159 537 145 476 c 0
 136 432 136 370 136 314 c 0
 136 261 136 176 148 128 c 0
 159 82 182 64 262 64 c 0
 343 64 367 82 377 133 c 0
 388 185 388 254 388 314 c 0
373 719 m 0
 373 710 364 673 333 673 c 0
 325 673 319 675 312 678 c 2
 183 736 l 2
 155 749 151 764 151 777 c 0
 151 801 169 819 193 819 c 1
 193 819 202 819 215 813 c 2
 344 755 l 2
 361 748 373 741 373 719 c 0
EndSplineSet
EndChar

StartChar: Oacute
Encoding: 211 211 147
Width: 525
GlyphClass: 2
Flags: MW
HStem: -11 75<222 302.5 222 354.5> 547 75<225 296> 673 21G<176.5 196> 799 20G<332 344>
VStem: 53 83<287.5 342 287.5 450.5> 388 83<284 343.5>
LayerCount: 2
Fore
SplineSet
471 305 m 0
 471 15 447 -11 262 -11 c 0
 76 -11 53 15 53 305 c 0
 53 596 76 622 262 622 c 0
 448 622 471 595 471 305 c 0
388 314 m 0
 388 373 388 445 376 490 c 0
 363 540 330 547 262 547 c 0
 188 547 159 537 145 476 c 0
 136 432 136 370 136 314 c 0
 136 261 136 176 148 128 c 0
 159 82 182 64 262 64 c 0
 343 64 367 82 377 133 c 0
 388 185 388 254 388 314 c 0
374 777 m 0
 374 764 370 749 342 736 c 2
 213 678 l 2
 206 675 200 673 192 673 c 0
 161 673 152 710 152 719 c 0
 152 741 164 748 181 755 c 2
 310 813 l 2
 323 819 332 819 332 819 c 1
 356 819 374 801 374 777 c 0
EndSplineSet
EndChar

StartChar: Ocircumflex
Encoding: 212 212 148
Width: 525
GlyphClass: 2
Flags: MW
HStem: -11 75<222 302.5 222 354.5> 547 75<225 296> 663 21G<134.5 152.5 371.5 389.5>
VStem: 53 83<287.5 342 287.5 450.5> 388 83<284 343.5>
LayerCount: 2
Fore
SplineSet
471 305 m 0
 471 15 447 -11 262 -11 c 0
 76 -11 53 15 53 305 c 0
 53 596 76 622 262 622 c 0
 448 622 471 595 471 305 c 0
388 314 m 0
 388 373 388 445 376 490 c 0
 363 540 330 547 262 547 c 0
 188 547 159 537 145 476 c 0
 136 432 136 370 136 314 c 0
 136 261 136 176 148 128 c 0
 159 82 182 64 262 64 c 0
 343 64 367 82 377 133 c 0
 388 185 388 254 388 314 c 0
412 702 m 0
 412 684 403 663 376 663 c 0
 367 663 348 669 328 675 c 2
 262 695 l 1
 196 675 l 2
 176 669 157 663 148 663 c 0
 121 663 112 684 112 702 c 0
 112 722 135 733 168 745 c 2
 246 773 l 2
 259 778 265 778 278 773 c 2
 356 745 l 2
 388 733 412 722 412 702 c 0
EndSplineSet
EndChar

StartChar: Otilde
Encoding: 213 213 149
Width: 525
GlyphClass: 2
Flags: MW
HStem: -11 75<222 302.5 222 354.5> 547 75<225 296> 663 79<309.5 318 309.5 324> 717 79<208 216.5>
VStem: 53 83<287.5 342 287.5 450.5> 388 83<284 343.5>
LayerCount: 2
Fore
SplineSet
471 305 m 0xcc
 471 15 447 -11 262 -11 c 0
 76 -11 53 15 53 305 c 0
 53 596 76 622 262 622 c 0
 448 622 471 595 471 305 c 0xcc
388 314 m 0
 388 373 388 445 376 490 c 0
 363 540 330 547 262 547 c 0
 188 547 159 537 145 476 c 0
 136 432 136 370 136 314 c 0
 136 261 136 176 148 128 c 0
 159 82 182 64 262 64 c 0
 343 64 367 82 377 133 c 0
 388 185 388 254 388 314 c 0
441 757 m 0x10
 441 738 412 713 390 697 c 0
 367 680 338 663 310 663 c 0x20
 274 663 253 685 239 699 c 0
 228 709 219 717 214 717 c 0x10
 202 717 179 702 151 676 c 0
 143 669 136 663 123 663 c 0x20
 103 663 85 683 85 702 c 0
 85 722 114 746 136 762 c 0
 159 780 188 796 216 796 c 0x18
 252 796 273 774 287 761 c 0
 298 751 307 742 312 742 c 0x20
 324 742 347 758 375 783 c 0
 383 791 390 796 403 796 c 0
 423 796 441 777 441 757 c 0x10
EndSplineSet
EndChar

StartChar: Odieresis
Encoding: 214 214 150
Width: 525
GlyphClass: 2
Flags: MW
HStem: -11 75<222 302.5 222 354.5> 547 75<225 296> 663 103<150.5 179.5 345.5 374.5>
VStem: 53 83<287.5 342 287.5 450.5> 113 104<700.5 730> 308 104<700.5 730> 388 83<284 343.5>
LayerCount: 2
Fore
SplineSet
471 305 m 0xd2
 471 15 447 -11 262 -11 c 0
 76 -11 53 15 53 305 c 0
 53 596 76 622 262 622 c 0
 448 622 471 595 471 305 c 0xd2
388 314 m 0
 388 373 388 445 376 490 c 0
 363 540 330 547 262 547 c 0
 188 547 159 537 145 476 c 0
 136 432 136 370 136 314 c 0
 136 261 136 176 148 128 c 0
 159 82 182 64 262 64 c 0
 343 64 367 82 377 133 c 0
 388 185 388 254 388 314 c 0
217 715 m 0x2c
 217 686 194 663 165 663 c 0
 136 663 113 686 113 715 c 0
 113 745 136 766 165 766 c 0
 194 766 217 745 217 715 c 0x2c
412 715 m 0
 412 686 389 663 360 663 c 0
 331 663 308 686 308 715 c 0
 308 745 331 766 360 766 c 0
 389 766 412 745 412 715 c 0
EndSplineSet
EndChar

StartChar: multiply
Encoding: 215 215 151
Width: 525
GlyphClass: 2
Flags: MW
HStem: 133 20G<355 355> 459 21G<169 169>
LayerCount: 2
Fore
SplineSet
422 146 m 0
 395 118 366 144 355 153 c 2
 262 247 l 1
 170 154 l 2
 159 145 130 118 103 147 c 0
 74 174 101 203 110 214 c 2
 203 306 l 1
 109 399 l 2
 100 410 74 439 102 466 c 0
 129 494 158 468 169 459 c 2
 262 365 l 1
 354 458 l 2
 365 467 394 494 421 465 c 0
 450 438 423 409 414 398 c 2
 321 306 l 1
 415 213 l 2
 424 202 450 173 422 146 c 0
EndSplineSet
EndChar

StartChar: Oslash
Encoding: 216 216 152
Width: 525
GlyphClass: 2
Flags: MW
HStem: -83 21G<150 162.5> -11 75<251.5 299 251.5 354.5> 547 75<225 272.5> 674 20G<361.5 374>
VStem: 53 69<283 334.5 223 450.5> 402 69<276.5 388>
LayerCount: 2
Fore
SplineSet
471 305 m 0
 471 15 447 -11 262 -11 c 0
 241 -11 222 -11 199 -9 c 1
 187 -48 l 2
 182 -64 175 -83 150 -83 c 1
 150 -83 111 -80 111 -46 c 1
 111 -46 111 -38 126 8 c 1
 80 31 66 74 58 150 c 0
 53 197 53 261 53 305 c 0
 53 596 76 622 262 622 c 0
 283 622 302 622 325 620 c 1
 337 659 l 2
 342 675 349 694 374 694 c 1
 374 694 413 691 413 657 c 1
 413 657 413 649 398 603 c 1
 458 574 471 503 471 305 c 0
402 306 m 0
 402 470 389 505 372 521 c 1
 225 65 l 1
 237 64 240 64 263 64 c 0
 335 64 374 69 389 124 c 0
 402 170 402 247 402 306 c 0
299 546 m 1
 287 547 284 547 261 547 c 0
 189 547 150 542 135 487 c 0
 122 441 122 364 122 305 c 0
 122 141 135 106 152 90 c 1
 299 546 l 1
EndSplineSet
EndChar

StartChar: Ugrave
Encoding: 217 217 153
Width: 525
GlyphClass: 2
Flags: MW
HStem: -11 75<237.5 286 237.5 312.5> 536 75<42 176 51 72 155 155 155 176 348 369 452 473 452 452> 673 21G<329 348.5> 799 20G<181 193>
VStem: 72 83<207 211 211 536> 369 83<211 536>
LayerCount: 2
Fore
SplineSet
521 574 m 0
 521 537 492 536 473 536 c 2
 452 536 l 1
 452 207 l 2
 452 82 363 -11 262 -11 c 0
 161 -11 72 82 72 207 c 2
 72 536 l 1
 51 536 l 2
 33 536 3 537 3 574 c 0
 3 610 33 611 51 611 c 2
 176 611 l 2
 194 611 224 610 224 574 c 0
 224 537 194 536 176 536 c 2
 155 536 l 1
 155 211 l 2
 155 113 213 64 262 64 c 0
 310 64 369 113 369 211 c 2
 369 536 l 1
 348 536 l 2
 330 536 300 537 300 574 c 0
 300 610 330 611 348 611 c 2
 473 611 l 2
 491 611 521 610 521 574 c 0
373 719 m 0
 373 710 364 673 333 673 c 0
 325 673 319 675 312 678 c 2
 183 736 l 2
 155 749 151 764 151 777 c 0
 151 801 169 819 193 819 c 1
 193 819 202 819 215 813 c 2
 344 755 l 2
 361 748 373 741 373 719 c 0
EndSplineSet
EndChar

StartChar: Uacute
Encoding: 218 218 154
Width: 525
GlyphClass: 2
Flags: MW
HStem: -11 75<237.5 286 237.5 312.5> 536 75<42 176 51 72 155 155 155 176 348 369 452 473 452 452> 673 21G<176.5 196> 799 20G<332 344>
VStem: 72 83<207 211 211 536> 369 83<211 536>
LayerCount: 2
Fore
SplineSet
521 574 m 0
 521 537 492 536 473 536 c 2
 452 536 l 1
 452 207 l 2
 452 82 363 -11 262 -11 c 0
 161 -11 72 82 72 207 c 2
 72 536 l 1
 51 536 l 2
 33 536 3 537 3 574 c 0
 3 610 33 611 51 611 c 2
 176 611 l 2
 194 611 224 610 224 574 c 0
 224 537 194 536 176 536 c 2
 155 536 l 1
 155 211 l 2
 155 113 213 64 262 64 c 0
 310 64 369 113 369 211 c 2
 369 536 l 1
 348 536 l 2
 330 536 300 537 300 574 c 0
 300 610 330 611 348 611 c 2
 473 611 l 2
 491 611 521 610 521 574 c 0
374 777 m 0
 374 764 370 749 342 736 c 2
 213 678 l 2
 206 675 200 673 192 673 c 0
 161 673 152 710 152 719 c 0
 152 741 164 748 181 755 c 2
 310 813 l 2
 323 819 332 819 332 819 c 1
 356 819 374 801 374 777 c 0
EndSplineSet
EndChar

StartChar: Ucircumflex
Encoding: 219 219 155
Width: 525
GlyphClass: 2
Flags: MW
HStem: -11 75<237.5 286 237.5 312.5> 536 75<42 176 51 72 155 155 155 176 348 369 452 473 452 452> 663 21G<134.5 152.5 371.5 389.5>
VStem: 72 83<207 211 211 536> 369 83<211 536>
LayerCount: 2
Fore
SplineSet
521 574 m 0
 521 537 492 536 473 536 c 2
 452 536 l 1
 452 207 l 2
 452 82 363 -11 262 -11 c 0
 161 -11 72 82 72 207 c 2
 72 536 l 1
 51 536 l 2
 33 536 3 537 3 574 c 0
 3 610 33 611 51 611 c 2
 176 611 l 2
 194 611 224 610 224 574 c 0
 224 537 194 536 176 536 c 2
 155 536 l 1
 155 211 l 2
 155 113 213 64 262 64 c 0
 310 64 369 113 369 211 c 2
 369 536 l 1
 348 536 l 2
 330 536 300 537 300 574 c 0
 300 610 330 611 348 611 c 2
 473 611 l 2
 491 611 521 610 521 574 c 0
412 702 m 0
 412 684 403 663 376 663 c 0
 367 663 348 669 328 675 c 2
 262 695 l 1
 196 675 l 2
 176 669 157 663 148 663 c 0
 121 663 112 684 112 702 c 0
 112 722 135 733 168 745 c 2
 246 773 l 2
 259 778 265 778 278 773 c 2
 356 745 l 2
 388 733 412 722 412 702 c 0
EndSplineSet
EndChar

StartChar: Udieresis
Encoding: 220 220 156
Width: 525
GlyphClass: 2
Flags: MW
HStem: -11 75<237.5 286 237.5 312.5> 536 75<42 176 51 72 155 155 155 176 348 369 452 473 452 452> 663 103<150.5 179.5 345.5 374.5>
VStem: 72 83<207 211 211 536> 113 104<700.5 730> 308 104<700.5 730> 369 83<211 536>
LayerCount: 2
Fore
SplineSet
521 574 m 0xd2
 521 537 492 536 473 536 c 2
 452 536 l 1
 452 207 l 2
 452 82 363 -11 262 -11 c 0
 161 -11 72 82 72 207 c 2
 72 536 l 1
 51 536 l 2
 33 536 3 537 3 574 c 0
 3 610 33 611 51 611 c 2
 176 611 l 2
 194 611 224 610 224 574 c 0
 224 537 194 536 176 536 c 2
 155 536 l 1
 155 211 l 2
 155 113 213 64 262 64 c 0
 310 64 369 113 369 211 c 2
 369 536 l 1
 348 536 l 2
 330 536 300 537 300 574 c 0
 300 610 330 611 348 611 c 2
 473 611 l 2
 491 611 521 610 521 574 c 0xd2
217 715 m 0x2c
 217 686 194 663 165 663 c 0
 136 663 113 686 113 715 c 0
 113 745 136 766 165 766 c 0
 194 766 217 745 217 715 c 0x2c
412 715 m 0
 412 686 389 663 360 663 c 0
 331 663 308 686 308 715 c 0
 308 745 331 766 360 766 c 0
 389 766 412 745 412 715 c 0
EndSplineSet
EndChar

StartChar: Yacute
Encoding: 221 221 157
Width: 525
GlyphClass: 2
Flags: MW
HStem: 0 75<195 221 205 221 304 320> 536 75<54.5 166 64 80 172 172 444 460 444 444> 673 21G<176.5 196> 799 20G<332 344>
VStem: 221 83<75 244 75 244>
LayerCount: 2
Fore
SplineSet
507 573 m 0
 507 537 478 536 460 536 c 2
 444 536 l 1
 304 244 l 1
 304 75 l 1
 320 75 l 2
 340 75 367 74 367 37 c 0
 367 1 338 0 320 0 c 2
 205 0 l 2
 185 0 158 1 158 38 c 0
 158 74 187 75 205 75 c 2
 221 75 l 1
 221 244 l 1
 80 536 l 1
 64 536 l 2
 45 536 17 537 17 574 c 0
 17 610 46 611 64 611 c 2
 166 611 l 2
 183 611 212 610 212 574 c 0
 212 543 194 537 172 536 c 1
 263 333 l 1
 352 536 l 1
 330 537 312 543 312 574 c 0
 312 610 341 611 358 611 c 2
 460 611 l 2
 479 611 507 610 507 573 c 0
374 777 m 0
 374 764 370 749 342 736 c 2
 213 678 l 2
 206 675 200 673 192 673 c 0
 161 673 152 710 152 719 c 0
 152 741 164 748 181 755 c 2
 310 813 l 2
 323 819 332 819 332 819 c 1
 356 819 374 801 374 777 c 0
EndSplineSet
EndChar

StartChar: Thorn
Encoding: 222 222 158
Width: 525
GlyphClass: 2
Flags: MW
HStem: 0 75<58 83 67 83 166 183> 120 75<167 262 262 280 166 262> 417 75<167 262 167 167> 536 75<58 183 67 83 166 166 166 183>
VStem: 83 83<75 120 492 536> 390 82<281.5 330>
LayerCount: 2
Fore
SplineSet
472 306 m 0
 472 211 398 120 280 120 c 2
 166 120 l 1
 166 75 l 1
 183 75 l 2
 202 75 229 74 229 37 c 0
 229 1 201 0 183 0 c 2
 67 0 l 2
 49 0 20 1 20 37 c 0
 20 74 48 75 67 75 c 2
 83 75 l 1
 83 536 l 1
 67 536 l 2
 49 536 20 537 20 573 c 0
 20 610 48 611 67 611 c 2
 183 611 l 2
 202 611 229 610 229 573 c 0
 229 537 201 536 183 536 c 2
 166 536 l 1
 166 492 l 1
 280 492 l 2
 397 492 472 401 472 306 c 0
390 306 m 0
 390 354 350 417 262 417 c 2
 167 417 l 1
 167 195 l 1
 262 195 l 2
 350 195 390 257 390 306 c 0
EndSplineSet
EndChar

StartChar: germandbls
Encoding: 223 223 159
Width: 525
GlyphClass: 2
Flags: MW
HStem: -6 75<308.5 335 308.5 357.5> 0 75<53 107 62 107 62 143> 361 75<53 107 62 107> 542 75<275 314.5>
VStem: 107 83<75 361 361 361 436 489> 203 94<71 81.5 71 90.5> 311 83 386 82<493 512.5> 414 83<143 202 122 204>
LayerCount: 2
Fore
SplineSet
497 178 m 0x02
 497 66 404 -6 311 -6 c 0x8280
 238 -6 203 36 203 75 c 0x44
 203 106 227 124 251 124 c 0
 266 124 280 116 289 105 c 0
 296 95 297 92 297 71 c 1
 301 70 306 69 311 69 c 0
 359 69 414 108 414 178 c 0x8680
 414 230 387 353 261 361 c 1
 261 361 231 367 231 398 c 0
 231 426 250 434 295 438 c 0
 364 448 386 484 386 502 c 0
 386 523 342 542 287 542 c 0
 263 542 240 538 218 529 c 0
 190 516 190 506 190 489 c 2
 190 48 l 2
 190 10 181 0 143 0 c 2
 62 0 l 2
 44 0 15 1 15 37 c 0
 15 74 43 75 62 75 c 2
 107 75 l 1
 107 361 l 1
 62 361 l 2
 44 361 15 362 15 398 c 0
 15 435 43 436 62 436 c 2
 107 436 l 1
 107 496 l 2
 107 591 223 617 288 617 c 0
 387 617 468 570 468 503 c 0x79
 468 474 456 429 394 392 c 1
 483 324 497 226 497 178 c 0x02
EndSplineSet
EndChar

StartChar: agrave
Encoding: 224 224 160
Width: 525
GlyphClass: 2
Flags: MW
HStem: -6 75<194.5 226 194.5 234.5> 0 75<459.5 480.5> 369 75<216 257> 489 21G<329 348.5> 615 20G<181 193>
VStem: 48 82<115.5 155 115.5 180.5>
LayerCount: 2
Fore
SplineSet
521 38 m 0x64
 521 2 497 0 464 0 c 0x40
 427 0 382 2 357 29 c 1
 311 1 252 -6 217 -6 c 0x80
 112 -6 48 62 48 133 c 0
 48 228 167 281 340 285 c 1
 337 344 290 369 224 369 c 0
 208 369 176 366 176 366 c 1
 175 323 142 313 125 313 c 0
 98 313 74 331 74 365 c 0
 74 441 178 444 223 444 c 0
 369 444 423 358 423 286 c 2
 423 81 l 1
 431 78 445 75 474 75 c 0
 492 75 521 74 521 38 c 0x64
339 138 m 2
 339 212 l 1
 209 207 130 177 130 133 c 0
 130 98 167 69 222 69 c 0x84
 230 69 272 69 306 85 c 0
 339 100 339 119 339 138 c 2
373 535 m 0x18
 373 526 364 489 333 489 c 0
 325 489 319 491 312 494 c 2
 183 552 l 2
 155 564 151 580 151 593 c 0
 151 617 169 635 193 635 c 1
 193 635 202 635 215 629 c 2
 344 571 l 2
 361 564 373 557 373 535 c 0x18
EndSplineSet
EndChar

StartChar: aacute
Encoding: 225 225 161
Width: 525
GlyphClass: 2
Flags: MW
HStem: -6 75<194.5 226 194.5 234.5> 0 75<459.5 480.5> 369 75<216 257> 489 21G<176.5 196> 615 20G<332 344>
VStem: 48 82<115.5 155 115.5 180.5>
LayerCount: 2
Fore
SplineSet
521 38 m 0x64
 521 2 497 0 464 0 c 0x40
 427 0 382 2 357 29 c 1
 311 1 252 -6 217 -6 c 0x80
 112 -6 48 62 48 133 c 0
 48 228 167 281 340 285 c 1
 337 344 290 369 224 369 c 0
 208 369 176 366 176 366 c 1
 175 323 142 313 125 313 c 0
 98 313 74 331 74 365 c 0
 74 441 178 444 223 444 c 0
 369 444 423 358 423 286 c 2
 423 81 l 1
 431 78 445 75 474 75 c 0
 492 75 521 74 521 38 c 0x64
339 138 m 2
 339 212 l 1
 209 207 130 177 130 133 c 0
 130 98 167 69 222 69 c 0x84
 230 69 272 69 306 85 c 0
 339 100 339 119 339 138 c 2
374 593 m 0x18
 374 580 370 564 342 552 c 2
 213 494 l 2
 206 491 200 489 192 489 c 0
 161 489 152 526 152 535 c 0
 152 557 164 564 181 571 c 2
 310 629 l 2
 323 635 332 635 332 635 c 1
 356 635 374 617 374 593 c 0x18
EndSplineSet
EndChar

StartChar: acircumflex
Encoding: 226 226 162
Width: 525
GlyphClass: 2
Flags: MW
HStem: -6 75<194.5 226 194.5 234.5> 0 75<459.5 480.5> 369 75<216 257> 488 21G
VStem: 48 82<115.5 155 115.5 180.5>
LayerCount: 2
Fore
SplineSet
521 38 m 0x68
 521 2 497 0 464 0 c 0x40
 427 0 382 2 357 29 c 1
 311 1 252 -6 217 -6 c 0x80
 112 -6 48 62 48 133 c 0
 48 228 167 281 340 285 c 1
 337 344 290 369 224 369 c 0
 208 369 176 366 176 366 c 1
 175 323 142 313 125 313 c 0
 98 313 74 331 74 365 c 0
 74 441 178 444 223 444 c 0
 369 444 423 358 423 286 c 2
 423 81 l 1
 431 78 445 75 474 75 c 0
 492 75 521 74 521 38 c 0x68
339 138 m 2
 339 212 l 1
 209 207 130 177 130 133 c 0
 130 98 167 69 222 69 c 0x88
 230 69 272 69 306 85 c 0
 339 100 339 119 339 138 c 2
413 520 m 0x10
 412 499 400 488 373 488 c 0
 364 488 343 501 330 509 c 2
 262 551 l 1
 194 509 l 2
 183 502 160 488 151 488 c 0
 124 488 112 499 111 520 c 0
 110 543 127 553 156 572 c 2
 246 630 l 2
 256 637 268 637 278 630 c 2
 368 572 l 2
 398 552 414 543 413 520 c 0x10
EndSplineSet
EndChar

StartChar: atilde
Encoding: 227 227 163
Width: 525
GlyphClass: 2
Flags: MW
HStem: -6 75<194.5 226 194.5 234.5> 0 75<459.5 480.5> 369 75<216 257> 496 79<309.5 318 309.5 324> 550 79<208 216.5>
VStem: 48 82<115.5 155 115.5 180.5>
LayerCount: 2
Fore
SplineSet
521 38 m 0x64
 521 2 497 0 464 0 c 0x40
 427 0 382 2 357 29 c 1
 311 1 252 -6 217 -6 c 0x80
 112 -6 48 62 48 133 c 0
 48 228 167 281 340 285 c 1
 337 344 290 369 224 369 c 0
 208 369 176 366 176 366 c 1
 175 323 142 313 125 313 c 0
 98 313 74 331 74 365 c 0
 74 441 178 444 223 444 c 0
 369 444 423 358 423 286 c 2
 423 81 l 1
 431 78 445 75 474 75 c 0
 492 75 521 74 521 38 c 0x64
339 138 m 2
 339 212 l 1
 209 207 130 177 130 133 c 0
 130 98 167 69 222 69 c 0x84
 230 69 272 69 306 85 c 0
 339 100 339 119 339 138 c 2
441 590 m 0x08
 441 571 412 546 390 530 c 0
 367 513 338 496 310 496 c 0x10
 274 496 253 518 239 532 c 0
 228 542 219 550 214 550 c 0x08
 202 550 179 535 151 509 c 0
 143 502 136 496 123 496 c 0x10
 103 496 85 516 85 535 c 0
 85 555 114 579 136 595 c 0
 159 613 188 629 216 629 c 0x08
 252 629 273 607 287 594 c 0
 298 584 307 575 312 575 c 0x10
 324 575 347 591 375 616 c 0
 383 623 390 629 403 629 c 0
 423 629 441 609 441 590 c 0x08
EndSplineSet
EndChar

StartChar: adieresis
Encoding: 228 228 164
Width: 525
GlyphClass: 2
Flags: MW
HStem: -6 75<194.5 226 194.5 234.5> 0 75<459.5 480.5> 369 75<216 257> 511 103<165.5 194.5 330.5 359.5>
VStem: 48 82<115.5 155 115.5 180.5> 128 104<548.5 577.5> 293 104<548.5 577.5>
LayerCount: 2
Fore
SplineSet
521 38 m 0x68
 521 2 497 0 464 0 c 0x40
 427 0 382 2 357 29 c 1
 311 1 252 -6 217 -6 c 0x80
 112 -6 48 62 48 133 c 0
 48 228 167 281 340 285 c 1
 337 344 290 369 224 369 c 0
 208 369 176 366 176 366 c 1
 175 323 142 313 125 313 c 0
 98 313 74 331 74 365 c 0
 74 441 178 444 223 444 c 0
 369 444 423 358 423 286 c 2
 423 81 l 1
 431 78 445 75 474 75 c 0
 492 75 521 74 521 38 c 0x68
339 138 m 2
 339 212 l 1
 209 207 130 177 130 133 c 0
 130 98 167 69 222 69 c 0x88
 230 69 272 69 306 85 c 0
 339 100 339 119 339 138 c 2
232 563 m 0x16
 232 534 209 511 180 511 c 0
 151 511 128 534 128 563 c 0
 128 592 151 614 180 614 c 0
 209 614 232 592 232 563 c 0x16
397 563 m 0
 397 534 374 511 345 511 c 0
 316 511 293 534 293 563 c 0
 293 592 316 614 345 614 c 0
 374 614 397 592 397 563 c 0
EndSplineSet
EndChar

StartChar: aring
Encoding: 229 229 165
Width: 525
GlyphClass: 2
Flags: MW
HStem: -6 75<194.5 226 194.5 234.5> 0 75<459.5 480.5> 369 75<216 257> 505 47<255.5 270.5 255.5 288.5> 592 47<255.5 270.5>
VStem: 48 82<115.5 155 115.5 180.5> 176 56<566 578 566 589.5> 294 56<566 578>
LayerCount: 2
Fore
SplineSet
521 38 m 0x66
 521 2 497 0 464 0 c 0x40
 427 0 382 2 357 29 c 1
 311 1 252 -6 217 -6 c 0x80
 112 -6 48 62 48 133 c 0
 48 228 167 281 340 285 c 1
 337 344 290 369 224 369 c 0
 208 369 176 366 176 366 c 1
 175 323 142 313 125 313 c 0
 98 313 74 331 74 365 c 0
 74 441 178 444 223 444 c 0
 369 444 423 358 423 286 c 2
 423 81 l 1
 431 78 445 75 474 75 c 0
 492 75 521 74 521 38 c 0x66
339 138 m 2
 339 212 l 1
 209 207 130 177 130 133 c 0
 130 98 167 69 222 69 c 0x84
 230 69 272 69 306 85 c 0
 339 100 339 119 339 138 c 2
294 572 m 0x1b
 294 584 278 592 263 592 c 0
 248 592 232 584 232 572 c 0
 232 560 248 552 263 552 c 0
 278 552 294 560 294 572 c 0x1b
350 573 m 0
 350 538 314 505 263 505 c 0
 212 505 176 538 176 573 c 0
 176 606 212 639 263 639 c 0
 314 639 350 606 350 573 c 0
EndSplineSet
EndChar

StartChar: ae
Encoding: 230 230 166
Width: 525
GlyphClass: 2
Flags: MW
HStem: -6 75<135.5 156 135.5 174 371.5 398.5> 186 74<303 437 303 459 300 437> 369 75<154 179.5 360.5 392>
VStem: 31 68<111 142.5 111 164> 391 68
LayerCount: 2
Fore
SplineSet
506 114 m 0
 506 93 475 -6 386 -6 c 0
 331 -6 292 36 276 56 c 1
 248 16 198 -6 150 -6 c 0
 75 -6 31 61 31 123 c 0
 31 205 117 254 227 257 c 1
 227 282 l 2
 227 338 202 369 157 369 c 0
 151 369 147 368 140 364 c 1
 137 316 99 313 90 313 c 0
 62 313 38 331 38 365 c 0
 38 400 63 444 160 444 c 0
 211 444 247 420 272 381 c 1
 302 427 343 444 376 444 c 0
 450 444 506 370 506 235 c 0
 506 199 501 186 459 186 c 2
 300 186 l 1
 310 113 352 69 391 69 c 0
 406 69 421 80 430 102 c 0
 438 127 446 149 471 149 c 0
 491 149 506 133 506 114 c 0
437 260 m 1
 431 341 405 369 379 369 c 0
 342 369 310 315 303 260 c 1
 437 260 l 1
224 184 m 1
 156 180 99 161 99 124 c 0
 99 98 118 69 153 69 c 0
 159 69 184 71 205 88 c 0
 223 103 223 122 223 138 c 2
 224 184 l 1
EndSplineSet
EndChar

StartChar: ccedilla
Encoding: 231 231 167
Width: 525
GlyphClass: 2
Flags: MW
HStem: -203 76<214.5 253 214.5 256> -6 75 368 76<217.5 355> 369 75<241.5 304>
VStem: 70 83<176 240.5 176 262.5> 153 83 304 83 355 102<368 368> 362 82<-111 -87> 387 82
LayerCount: 2
Fore
SplineSet
469 114 m 0x4840
 469 99 446 27 358 3 c 1
 420 -15 444 -58 444 -95 c 0
 444 -199 304 -203 208 -203 c 0
 189 -203 170 -193 170 -165 c 0
 170 -130 193 -127 236 -127 c 0
 270 -127 362 -127 362 -95 c 0x8480
 362 -79 341 -66 304 -64 c 0
 266 -62 265 -39 265 -16 c 2
 265 -4 l 1
 152 9 70 106 70 218 c 0
 70 307 131 444 304 444 c 0x1a
 351 444 457 441 457 365 c 0
 457 332 433 313 405 313 c 0
 378 313 356 328 355 368 c 1x21
 304 369 l 2x12
 179 369 153 263 153 218 c 0
 153 134 220 69 298 69 c 0
 362 69 382 111 387 123 c 0
 396 147 408 149 427 149 c 0
 434 149 469 148 469 114 c 0x4840
EndSplineSet
EndChar

StartChar: egrave
Encoding: 232 232 168
Width: 525
GlyphClass: 2
Flags: MW
HStem: -6 75<257.5 303.5 257.5 352> 186 74<140 381 140 420 139 381> 369 75<239 293> 489 21G<329 348.5> 615 20G<181 193>
LayerCount: 2
Fore
SplineSet
467 114 m 0
 467 88 420 -6 284 -6 c 0
 154 -6 52 96 52 219 c 0
 52 343 150 444 270 444 c 0
 401 444 467 345 467 230 c 0
 467 186 445 186 420 186 c 2
 139 186 l 1
 157 112 224 69 291 69 c 0
 316 69 365 77 385 123 c 0
 394 145 403 149 425 149 c 0
 432 149 467 148 467 114 c 0
381 260 m 1
 370 347 316 369 270 369 c 0
 208 369 156 323 140 260 c 1
 381 260 l 1
373 535 m 0
 373 526 364 489 333 489 c 0
 325 489 319 491 312 494 c 2
 183 552 l 2
 155 564 151 580 151 593 c 0
 151 617 169 635 193 635 c 1
 193 635 202 635 215 629 c 2
 344 571 l 2
 361 564 373 557 373 535 c 0
EndSplineSet
EndChar

StartChar: eacute
Encoding: 233 233 169
Width: 525
GlyphClass: 2
Flags: MW
HStem: -6 75<257.5 303.5 257.5 352> 186 74<140 381 140 420 139 381> 369 75<239 293> 489 21G<176.5 196> 615 20G<332 344>
LayerCount: 2
Fore
SplineSet
467 114 m 0
 467 88 420 -6 284 -6 c 0
 154 -6 52 96 52 219 c 0
 52 343 150 444 270 444 c 0
 401 444 467 345 467 230 c 0
 467 186 445 186 420 186 c 2
 139 186 l 1
 157 112 224 69 291 69 c 0
 316 69 365 77 385 123 c 0
 394 145 403 149 425 149 c 0
 432 149 467 148 467 114 c 0
381 260 m 1
 370 347 316 369 270 369 c 0
 208 369 156 323 140 260 c 1
 381 260 l 1
374 593 m 0
 374 580 370 564 342 552 c 2
 213 494 l 2
 206 491 200 489 192 489 c 0
 161 489 152 526 152 535 c 0
 152 557 164 564 181 571 c 2
 310 629 l 2
 323 635 332 635 332 635 c 1
 356 635 374 617 374 593 c 0
EndSplineSet
EndChar

StartChar: ecircumflex
Encoding: 234 234 170
Width: 525
GlyphClass: 2
Flags: MW
HStem: -6 75<257.5 303.5 257.5 352> 186 74<140 381 140 420 139 381> 369 75<239 293> 488 21G
LayerCount: 2
Fore
SplineSet
467 114 m 0
 467 88 420 -6 284 -6 c 0
 154 -6 52 96 52 219 c 0
 52 343 150 444 270 444 c 0
 401 444 467 345 467 230 c 0
 467 186 445 186 420 186 c 2
 139 186 l 1
 157 112 224 69 291 69 c 0
 316 69 365 77 385 123 c 0
 394 145 403 149 425 149 c 0
 432 149 467 148 467 114 c 0
381 260 m 1
 370 347 316 369 270 369 c 0
 208 369 156 323 140 260 c 1
 381 260 l 1
413 520 m 0
 412 499 400 488 373 488 c 0
 364 488 343 501 330 509 c 2
 262 551 l 1
 194 509 l 2
 183 502 160 488 151 488 c 0
 124 488 112 499 111 520 c 0
 110 543 127 553 156 572 c 2
 246 630 l 2
 256 637 268 637 278 630 c 2
 368 572 l 2
 398 552 414 543 413 520 c 0
EndSplineSet
EndChar

StartChar: edieresis
Encoding: 235 235 171
Width: 525
GlyphClass: 2
Flags: MW
HStem: -6 75<257.5 303.5 257.5 352> 186 74<140 381 140 420 139 381> 369 75<239 293> 511 103<165.5 194.5 330.5 359.5>
VStem: 128 104<548.5 577.5> 293 104<548.5 577.5>
LayerCount: 2
Fore
SplineSet
467 114 m 0
 467 88 420 -6 284 -6 c 0
 154 -6 52 96 52 219 c 0
 52 343 150 444 270 444 c 0
 401 444 467 345 467 230 c 0
 467 186 445 186 420 186 c 2
 139 186 l 1
 157 112 224 69 291 69 c 0
 316 69 365 77 385 123 c 0
 394 145 403 149 425 149 c 0
 432 149 467 148 467 114 c 0
381 260 m 1
 370 347 316 369 270 369 c 0
 208 369 156 323 140 260 c 1
 381 260 l 1
232 563 m 0
 232 534 209 511 180 511 c 0
 151 511 128 534 128 563 c 0
 128 592 151 614 180 614 c 0
 209 614 232 592 232 563 c 0
397 563 m 0
 397 534 374 511 345 511 c 0
 316 511 293 534 293 563 c 0
 293 592 316 614 345 614 c 0
 374 614 397 592 397 563 c 0
EndSplineSet
EndChar

StartChar: igrave
Encoding: 236 236 172
Width: 525
GlyphClass: 2
Flags: MW
HStem: 0 75<114 233 123 233 316 410> 361 75<122 269 131 233> 476 21G<329 348.5> 602 20G<181 193>
VStem: 233 83<75 361 361 361>
LayerCount: 2
Fore
SplineSet
458 37 m 0
 458 1 428 0 410 0 c 2
 123 0 l 2
 105 0 75 1 75 37 c 0
 75 74 104 75 123 75 c 2
 233 75 l 1
 233 361 l 1
 131 361 l 2
 113 361 83 362 83 399 c 0
 83 434 113 436 131 436 c 2
 269 436 l 2
 309 436 316 424 316 388 c 2
 316 75 l 1
 410 75 l 2
 428 75 458 74 458 37 c 0
373 522 m 0
 373 513 364 476 333 476 c 0
 325 476 319 478 312 481 c 2
 183 539 l 2
 155 551 151 567 151 580 c 0
 151 604 169 622 193 622 c 1
 193 622 202 622 215 616 c 2
 344 558 l 2
 361 551 373 544 373 522 c 0
EndSplineSet
EndChar

StartChar: iacute
Encoding: 237 237 173
Width: 525
GlyphClass: 2
Flags: MW
HStem: 0 75<114 233 123 233 316 410> 361 75<122 269 131 233> 476 21G<176.5 196> 602 20G<332 344>
VStem: 233 83<75 361 361 361>
LayerCount: 2
Fore
SplineSet
458 37 m 0
 458 1 428 0 410 0 c 2
 123 0 l 2
 105 0 75 1 75 37 c 0
 75 74 104 75 123 75 c 2
 233 75 l 1
 233 361 l 1
 131 361 l 2
 113 361 83 362 83 399 c 0
 83 434 113 436 131 436 c 2
 269 436 l 2
 309 436 316 424 316 388 c 2
 316 75 l 1
 410 75 l 2
 428 75 458 74 458 37 c 0
374 580 m 0
 374 567 370 551 342 539 c 2
 213 481 l 2
 206 478 200 476 192 476 c 0
 161 476 152 513 152 522 c 0
 152 544 164 551 181 558 c 2
 310 616 l 2
 323 622 332 622 332 622 c 1
 356 622 374 604 374 580 c 0
EndSplineSet
EndChar

StartChar: icircumflex
Encoding: 238 238 174
Width: 525
GlyphClass: 2
Flags: MW
HStem: 0 75<114 233 123 233 316 410> 361 75<122 269 131 233> 475 21G
VStem: 233 83<75 361 361 361>
LayerCount: 2
Fore
SplineSet
458 37 m 0
 458 1 428 0 410 0 c 2
 123 0 l 2
 105 0 75 1 75 37 c 0
 75 74 104 75 123 75 c 2
 233 75 l 1
 233 361 l 1
 131 361 l 2
 113 361 83 362 83 399 c 0
 83 434 113 436 131 436 c 2
 269 436 l 2
 309 436 316 424 316 388 c 2
 316 75 l 1
 410 75 l 2
 428 75 458 74 458 37 c 0
413 507 m 0
 412 486 400 475 373 475 c 0
 364 475 343 488 330 496 c 2
 262 538 l 1
 194 496 l 2
 183 489 160 475 151 475 c 0
 124 475 112 486 111 507 c 0
 110 530 127 540 156 559 c 2
 246 617 l 2
 256 624 268 624 278 617 c 2
 368 559 l 2
 398 539 414 530 413 507 c 0
EndSplineSet
EndChar

StartChar: idieresis
Encoding: 239 239 175
Width: 525
GlyphClass: 2
Flags: MW
HStem: 0 75<114 233 123 233 316 410> 361 75<122 269 131 233> 498 103<165.5 194.5 330.5 359.5>
VStem: 128 104<535.5 564.5> 233 83<75 361 361 361> 293 104<535.5 564.5>
LayerCount: 2
Fore
SplineSet
458 37 m 0xc8
 458 1 428 0 410 0 c 2
 123 0 l 2
 105 0 75 1 75 37 c 0
 75 74 104 75 123 75 c 2
 233 75 l 1
 233 361 l 1
 131 361 l 2
 113 361 83 362 83 399 c 0
 83 434 113 436 131 436 c 2
 269 436 l 2
 309 436 316 424 316 388 c 2
 316 75 l 1
 410 75 l 2
 428 75 458 74 458 37 c 0xc8
232 550 m 0x34
 232 521 209 498 180 498 c 0
 151 498 128 521 128 550 c 0
 128 579 151 601 180 601 c 0
 209 601 232 579 232 550 c 0x34
397 550 m 0
 397 521 374 498 345 498 c 0
 316 498 293 521 293 550 c 0
 293 579 316 601 345 601 c 0
 374 601 397 579 397 550 c 0
EndSplineSet
EndChar

StartChar: eth
Encoding: 240 240 176
Width: 525
GlyphClass: 2
Flags: MW
HStem: -6 75<228 290> 369 75<229.5 274.5 205.5 295> 601 20G<333 347.5>
VStem: 54 83<182 267 182 281.5> 387 83<188.5 218 218 267>
LayerCount: 2
Fore
SplineSet
470 218 m 2
 470 159 448 101 408 59 c 0
 369 18 318 -6 262 -6 c 0
 151 -6 54 90 54 218 c 0
 54 345 149 444 262 444 c 0
 287 444 311 439 333 430 c 1
 313 458 288 482 258 500 c 1
 183 460 l 2
 176 457 169 455 162 455 c 0
 140 455 124 471 124 491 c 0
 124 506 134 521 147 528 c 2
 165 537 l 1
 151 539 138 541 124 541 c 0
 101 542 83 558 83 579 c 0
 83 600 102 617 126 617 c 0
 174 616 219 605 260 587 c 1
 316 616 l 2
 322 620 329 621 337 621 c 0
 358 621 374 606 374 586 c 0
 374 570 365 556 351 549 c 2
 337 541 l 1
 418 478 470 379 470 268 c 2
 470 218 l 2
387 225 m 0
 387 309 328 369 262 369 c 0
 197 369 137 309 137 225 c 0
 137 139 194 69 262 69 c 0
 330 69 387 139 387 225 c 0
EndSplineSet
EndChar

StartChar: ntilde
Encoding: 241 241 177
Width: 525
GlyphClass: 2
Flags: MW
HStem: 0 75<49 93 58 93 176 211 211 212 318 348 431 466 466 467> 361 75<49 129 58 93> 366 75<268 313.5> 483 79<309.5 318 309.5 324> 537 79<208 216.5>
VStem: 93 83<75 240 75 361> 129 83 176 83<19 240 19 75> 348 83<75 288 288 293 75 314.5>
LayerCount: 2
Fore
SplineSet
513 37 m 0xa480
 513 1 483 0 467 0 c 2
 318 0 l 2
 301 0 270 1 270 37 c 0
 270 74 299 75 318 75 c 2
 348 75 l 1
 348 288 l 2
 348 341 337 366 290 366 c 0
 244 366 176 331 176 240 c 2
 176 75 l 1
 211 75 l 2
 230 75 259 74 259 37 c 0xa180
 259 1 229 0 212 0 c 2x82
 57 0 l 2
 41 0 11 1 11 37 c 0
 11 74 39 75 58 75 c 2
 93 75 l 1
 93 361 l 1xc4
 57 361 l 2
 41 361 11 362 11 398 c 0
 11 434 39 436 58 436 c 2
 129 436 l 2x42
 168 436 175 424 176 399 c 1
 200 418 240 441 296 441 c 0
 378 441 431 397 431 293 c 2
 431 75 l 1
 466 75 l 2
 485 75 513 74 513 37 c 0xa480
441 577 m 0x08
 441 558 412 533 390 517 c 0
 367 500 338 483 310 483 c 0x10
 274 483 253 505 239 519 c 0
 228 529 219 537 214 537 c 0x08
 202 537 179 522 151 496 c 0
 143 489 136 483 123 483 c 0x10
 103 483 85 503 85 522 c 0
 85 542 114 566 136 582 c 0
 159 600 188 616 216 616 c 0x08
 252 616 273 594 287 581 c 0
 298 571 307 562 312 562 c 0x10
 324 562 347 578 375 603 c 0
 383 610 390 616 403 616 c 0
 423 616 441 596 441 577 c 0x08
EndSplineSet
EndChar

StartChar: ograve
Encoding: 242 242 178
Width: 525
GlyphClass: 2
Flags: MW
HStem: -6 75<228 296 228 317.5> 369 75<229.5 295> 489 21G<329 348.5> 615 20G<181 193>
VStem: 54 83<182 267 182 281.5> 387 83<182 267>
LayerCount: 2
Fore
SplineSet
470 218 m 0
 470 91 373 -6 262 -6 c 0
 151 -6 54 90 54 218 c 0
 54 345 149 444 262 444 c 0
 375 444 470 345 470 218 c 0
387 225 m 0
 387 309 328 369 262 369 c 0
 197 369 137 309 137 225 c 0
 137 139 194 69 262 69 c 0
 330 69 387 139 387 225 c 0
373 535 m 0
 373 526 364 489 333 489 c 0
 325 489 319 491 312 494 c 2
 183 552 l 2
 155 564 151 580 151 593 c 0
 151 617 169 635 193 635 c 1
 193 635 202 635 215 629 c 2
 344 571 l 2
 361 564 373 557 373 535 c 0
EndSplineSet
EndChar

StartChar: oacute
Encoding: 243 243 179
Width: 525
GlyphClass: 2
Flags: MW
HStem: -6 75<228 296 228 317.5> 369 75<229.5 295> 489 21G<176.5 196> 615 20G<332 344>
VStem: 54 83<182 267 182 281.5> 387 83<182 267>
LayerCount: 2
Fore
SplineSet
470 218 m 0
 470 91 373 -6 262 -6 c 0
 151 -6 54 90 54 218 c 0
 54 345 149 444 262 444 c 0
 375 444 470 345 470 218 c 0
387 225 m 0
 387 309 328 369 262 369 c 0
 197 369 137 309 137 225 c 0
 137 139 194 69 262 69 c 0
 330 69 387 139 387 225 c 0
374 593 m 0
 374 580 370 564 342 552 c 2
 213 494 l 2
 206 491 200 489 192 489 c 0
 161 489 152 526 152 535 c 0
 152 557 164 564 181 571 c 2
 310 629 l 2
 323 635 332 635 332 635 c 1
 356 635 374 617 374 593 c 0
EndSplineSet
EndChar

StartChar: ocircumflex
Encoding: 244 244 180
Width: 525
GlyphClass: 2
Flags: MW
HStem: -6 75<228 296 228 317.5> 369 75<229.5 295> 488 21G
VStem: 54 83<182 267 182 281.5> 387 83<182 267>
LayerCount: 2
Fore
SplineSet
470 218 m 0
 470 91 373 -6 262 -6 c 0
 151 -6 54 90 54 218 c 0
 54 345 149 444 262 444 c 0
 375 444 470 345 470 218 c 0
387 225 m 0
 387 309 328 369 262 369 c 0
 197 369 137 309 137 225 c 0
 137 139 194 69 262 69 c 0
 330 69 387 139 387 225 c 0
413 520 m 0
 412 499 400 488 373 488 c 0
 364 488 343 501 330 509 c 2
 262 551 l 1
 194 509 l 2
 183 502 160 488 151 488 c 0
 124 488 112 499 111 520 c 0
 110 543 127 553 156 572 c 2
 246 630 l 2
 256 637 268 637 278 630 c 2
 368 572 l 2
 398 552 414 543 413 520 c 0
EndSplineSet
EndChar

StartChar: otilde
Encoding: 245 245 181
Width: 525
GlyphClass: 2
Flags: MW
HStem: -6 75<228 296 228 317.5> 369 75<229.5 295> 496 79<309.5 318 309.5 324> 550 79<208 216.5>
VStem: 54 83<182 267 182 281.5> 387 83<182 267>
LayerCount: 2
Fore
SplineSet
470 218 m 0xcc
 470 91 373 -6 262 -6 c 0
 151 -6 54 90 54 218 c 0
 54 345 149 444 262 444 c 0
 375 444 470 345 470 218 c 0xcc
387 225 m 0
 387 309 328 369 262 369 c 0
 197 369 137 309 137 225 c 0
 137 139 194 69 262 69 c 0
 330 69 387 139 387 225 c 0
441 590 m 0x10
 441 571 412 546 390 530 c 0
 367 513 338 496 310 496 c 0x20
 274 496 253 518 239 532 c 0
 228 542 219 550 214 550 c 0x10
 202 550 179 535 151 509 c 0
 143 502 136 496 123 496 c 0x20
 103 496 85 516 85 535 c 0
 85 555 114 579 136 595 c 0
 159 613 188 629 216 629 c 0x10
 252 629 273 607 287 594 c 0
 298 584 307 575 312 575 c 0x20
 324 575 347 591 375 616 c 0
 383 623 390 629 403 629 c 0
 423 629 441 609 441 590 c 0x10
EndSplineSet
EndChar

StartChar: odieresis
Encoding: 246 246 182
Width: 525
GlyphClass: 2
Flags: MW
HStem: -6 75<228 296 228 317.5> 369 75<229.5 295> 511 103<165.5 194.5 330.5 359.5>
VStem: 54 83<182 267 182 281.5> 128 104<548.5 577.5> 293 104<548.5 577.5> 387 83<182 267>
LayerCount: 2
Fore
SplineSet
470 218 m 0xd2
 470 91 373 -6 262 -6 c 0
 151 -6 54 90 54 218 c 0
 54 345 149 444 262 444 c 0
 375 444 470 345 470 218 c 0xd2
387 225 m 0
 387 309 328 369 262 369 c 0
 197 369 137 309 137 225 c 0
 137 139 194 69 262 69 c 0
 330 69 387 139 387 225 c 0
232 563 m 0x2c
 232 534 209 511 180 511 c 0
 151 511 128 534 128 563 c 0
 128 592 151 614 180 614 c 0
 209 614 232 592 232 563 c 0x2c
397 563 m 0
 397 534 374 511 345 511 c 0
 316 511 293 534 293 563 c 0
 293 592 316 614 345 614 c 0
 374 614 397 592 397 563 c 0
EndSplineSet
EndChar

StartChar: divide
Encoding: 247 247 183
Width: 525
GlyphClass: 2
Flags: MW
HStem: 30 138<243.5 279.5 241 282> 168 138 264 84<81 431 93 431 431 436> 443 138<243.5 279.5 241 282>
VStem: 193 137<81 116 495 530>
LayerCount: 2
Fore
SplineSet
488 306 m 0x20
 488 265 450 264 436 264 c 2
 88 264 l 2x20
 74 264 36 265 36 306 c 0x40
 36 346 77 348 93 348 c 2
 431 348 l 2
 447 348 488 346 488 306 c 0x20
330 512 m 0
 330 478 303 443 261 443 c 0
 226 443 193 472 193 513 c 0
 193 547 220 581 262 581 c 0
 297 581 330 552 330 512 c 0
330 98 m 0
 330 64 303 30 261 30 c 0x88
 226 30 193 59 193 99 c 0
 193 133 220 168 262 168 c 0
 297 168 330 139 330 98 c 0
EndSplineSet
EndChar

StartChar: oslash
Encoding: 248 248 184
Width: 525
GlyphClass: 2
Flags: MW
HStem: -136 21G<72.5 89.5> -6 75<253.5 304 253 321.5> 369 75<220 271.5> 552 20G<434.5 451.5>
VStem: 41 71 113 71 341 71 412 71
LayerCount: 2
Fore
SplineSet
483 535 m 0xfe
 483 532 483 524 475 511 c 2
 405 389 l 1
 452 344 481 284 481 218 c 0
 481 93 381 -6 262 -6 c 0
 245 -6 216 -4 184 9 c 1
 113 -114 l 2
 108 -124 99 -136 80 -136 c 0
 65 -136 41 -124 41 -99 c 0
 41 -91 51 -71 58 -58 c 2
 120 47 l 1
 64 98 43 161 43 218 c 0
 43 341 140 444 262 444 c 0
 298 444 324 436 341 429 c 1
 411 550 l 2
 417 560 425 572 444 572 c 0
 459 572 483 560 483 535 c 0xfe
412 218 m 0
 412 250 402 291 369 325 c 1
 224 74 l 1
 236 70 243 69 263 69 c 0
 345 69 412 135 412 218 c 0
302 364 m 1
 289 368 282 369 261 369 c 0
 179 369 112 302 112 218 c 0
 112 188 121 148 156 112 c 1
 302 364 l 1
EndSplineSet
EndChar

StartChar: ugrave
Encoding: 249 249 185
Width: 525
GlyphClass: 2
Flags: MW
HStem: -6 75<211 258.5> 0 75<385.5 467 431 466> 361 75<49 129 58 93 313 348> 476 21G<329 348.5> 602 20G<181 193>
VStem: 93 83<119 125 125 361 361 361> 265 83<161 416> 312 83 348 83<161 361 361 361> 384 83
LayerCount: 2
Fore
SplineSet
513 38 m 0x4040
 513 1 485 0 466 0 c 2
 395 0 l 2x41
 376 0 356 1 349 25 c 1
 315 3 277 -6 240 -6 c 0
 164 -6 93 20 93 119 c 2
 93 361 l 1
 57 361 l 2
 41 361 11 362 11 398 c 0
 11 434 39 436 58 436 c 2
 129 436 l 2
 169 436 176 424 176 388 c 2
 176 125 l 2
 176 97 177 69 245 69 c 0
 274 69 348 80 348 161 c 2
 348 361 l 1xa480
 312 361 l 2x21
 295 361 265 362 265 398 c 0
 265 434 294 436 313 436 c 2
 384 436 l 2x2240
 423 436 431 424 431 388 c 2
 431 75 l 1x4080
 467 75 l 2
 483 75 513 74 513 38 c 0x4040
373 522 m 0x19
 373 513 364 476 333 476 c 0
 325 476 319 478 312 481 c 2
 183 539 l 2
 155 551 151 567 151 580 c 0
 151 604 169 622 193 622 c 1
 193 622 202 622 215 616 c 2
 344 558 l 2
 361 551 373 544 373 522 c 0x19
EndSplineSet
EndChar

StartChar: uacute
Encoding: 250 250 186
Width: 525
GlyphClass: 2
Flags: MW
HStem: -6 75<211 258.5> 0 75<385.5 467 431 466> 361 75<49 129 58 93 313 348> 476 21G<176.5 196> 602 20G<332 344>
VStem: 93 83<119 125 125 361 361 361> 265 83<161 416> 312 83 348 83<161 361 361 361> 384 83
LayerCount: 2
Fore
SplineSet
513 38 m 0x4040
 513 1 485 0 466 0 c 2
 395 0 l 2x41
 376 0 356 1 349 25 c 1
 315 3 277 -6 240 -6 c 0
 164 -6 93 20 93 119 c 2
 93 361 l 1
 57 361 l 2
 41 361 11 362 11 398 c 0
 11 434 39 436 58 436 c 2
 129 436 l 2
 169 436 176 424 176 388 c 2
 176 125 l 2
 176 97 177 69 245 69 c 0
 274 69 348 80 348 161 c 2
 348 361 l 1xa480
 312 361 l 2x21
 295 361 265 362 265 398 c 0
 265 434 294 436 313 436 c 2
 384 436 l 2x2240
 423 436 431 424 431 388 c 2
 431 75 l 1x4080
 467 75 l 2
 483 75 513 74 513 38 c 0x4040
374 580 m 0x18
 374 567 370 551 342 539 c 2
 213 481 l 2
 206 478 200 476 192 476 c 0
 161 476 152 513 152 522 c 0
 152 544 164 551 181 558 c 2
 310 616 l 2
 323 622 332 622 332 622 c 1
 356 622 374 604 374 580 c 0x18
EndSplineSet
EndChar

StartChar: ucircumflex
Encoding: 251 251 187
Width: 525
GlyphClass: 2
Flags: MW
HStem: -6 75<211 258.5> 0 75<385.5 467 431 466> 361 75<49 129 58 93 313 348> 475 21G
VStem: 93 83<119 125 125 361 361 361> 265 83<161 416> 312 83 348 83<161 361 361 361> 384 83
LayerCount: 2
Fore
SplineSet
513 38 m 0x4080
 513 1 485 0 466 0 c 2
 395 0 l 2x42
 376 0 356 1 349 25 c 1
 315 3 277 -6 240 -6 c 0
 164 -6 93 20 93 119 c 2
 93 361 l 1
 57 361 l 2
 41 361 11 362 11 398 c 0
 11 434 39 436 58 436 c 2
 129 436 l 2
 169 436 176 424 176 388 c 2
 176 125 l 2
 176 97 177 69 245 69 c 0
 274 69 348 80 348 161 c 2
 348 361 l 1xa9
 312 361 l 2x22
 295 361 265 362 265 398 c 0
 265 434 294 436 313 436 c 2
 384 436 l 2x2480
 423 436 431 424 431 388 c 2
 431 75 l 1x41
 467 75 l 2
 483 75 513 74 513 38 c 0x4080
413 507 m 0x10
 412 486 400 475 373 475 c 0
 364 475 343 488 330 496 c 2
 262 538 l 1
 194 496 l 2
 183 489 160 475 151 475 c 0
 124 475 112 486 111 507 c 0
 110 530 127 540 156 559 c 2
 246 617 l 2
 256 624 268 624 278 617 c 2
 368 559 l 2
 398 539 414 530 413 507 c 0x10
EndSplineSet
EndChar

StartChar: udieresis
Encoding: 252 252 188
Width: 525
GlyphClass: 2
Flags: MW
HStem: -6 75<211 258.5> 0 75<385.5 467 431 466> 361 75<49 129 58 93 313 348> 498 103<165.5 194.5 330.5 359.5>
VStem: 93 83<119 125 125 361 361 361> 128 104<535.5 564.5> 265 83<161 416> 293 104<535.5 564.5> 312 83 348 83<161 361 361 361> 384 83
LayerCount: 2
Fore
SplineSet
513 38 m 0x4020
 513 1 485 0 466 0 c 2
 395 0 l 2x4080
 376 0 356 1 349 25 c 1
 315 3 277 -6 240 -6 c 0
 164 -6 93 20 93 119 c 2
 93 361 l 1
 57 361 l 2
 41 361 11 362 11 398 c 0
 11 434 39 436 58 436 c 2
 129 436 l 2
 169 436 176 424 176 388 c 2
 176 125 l 2
 176 97 177 69 245 69 c 0
 274 69 348 80 348 161 c 2
 348 361 l 1xa840
 312 361 l 2x2080
 295 361 265 362 265 398 c 0
 265 434 294 436 313 436 c 2
 384 436 l 2x2220
 423 436 431 424 431 388 c 2
 431 75 l 1x4040
 467 75 l 2
 483 75 513 74 513 38 c 0x4020
232 550 m 0x15
 232 521 209 498 180 498 c 0
 151 498 128 521 128 550 c 0
 128 579 151 601 180 601 c 0
 209 601 232 579 232 550 c 0x15
397 550 m 0
 397 521 374 498 345 498 c 0
 316 498 293 521 293 550 c 0
 293 579 316 601 345 601 c 0
 374 601 397 579 397 550 c 0
EndSplineSet
EndChar

StartChar: yacute
Encoding: 253 253 189
Width: 525
GlyphClass: 2
Flags: MW
HStem: -222 66<130 139.5 130 179> -222 138<103 105.5 75.5 179> 361 75<62 185 71 96 172 172 172 185 341 357 431 455 431 431> 476 21G<176.5 196> 602 20G<332 344>
VStem: 41 100<-141.5 -119.5 -141.5 -119.5>
LayerCount: 2
Fore
SplineSet
502 398 m 0xa4
 502 362 473 361 455 361 c 2
 431 361 l 1
 282 -78 l 2
 278 -89 229 -222 129 -222 c 0
 77 -222 41 -179 41 -134 c 0
 41 -105 60 -84 91 -84 c 0x64
 120 -84 141 -105 141 -134 c 0
 141 -149 131 -152 130 -156 c 1
 149 -156 180 -133 200 -95 c 0
 211 -73 232 -3 236 8 c 1
 96 361 l 1
 71 361 l 2
 53 361 24 362 24 398 c 0
 24 435 52 436 71 436 c 2
 185 436 l 2
 204 436 232 435 232 398 c 0
 232 362 203 361 185 361 c 2
 172 361 l 1
 271 100 l 1
 357 361 l 1
 341 361 l 2
 322 361 294 362 294 399 c 0
 294 434 323 436 341 436 c 2
 455 436 l 2
 474 436 502 435 502 398 c 0xa4
374 580 m 0x18
 374 567 370 551 342 539 c 2
 213 481 l 2
 206 478 200 476 192 476 c 0
 161 476 152 513 152 522 c 0
 152 544 164 551 181 558 c 2
 310 616 l 2
 323 622 332 622 332 622 c 1
 356 622 374 604 374 580 c 0x18
EndSplineSet
EndChar

StartChar: thorn
Encoding: 254 254 190
Width: 525
GlyphClass: 2
Flags: MW
HStem: -216 75<48.5 93 58 93 176 211 211 212> -6 75<266.5 311.5 243.5 336> 366 75<270.5 321> 536 75<48.5 129 58 93>
VStem: 93 84<172 194 194 265 172 536> 129 82 177 82 408 82<174 258>
LayerCount: 2
Fore
SplineSet
490 218 m 0x34
 490 90 391 -6 281 -6 c 0
 252 -6 214 1 176 34 c 1
 176 -141 l 1
 211 -141 l 2xc5
 230 -141 259 -142 259 -179 c 0x02
 259 -215 229 -216 212 -216 c 2
 57 -216 l 2
 40 -216 10 -215 10 -179 c 0
 10 -142 39 -141 58 -141 c 2
 93 -141 l 1
 93 536 l 1x98
 57 536 l 2
 40 536 10 537 10 573 c 0
 10 610 39 611 58 611 c 2
 129 611 l 2
 169 611 176 599 176 563 c 2
 176 403 l 1
 209 427 249 441 292 441 c 0
 399 441 490 343 490 218 c 0x34
408 218 m 0
 408 298 355 366 287 366 c 0
 230 366 177 319 177 265 c 2
 177 194 l 2x23
 177 150 208 69 279 69 c 0
 344 69 408 130 408 218 c 0
EndSplineSet
EndChar

StartChar: ydieresis
Encoding: 255 255 191
Width: 525
GlyphClass: 2
Flags: MW
HStem: -222 66<130 139.5 130 179> -222 138<103 105.5 75.5 179> 361 75<62 185 71 96 172 172 172 185 341 357 431 455 431 431> 498 103<165.5 194.5 330.5 359.5>
VStem: 41 100<-141.5 -119.5 -141.5 -119.5> 128 104<535.5 564.5> 293 104<535.5 564.5>
LayerCount: 2
Fore
SplineSet
502 398 m 0xa4
 502 362 473 361 455 361 c 2
 431 361 l 1
 282 -78 l 2
 278 -89 229 -222 129 -222 c 0
 77 -222 41 -179 41 -134 c 0
 41 -105 60 -84 91 -84 c 0
 120 -84 141 -105 141 -134 c 0x68
 141 -149 131 -152 130 -156 c 1
 149 -156 180 -133 200 -95 c 0
 211 -73 232 -3 236 8 c 1
 96 361 l 1
 71 361 l 2
 53 361 24 362 24 398 c 0
 24 435 52 436 71 436 c 2
 185 436 l 2
 204 436 232 435 232 398 c 0
 232 362 203 361 185 361 c 2
 172 361 l 1
 271 100 l 1
 357 361 l 1
 341 361 l 2
 322 361 294 362 294 399 c 0
 294 434 323 436 341 436 c 2
 455 436 l 2
 474 436 502 435 502 398 c 0xa4
232 550 m 0x16
 232 521 209 498 180 498 c 0
 151 498 128 521 128 550 c 0
 128 579 151 601 180 601 c 0
 209 601 232 579 232 550 c 0x16
397 550 m 0
 397 521 374 498 345 498 c 0
 316 498 293 521 293 550 c 0
 293 579 316 601 345 601 c 0
 374 601 397 579 397 550 c 0
EndSplineSet
EndChar

StartChar: Amacron
Encoding: 256 256 192
Width: 525
GlyphClass: 2
Flags: MW
HStem: 0 75<65 85 78 85 439 446.5> 161 75<207 317 207 335 189 317> 603 20G<245.5 279.5> 683 77<118 119 119 408>
LayerCount: 2
Fore
SplineSet
499 37 m 0
 499 2 469 0 449 0 c 2
 350 0 l 2
 328 0 301 1 301 37 c 0
 301 70 319 74 354 75 c 1
 335 161 l 1
 189 161 l 1
 170 75 l 1
 205 74 223 70 223 37 c 0
 223 1 196 0 174 0 c 2
 75 0 l 2
 55 0 25 2 25 37 c 0
 25 53 33 65 46 72 c 0
 52 74 71 75 85 75 c 1
 202 580 l 2
 212 622 229 623 262 623 c 0
 297 623 312 621 322 579 c 2
 439 75 l 1
 454 75 472 74 478 71 c 0
 492 65 499 53 499 37 c 0
317 236 m 1
 262 496 l 1
 207 236 l 1
 317 236 l 1
455 721 m 0
 455 684 427 683 408 683 c 2
 119 683 l 2
 99 683 71 684 71 722 c 0
 71 759 99 760 118 760 c 2
 408 760 l 2
 428 760 455 759 455 721 c 0
EndSplineSet
EndChar

StartChar: amacron
Encoding: 257 257 193
Width: 525
GlyphClass: 2
Flags: MW
HStem: -6 75<194.5 226 194.5 234.5> 0 75<459.5 480.5> 369 75<216 257> 524 77<118 119 119 408>
VStem: 48 82<115.5 155 115.5 180.5>
LayerCount: 2
Fore
SplineSet
521 38 m 0x68
 521 2 497 0 464 0 c 0x40
 427 0 382 2 357 29 c 1
 311 1 252 -6 217 -6 c 0x80
 112 -6 48 62 48 133 c 0
 48 228 167 281 340 285 c 1
 337 344 290 369 224 369 c 0
 208 369 176 366 176 366 c 1
 175 323 142 313 125 313 c 0
 98 313 74 331 74 365 c 0
 74 441 178 444 223 444 c 0
 369 444 423 358 423 286 c 2
 423 81 l 1
 431 78 445 75 474 75 c 0
 492 75 521 74 521 38 c 0x68
339 138 m 2
 339 212 l 1
 209 207 130 177 130 133 c 0
 130 98 167 69 222 69 c 0x88
 230 69 272 69 306 85 c 0
 339 100 339 119 339 138 c 2
455 562 m 0x10
 455 525 427 524 408 524 c 2
 119 524 l 2
 99 524 71 525 71 563 c 0
 71 600 99 601 118 601 c 2
 408 601 l 2
 428 601 455 600 455 562 c 0x10
EndSplineSet
EndChar

StartChar: Abreve
Encoding: 258 258 194
Width: 525
GlyphClass: 2
Flags: MW
HStem: 0 75<65 85 78 85 439 446.5> 161 75<207 317 207 335 189 317> 603 20G<245.5 279.5> 673 78<243.5 282 243.5 297> 779 20G<110 136.5 389.5 416.5>
LayerCount: 2
Fore
SplineSet
499 37 m 0
 499 2 469 0 449 0 c 2
 350 0 l 2
 328 0 301 1 301 37 c 0
 301 70 319 74 354 75 c 1
 335 161 l 1
 189 161 l 1
 170 75 l 1
 205 74 223 70 223 37 c 0
 223 1 196 0 174 0 c 2
 75 0 l 2
 55 0 25 2 25 37 c 0
 25 53 33 65 46 72 c 0
 52 74 71 75 85 75 c 1
 202 580 l 2
 212 622 229 623 262 623 c 0
 297 623 312 621 322 579 c 2
 439 75 l 1
 454 75 472 74 478 71 c 0
 492 65 499 53 499 37 c 0
317 236 m 1
 262 496 l 1
 207 236 l 1
 317 236 l 1
442 761 m 0
 442 677 331 673 263 673 c 0
 195 673 84 677 84 761 c 0
 84 784 98 799 122 799 c 0
 151 799 156 779 159 765 c 0
 163 751 224 751 263 751 c 0
 301 751 363 751 367 765 c 0
 370 779 375 799 404 799 c 0
 429 799 442 784 442 761 c 0
EndSplineSet
EndChar

StartChar: abreve
Encoding: 259 259 195
Width: 525
GlyphClass: 2
Flags: MW
HStem: -6 75<194.5 226 194.5 234.5> 0 75<459.5 480.5> 369 75<216 257> 499 78<243.5 282 243.5 297> 605 20G<110 136.5 389.5 416.5>
VStem: 48 82<115.5 155 115.5 180.5>
LayerCount: 2
Fore
SplineSet
521 38 m 0x64
 521 2 497 0 464 0 c 0x40
 427 0 382 2 357 29 c 1
 311 1 252 -6 217 -6 c 0x80
 112 -6 48 62 48 133 c 0
 48 228 167 281 340 285 c 1
 337 344 290 369 224 369 c 0
 208 369 176 366 176 366 c 1
 175 323 142 313 125 313 c 0
 98 313 74 331 74 365 c 0
 74 441 178 444 223 444 c 0
 369 444 423 358 423 286 c 2
 423 81 l 1
 431 78 445 75 474 75 c 0
 492 75 521 74 521 38 c 0x64
339 138 m 2
 339 212 l 1
 209 207 130 177 130 133 c 0
 130 98 167 69 222 69 c 0x84
 230 69 272 69 306 85 c 0
 339 100 339 119 339 138 c 2
442 587 m 0x18
 442 503 331 499 263 499 c 0
 195 499 84 503 84 587 c 0
 84 610 98 625 122 625 c 0
 151 625 156 605 159 591 c 0
 163 577 224 577 263 577 c 0
 301 577 363 577 367 591 c 0
 370 605 375 625 404 625 c 0
 429 625 442 610 442 587 c 0x18
EndSplineSet
EndChar

StartChar: Aogonek
Encoding: 260 260 196
Width: 525
GlyphClass: 2
Flags: MW
HStem: -198 68<380 390.5 380 402.5> 0 75<65 85 78 85 439 446.5> 161 75<207 317 207 335 189 317> 603 20G<245.5 279.5>
VStem: 189 73 262 73 279 73<-108.5 -79.5 -108.5 -76.5> 407 73
LayerCount: 2
Fore
SplineSet
499 37 m 0x78
 499 2 469 0 449 0 c 2
 411 0 l 1
 363 -28 352 -60 352 -99 c 0
 352 -118 373 -130 387 -130 c 0
 394 -130 401 -127 407 -122 c 0
 441 -88 459 -67 480 -90 c 0
 492 -103 495 -126 487 -137 c 0
 462 -171 422 -198 383 -198 c 0
 316 -198 279 -143 279 -97 c 0xeb
 279 -56 298 -23 328 2 c 1
 313 5 301 13 301 37 c 0
 301 70 319 74 354 75 c 1
 335 161 l 1x64
 189 161 l 1
 170 75 l 1
 205 74 223 70 223 37 c 0
 223 1 196 0 174 0 c 2
 75 0 l 2
 55 0 25 2 25 37 c 0
 25 53 33 65 46 72 c 0
 52 74 71 75 85 75 c 1
 202 580 l 2
 212 622 229 623 262 623 c 0
 297 623 312 621 322 579 c 2
 439 75 l 1
 454 75 472 74 478 71 c 0
 492 65 499 53 499 37 c 0x78
317 236 m 1
 262 496 l 1
 207 236 l 1
 317 236 l 1
EndSplineSet
EndChar

StartChar: aogonek
Encoding: 261 261 197
Width: 525
GlyphClass: 2
Flags: MW
HStem: -6 75<194.5 226 194.5 234.5> 0 69 0 75<459.5 466 446 483>
VStem: 48 82<115.5 155 115.5 180.5> 309 73<-108.5 -81.5 -108.5 -75.5> 339 84<138 212 212 212>
CounterMasks: 1 e0
LayerCount: 2
Fore
SplineSet
521 38 m 0xf4
 521 3 492 1 466 0 c 2
 446 0 l 1
 406 -26 382 -64 382 -99 c 0
 382 -118 403 -130 418 -130 c 0
 424 -130 431 -127 438 -122 c 0
 472 -88 491 -67 511 -90 c 0
 523 -104 526 -126 517 -137 c 0
 492 -171 453 -198 414 -198 c 0
 347 -198 309 -143 309 -97 c 0xf8
 309 -54 340 -12 375 15 c 1
 369 19 363 23 357 29 c 1
 311 1 252 -6 217 -6 c 0
 112 -6 48 62 48 133 c 0
 48 228 167 281 340 285 c 1
 337 344 290 369 224 369 c 0
 208 369 176 366 176 366 c 1
 175 323 142 313 125 313 c 0
 98 313 74 331 74 365 c 0
 74 441 178 444 223 444 c 0
 369 444 423 358 423 286 c 2
 423 81 l 1
 431 78 445 75 474 75 c 0
 492 75 521 74 521 38 c 0xf4
339 138 m 2
 339 212 l 1xe4
 209 207 130 177 130 133 c 0
 130 98 167 69 222 69 c 0
 230 69 272 69 306 85 c 0
 339 100 339 119 339 138 c 2
EndSplineSet
EndChar

StartChar: Cacute
Encoding: 262 262 198
Width: 525
GlyphClass: 2
Flags: MW
HStem: -11 75<242.5 304 242.5 340> 547 75<242.5 304.5 216 312> 673 21G<203.5 223> 799 20G<359 371>
VStem: 38 83<235.5 376 235.5 397> 403 83
LayerCount: 2
Fore
SplineSet
486 172 m 0
 486 80 399 -11 281 -11 c 0
 151 -11 38 123 38 306 c 0
 38 488 151 622 281 622 c 0
 328 622 372 604 405 579 c 1
 413 596 413 598 415 601 c 0
 421 610 430 622 449 622 c 0
 485 622 486 593 486 574 c 2
 486 439 l 2
 486 415 485 391 444 391 c 0
 409 391 406 409 402 429 c 0
 390 504 340 547 284 547 c 0
 201 547 121 446 121 306 c 0
 121 165 200 64 285 64 c 0
 323 64 397 86 403 176 c 0
 406 211 433 211 444 211 c 0
 457 211 486 211 486 172 c 0
401 777 m 0
 401 764 397 749 369 736 c 2
 240 678 l 2
 233 675 227 673 219 673 c 0
 188 673 179 710 179 719 c 0
 179 741 191 748 208 755 c 2
 337 813 l 2
 350 819 359 819 359 819 c 1
 383 819 401 801 401 777 c 0
EndSplineSet
EndChar

StartChar: cacute
Encoding: 263 263 199
Width: 525
GlyphClass: 2
Flags: MW
HStem: -6 75<259 330 259 363.5> 369 75<241.5 304> 489 21G<203.5 223> 615 20G<359 371>
VStem: 70 83<176 240.5 176 262.5> 304 83 355 102<368 368>
LayerCount: 2
Fore
SplineSet
469 114 m 0xcc
 469 97 435 -6 292 -6 c 0
 165 -6 70 97 70 218 c 0
 70 307 131 444 304 444 c 0xcc
 351 444 457 441 457 365 c 0
 457 332 433 313 405 313 c 0
 378 313 356 328 355 368 c 1x02
 304 369 l 2
 179 369 153 263 153 218 c 0
 153 134 220 69 298 69 c 0
 362 69 382 111 387 123 c 0
 396 147 408 149 427 149 c 0
 434 149 469 148 469 114 c 0xcc
401 593 m 0x30
 401 580 397 564 369 552 c 2
 240 494 l 2
 233 491 227 489 219 489 c 0
 188 489 179 526 179 535 c 0
 179 557 191 564 208 571 c 2
 337 629 l 2
 350 635 359 635 359 635 c 1
 383 635 401 617 401 593 c 0x30
EndSplineSet
EndChar

StartChar: Ccircumflex
Encoding: 264 264 200
Width: 525
GlyphClass: 2
Flags: MW
HStem: -11 75<242.5 304 242.5 340> 547 75<242.5 304.5 216 312> 663 21G<161.5 179.5 398.5 416.5>
VStem: 38 83<235.5 376 235.5 397> 403 83
LayerCount: 2
Fore
SplineSet
486 172 m 0
 486 80 399 -11 281 -11 c 0
 151 -11 38 123 38 306 c 0
 38 488 151 622 281 622 c 0
 328 622 372 604 405 579 c 1
 413 596 413 598 415 601 c 0
 421 610 430 622 449 622 c 0
 485 622 486 593 486 574 c 2
 486 439 l 2
 486 415 485 391 444 391 c 0
 409 391 406 409 402 429 c 0
 390 504 340 547 284 547 c 0
 201 547 121 446 121 306 c 0
 121 165 200 64 285 64 c 0
 323 64 397 86 403 176 c 0
 406 211 433 211 444 211 c 0
 457 211 486 211 486 172 c 0
439 702 m 0
 439 684 430 663 403 663 c 0
 394 663 375 669 355 675 c 2
 289 695 l 1
 223 675 l 2
 203 669 184 663 175 663 c 0
 148 663 139 684 139 702 c 0
 139 722 162 733 195 745 c 2
 273 773 l 2
 286 778 292 778 305 773 c 2
 383 745 l 2
 415 733 439 722 439 702 c 0
EndSplineSet
EndChar

StartChar: ccircumflex
Encoding: 265 265 201
Width: 525
GlyphClass: 2
Flags: MW
HStem: -6 75<259 330 259 363.5> 369 75<241.5 304> 488 21G
VStem: 70 83<176 240.5 176 262.5> 304 83 355 102<368 368>
LayerCount: 2
Fore
SplineSet
469 114 m 0xd8
 469 97 435 -6 292 -6 c 0
 165 -6 70 97 70 218 c 0
 70 307 131 444 304 444 c 0xd8
 351 444 457 441 457 365 c 0
 457 332 433 313 405 313 c 0
 378 313 356 328 355 368 c 1x04
 304 369 l 2
 179 369 153 263 153 218 c 0
 153 134 220 69 298 69 c 0
 362 69 382 111 387 123 c 0
 396 147 408 149 427 149 c 0
 434 149 469 148 469 114 c 0xd8
440 520 m 0x20
 439 499 427 488 400 488 c 0
 391 488 370 501 357 509 c 2
 289 551 l 1
 221 509 l 2
 210 502 187 488 178 488 c 0
 151 488 139 499 138 520 c 0
 137 543 154 553 183 572 c 2
 273 630 l 2
 283 637 295 637 305 630 c 2
 395 572 l 2
 425 552 441 543 440 520 c 0x20
EndSplineSet
EndChar

StartChar: Cdotaccent
Encoding: 266 266 202
Width: 525
GlyphClass: 2
Flags: MW
HStem: -11 75<242.5 304 242.5 340> 547 75<242.5 304.5 216 312> 674 113<274 306>
VStem: 38 83<235.5 376 235.5 397> 233 114<715 746.5> 403 83
LayerCount: 2
Fore
SplineSet
486 172 m 0
 486 80 399 -11 281 -11 c 0
 151 -11 38 123 38 306 c 0
 38 488 151 622 281 622 c 0
 328 622 372 604 405 579 c 1
 413 596 413 598 415 601 c 0
 421 610 430 622 449 622 c 0
 485 622 486 593 486 574 c 2
 486 439 l 2
 486 415 485 391 444 391 c 0
 409 391 406 409 402 429 c 0
 390 504 340 547 284 547 c 0
 201 547 121 446 121 306 c 0
 121 165 200 64 285 64 c 0
 323 64 397 86 403 176 c 0
 406 211 433 211 444 211 c 0
 457 211 486 211 486 172 c 0
347 731 m 0
 347 699 322 674 290 674 c 0
 258 674 233 699 233 731 c 0
 233 762 258 787 290 787 c 0
 322 787 347 762 347 731 c 0
EndSplineSet
EndChar

StartChar: cdotaccent
Encoding: 267 267 203
Width: 525
GlyphClass: 2
Flags: MW
HStem: -6 75<259 330 259 363.5> 369 75<241.5 304> 506 113<274 306>
VStem: 70 83<176 240.5 176 262.5> 233 114<547 578.5> 304 83 355 102<368 368>
LayerCount: 2
Fore
SplineSet
469 114 m 0xd4
 469 97 435 -6 292 -6 c 0
 165 -6 70 97 70 218 c 0
 70 307 131 444 304 444 c 0xd4
 351 444 457 441 457 365 c 0
 457 332 433 313 405 313 c 0
 378 313 356 328 355 368 c 1x02
 304 369 l 2
 179 369 153 263 153 218 c 0
 153 134 220 69 298 69 c 0
 362 69 382 111 387 123 c 0
 396 147 408 149 427 149 c 0
 434 149 469 148 469 114 c 0xd4
347 563 m 0x28
 347 531 322 506 290 506 c 0
 258 506 233 531 233 563 c 0
 233 594 258 619 290 619 c 0
 322 619 347 594 347 563 c 0x28
EndSplineSet
EndChar

StartChar: Ccaron
Encoding: 268 268 204
Width: 525
GlyphClass: 2
Flags: MW
HStem: -11 75<242.5 304 242.5 340> 547 75<242.5 304.5 216 312> 757 20G<161.5 179.5 398.5 416.5>
VStem: 38 83<235.5 376 235.5 397> 403 83
LayerCount: 2
Fore
SplineSet
486 172 m 0
 486 80 399 -11 281 -11 c 0
 151 -11 38 123 38 306 c 0
 38 488 151 622 281 622 c 0
 328 622 372 604 405 579 c 1
 413 596 413 598 415 601 c 0
 421 610 430 622 449 622 c 0
 485 622 486 593 486 574 c 2
 486 439 l 2
 486 415 485 391 444 391 c 0
 409 391 406 409 402 429 c 0
 390 504 340 547 284 547 c 0
 201 547 121 446 121 306 c 0
 121 165 200 64 285 64 c 0
 323 64 397 86 403 176 c 0
 406 211 433 211 444 211 c 0
 457 211 486 211 486 172 c 0
439 738 m 0
 439 718 416 707 383 695 c 2
 305 667 l 2
 292 662 286 662 273 667 c 2
 195 695 l 2
 163 707 139 718 139 738 c 0
 139 756 148 777 175 777 c 0
 184 777 203 771 223 765 c 2
 289 745 l 1
 355 765 l 2
 375 771 394 777 403 777 c 0
 430 777 439 756 439 738 c 0
EndSplineSet
EndChar

StartChar: ccaron
Encoding: 269 269 205
Width: 525
GlyphClass: 2
Flags: MW
HStem: -6 75<259 330 259 363.5> 369 75<241.5 304> 616 20G<164.5 182.5 395.5 413.5>
VStem: 70 83<176 240.5 176 262.5> 304 83 355 102<368 368>
LayerCount: 2
Fore
SplineSet
469 114 m 0xd8
 469 97 435 -6 292 -6 c 0
 165 -6 70 97 70 218 c 0
 70 307 131 444 304 444 c 0xd8
 351 444 457 441 457 365 c 0
 457 332 433 313 405 313 c 0
 378 313 356 328 355 368 c 1x04
 304 369 l 2
 179 369 153 263 153 218 c 0
 153 134 220 69 298 69 c 0
 362 69 382 111 387 123 c 0
 396 147 408 149 427 149 c 0
 434 149 469 148 469 114 c 0xd8
440 604 m 0x20
 441 581 424 571 395 552 c 2
 305 494 l 2
 295 487 283 487 273 494 c 2
 183 552 l 2
 153 572 137 581 138 604 c 0
 139 625 151 636 178 636 c 0
 187 636 208 623 221 615 c 2
 289 573 l 1
 357 615 l 2
 368 622 391 636 400 636 c 0
 427 636 439 625 440 604 c 0x20
EndSplineSet
EndChar

StartChar: Dcaron
Encoding: 270 270 206
Width: 525
GlyphClass: 2
Flags: MW
HStem: 0 75<56 79 65 79 162 248 248 266> 536 75<56 266 65 79 162 162 162 248> 757 20G<71.5 89.5 308.5 326.5>
VStem: 79 83<75 536 75 536> 405 82<246 355.5>
LayerCount: 2
Fore
SplineSet
487 301 m 0
 487 140 397 0 266 0 c 2
 65 0 l 2
 47 0 17 1 17 37 c 0
 17 74 46 75 65 75 c 2
 79 75 l 1
 79 536 l 1
 65 536 l 2
 47 536 17 537 17 573 c 0
 17 610 46 611 65 611 c 2
 266 611 l 2
 399 611 487 462 487 301 c 0
405 301 m 0
 405 410 354 536 248 536 c 2
 162 536 l 1
 162 75 l 1
 248 75 l 2
 352 75 405 191 405 301 c 0
349 738 m 0
 349 718 326 707 293 695 c 2
 215 667 l 2
 202 662 196 662 183 667 c 2
 105 695 l 2
 73 707 49 718 49 738 c 0
 49 756 58 777 85 777 c 0
 94 777 113 771 133 765 c 2
 199 745 l 1
 265 765 l 2
 285 771 304 777 313 777 c 0
 340 777 349 756 349 738 c 0
EndSplineSet
EndChar

StartChar: dcaron
Encoding: 271 271 207
Width: 525
GlyphClass: 2
Flags: MW
HStem: -6 75<203 257.5> 0 75<375.5 467 431 466> 366 75<212.5 261 187 274> 504 107<524 538 538 541> 536 75<303.5 384 313 348>
VStem: 34 82<176 261.5 176 281.5> 265 82 312 83 313 82 348 83<406 536 536 536> 384 82 384 83 431 83<19.5 563 19.5 75> 484 123<542.5 556 488 572.5>
LayerCount: 2
Fore
SplineSet
514 38 m 0x4010
 514 1 485 0 466 0 c 2x4020
 395 0 l 2x4080
 356 0 350 11 348 39 c 1
 320 14 282 -6 233 -6 c 0
 126 -6 34 92 34 217 c 0
 34 346 132 441 242 441 c 0
 280 441 317 429 348 406 c 1
 348 536 l 1xac40
 312 536 l 2x09
 295 536 265 537 265 573 c 0x02
 265 610 294 611 313 611 c 2x0880
 384 611 l 2x0820
 424 611 431 599 431 563 c 2
 431 75 l 1x4008
 467 75 l 2
 484 75 514 74 514 38 c 0x4010
347 197 m 2
 347 266 l 2
 347 316 303 366 245 366 c 0
 180 366 116 306 116 217 c 0
 116 135 170 69 236 69 c 0
 306 69 347 146 347 197 c 2
607 531 m 0
 607 445 526 403 501 403 c 0
 485 403 470 420 470 434 c 0
 470 453 487 459 496 462 c 0
 503 464 529 473 541 504 c 1
 538 504 l 2
 510 504 484 526 484 559 c 0x1004
 484 586 505 611 539 611 c 0
 575 611 607 581 607 531 c 0
EndSplineSet
EndChar

StartChar: Dcroat
Encoding: 272 272 208
Width: 525
GlyphClass: 2
Flags: MW
HStem: 0 75<56 79 65 79 162 248 248 266> 268 76<48.5 79 59 79 162 212> 536 75<56 266 65 79 162 162 162 248>
VStem: 79 83<75 268 75 268 344 536> 405 82<246 355.5>
LayerCount: 2
Fore
SplineSet
487 301 m 0
 487 140 397 0 266 0 c 2
 65 0 l 2
 47 0 17 1 17 37 c 0
 17 74 46 75 65 75 c 2
 79 75 l 1
 79 268 l 1
 59 268 l 2
 38 268 21 284 21 306 c 0
 21 327 38 344 59 344 c 2
 79 344 l 1
 79 536 l 1
 65 536 l 2
 47 536 17 537 17 573 c 0
 17 610 46 611 65 611 c 2
 266 611 l 2
 399 611 487 462 487 301 c 0
405 301 m 0
 405 410 354 536 248 536 c 2
 162 536 l 1
 162 344 l 1
 212 344 l 2
 233 344 250 327 250 306 c 0
 250 284 233 268 212 268 c 2
 162 268 l 1
 162 75 l 1
 248 75 l 2
 352 75 405 191 405 301 c 0
EndSplineSet
EndChar

StartChar: dcroat
Encoding: 273 273 209
Width: 525
GlyphClass: 2
Flags: MW
HStem: -6 75<203 257.5> 0 75<375.5 467 431 466> 366 75<212.5 261 187 274> 453 64<201.5 348 212 348 431 472> 536 75<303.5 384 313 348>
VStem: 34 82<176 261.5 176 281.5> 265 82 313 82 347 84<197 266 266 291> 384 82
LayerCount: 2
Fore
SplineSet
514 38 m 0x5080
 514 1 485 0 466 0 c 2x4040
 395 0 l 2x41
 356 0 350 11 348 39 c 1
 320 14 282 -6 233 -6 c 0
 126 -6 34 92 34 217 c 0
 34 346 132 441 242 441 c 0
 280 441 317 429 348 406 c 1
 348 453 l 1
 212 453 l 2
 191 453 174 464 174 485 c 0
 174 506 191 517 212 517 c 2
 348 517 l 1
 348 536 l 1
 312 536 l 2
 295 536 265 537 265 573 c 0xbe
 265 610 294 611 313 611 c 2x09
 384 611 l 2x0840
 424 611 431 599 431 563 c 2
 431 517 l 1
 472 517 l 2
 493 517 510 506 510 485 c 0
 510 464 493 453 472 453 c 2
 431 453 l 1
 431 75 l 1
 467 75 l 2
 484 75 514 74 514 38 c 0x5080
347 197 m 2
 347 266 l 2
 347 316 303 366 245 366 c 0
 180 366 116 306 116 217 c 0
 116 135 170 69 236 69 c 0xa6
 306 69 347 146 347 197 c 2
EndSplineSet
EndChar

StartChar: Emacron
Encoding: 274 274 210
Width: 525
GlyphClass: 2
Flags: MW
HStem: 0 75<63 93 72 93 176 421> 279 75<176 288 176 288> 536 75<63 436 72 93 176 176 176 399> 683 77<118 119 119 408>
VStem: 93 83<75 279 354 536> 288 83<279 279 354 354> 399 83<492 536 536 536> 421 83<75 134>
LayerCount: 2
Fore
SplineSet
504 48 m 2xed
 504 10 495 0 457 0 c 2
 72 0 l 2
 54 0 24 1 24 37 c 0
 24 74 53 75 72 75 c 2
 93 75 l 1
 93 536 l 1
 72 536 l 2
 54 536 24 537 24 574 c 0
 24 610 54 611 72 611 c 2
 436 611 l 2
 475 611 482 599 482 563 c 2
 482 492 l 2
 482 469 482 444 440 444 c 0
 400 444 399 470 399 492 c 2
 399 536 l 1xaa
 176 536 l 1
 176 354 l 1
 288 354 l 1
 289 394 293 409 330 409 c 0
 370 409 371 384 371 362 c 2
 371 271 l 2
 371 248 370 223 330 223 c 0
 293 223 289 238 288 279 c 1
 176 279 l 1
 176 75 l 1
 421 75 l 1
 421 134 l 2
 421 158 422 182 463 182 c 0
 503 182 504 157 504 134 c 2
 504 48 l 2xed
455 721 m 0x10
 455 684 427 683 408 683 c 2
 119 683 l 2
 99 683 71 684 71 722 c 0
 71 759 99 760 118 760 c 2
 408 760 l 2
 428 760 455 759 455 721 c 0x10
EndSplineSet
EndChar

StartChar: emacron
Encoding: 275 275 211
Width: 525
GlyphClass: 2
Flags: MW
HStem: -6 75<257.5 303.5 257.5 352> 186 74<140 381 140 420 139 381> 369 75<239 293> 524 77<118 119 119 408>
LayerCount: 2
Fore
SplineSet
467 114 m 0
 467 88 420 -6 284 -6 c 0
 154 -6 52 96 52 219 c 0
 52 343 150 444 270 444 c 0
 401 444 467 345 467 230 c 0
 467 186 445 186 420 186 c 2
 139 186 l 1
 157 112 224 69 291 69 c 0
 316 69 365 77 385 123 c 0
 394 145 403 149 425 149 c 0
 432 149 467 148 467 114 c 0
381 260 m 1
 370 347 316 369 270 369 c 0
 208 369 156 323 140 260 c 1
 381 260 l 1
455 562 m 0
 455 525 427 524 408 524 c 2
 119 524 l 2
 99 524 71 525 71 563 c 0
 71 600 99 601 118 601 c 2
 408 601 l 2
 428 601 455 600 455 562 c 0
EndSplineSet
EndChar

StartChar: Ebreve
Encoding: 276 276 212
Width: 525
GlyphClass: 2
Flags: MW
HStem: 0 75<63 93 72 93 176 421> 279 75<176 288 176 288> 536 75<63 436 72 93 176 176 176 399> 673 78<243.5 282 243.5 297> 779 20G<110 136.5 389.5 416.5>
VStem: 93 83<75 279 354 536> 288 83<279 279 354 354> 399 83<492 536 536 536> 421 83<75 134>
LayerCount: 2
Fore
SplineSet
504 48 m 2xe680
 504 10 495 0 457 0 c 2
 72 0 l 2
 54 0 24 1 24 37 c 0
 24 74 53 75 72 75 c 2
 93 75 l 1
 93 536 l 1
 72 536 l 2
 54 536 24 537 24 574 c 0
 24 610 54 611 72 611 c 2
 436 611 l 2
 475 611 482 599 482 563 c 2
 482 492 l 2
 482 469 482 444 440 444 c 0
 400 444 399 470 399 492 c 2
 399 536 l 1xa5
 176 536 l 1
 176 354 l 1
 288 354 l 1
 289 394 293 409 330 409 c 0
 370 409 371 384 371 362 c 2
 371 271 l 2
 371 248 370 223 330 223 c 0
 293 223 289 238 288 279 c 1
 176 279 l 1
 176 75 l 1
 421 75 l 1
 421 134 l 2
 421 158 422 182 463 182 c 0
 503 182 504 157 504 134 c 2
 504 48 l 2xe680
442 761 m 0x18
 442 677 331 673 263 673 c 0
 195 673 84 677 84 761 c 0
 84 784 98 799 122 799 c 0
 151 799 156 779 159 765 c 0
 163 751 224 751 263 751 c 0
 301 751 363 751 367 765 c 0
 370 779 375 799 404 799 c 0
 429 799 442 784 442 761 c 0x18
EndSplineSet
EndChar

StartChar: ebreve
Encoding: 277 277 213
Width: 525
GlyphClass: 2
Flags: MW
HStem: -6 75<257.5 303.5 257.5 352> 186 74<140 381 140 420 139 381> 369 75<239 293> 499 78<243.5 282 243.5 297> 605 20G<110 136.5 389.5 416.5>
LayerCount: 2
Fore
SplineSet
467 114 m 0
 467 88 420 -6 284 -6 c 0
 154 -6 52 96 52 219 c 0
 52 343 150 444 270 444 c 0
 401 444 467 345 467 230 c 0
 467 186 445 186 420 186 c 2
 139 186 l 1
 157 112 224 69 291 69 c 0
 316 69 365 77 385 123 c 0
 394 145 403 149 425 149 c 0
 432 149 467 148 467 114 c 0
381 260 m 1
 370 347 316 369 270 369 c 0
 208 369 156 323 140 260 c 1
 381 260 l 1
442 587 m 0
 442 503 331 499 263 499 c 0
 195 499 84 503 84 587 c 0
 84 610 98 625 122 625 c 0
 151 625 156 605 159 591 c 0
 163 577 224 577 263 577 c 0
 301 577 363 577 367 591 c 0
 370 605 375 625 404 625 c 0
 429 625 442 610 442 587 c 0
EndSplineSet
EndChar

StartChar: Edotaccent
Encoding: 278 278 214
Width: 525
GlyphClass: 2
Flags: MW
HStem: 0 75<63 93 72 93 176 421> 279 75<176 288 176 288> 536 75<63 436 72 93 176 176 176 399> 674 113<247 279>
VStem: 93 83<75 279 354 536> 206 114<715 746.5> 288 83<279 279 354 354> 399 83<492 536 536 536> 421 83<75 134>
LayerCount: 2
Fore
SplineSet
504 48 m 2xea80
 504 10 495 0 457 0 c 2
 72 0 l 2
 54 0 24 1 24 37 c 0
 24 74 53 75 72 75 c 2
 93 75 l 1
 93 536 l 1
 72 536 l 2
 54 536 24 537 24 574 c 0
 24 610 54 611 72 611 c 2
 436 611 l 2
 475 611 482 599 482 563 c 2
 482 492 l 2
 482 469 482 444 440 444 c 0
 400 444 399 470 399 492 c 2
 399 536 l 1xa9
 176 536 l 1
 176 354 l 1
 288 354 l 1
 289 394 293 409 330 409 c 0
 370 409 371 384 371 362 c 2
 371 271 l 2
 371 248 370 223 330 223 c 0
 293 223 289 238 288 279 c 1
 176 279 l 1
 176 75 l 1
 421 75 l 1
 421 134 l 2
 421 158 422 182 463 182 c 0
 503 182 504 157 504 134 c 2
 504 48 l 2xea80
320 731 m 0x14
 320 699 295 674 263 674 c 0
 231 674 206 699 206 731 c 0
 206 762 231 787 263 787 c 0
 295 787 320 762 320 731 c 0x14
EndSplineSet
EndChar

StartChar: edotaccent
Encoding: 279 279 215
Width: 525
GlyphClass: 2
Flags: MW
HStem: -6 75<257.5 303.5 257.5 352> 186 74<140 381 140 420 139 381> 369 75<239 293> 506 113<247 279>
VStem: 206 114<547 578.5>
LayerCount: 2
Fore
SplineSet
467 114 m 0
 467 88 420 -6 284 -6 c 0
 154 -6 52 96 52 219 c 0
 52 343 150 444 270 444 c 0
 401 444 467 345 467 230 c 0
 467 186 445 186 420 186 c 2
 139 186 l 1
 157 112 224 69 291 69 c 0
 316 69 365 77 385 123 c 0
 394 145 403 149 425 149 c 0
 432 149 467 148 467 114 c 0
381 260 m 1
 370 347 316 369 270 369 c 0
 208 369 156 323 140 260 c 1
 381 260 l 1
320 563 m 0
 320 531 295 506 263 506 c 0
 231 506 206 531 206 563 c 0
 206 594 231 619 263 619 c 0
 295 619 320 594 320 563 c 0
EndSplineSet
EndChar

StartChar: Eogonek
Encoding: 280 280 216
Width: 525
GlyphClass: 2
Flags: MW
HStem: -198 68<380 390.5 380 402.5> 0 75<63 93 72 93 176 326 411 421 411 411> 279 75<176 288 176 288> 536 75<63 436 72 93 176 176 176 399>
VStem: 93 83<75 279 354 536> 279 73<-108.5 -79.5 -108.5 -77> 288 83<279 279 354 354> 326 73 399 83<492 536 536 536> 407 73 421 83<75 134>
LayerCount: 2
Fore
SplineSet
504 48 m 2x7a20
 504 10 495 0 457 0 c 2
 411 0 l 1
 363 -28 352 -60 352 -99 c 0
 352 -118 373 -130 387 -130 c 0
 394 -130 401 -127 407 -122 c 0
 441 -88 459 -67 480 -90 c 0
 492 -103 495 -126 487 -137 c 0
 462 -171 422 -198 383 -198 c 0
 316 -198 279 -143 279 -97 c 0xc440
 279 -57 297 -25 326 0 c 1x41
 72 0 l 2
 54 0 24 1 24 37 c 0
 24 74 53 75 72 75 c 2
 93 75 l 1
 93 536 l 1
 72 536 l 2
 54 536 24 537 24 574 c 0
 24 610 54 611 72 611 c 2
 436 611 l 2
 475 611 482 599 482 563 c 2
 482 492 l 2x5880
 482 469 482 444 440 444 c 0
 400 444 399 470 399 492 c 2
 399 536 l 1x11
 176 536 l 1
 176 354 l 1
 288 354 l 1
 289 394 293 409 330 409 c 0
 370 409 371 384 371 362 c 2
 371 271 l 2
 371 248 370 223 330 223 c 0
 293 223 289 238 288 279 c 1
 176 279 l 1
 176 75 l 1
 421 75 l 1
 421 134 l 2
 421 158 422 182 463 182 c 0
 503 182 504 157 504 134 c 2
 504 48 l 2x7a20
EndSplineSet
EndChar

StartChar: eogonek
Encoding: 281 281 217
Width: 525
GlyphClass: 2
Flags: MW
HStem: -198 68<302 312 302 324.5> 186 74<140 381 140 420 139 381> 369 75<239 293>
VStem: 201 73<-108.5 -79.5 -108.5 -76.5> 329 73 335 73
LayerCount: 2
Fore
SplineSet
467 114 m 0xf4
 467 93 428 17 335 -3 c 1x64
 286 -18 274 -60 274 -99 c 0
 274 -118 295 -130 309 -130 c 0
 315 -130 323 -127 329 -122 c 0
 363 -88 382 -67 402 -90 c 0x98
 414 -104 417 -126 408 -137 c 0
 384 -171 344 -198 305 -198 c 0
 238 -198 201 -143 201 -97 c 0
 201 -56 214 -26 243 -2 c 1
 133 16 52 110 52 219 c 0
 52 343 150 444 270 444 c 0
 401 444 467 345 467 230 c 0
 467 186 445 186 420 186 c 2
 139 186 l 1
 157 112 224 69 291 69 c 0
 316 69 365 77 385 123 c 0
 394 145 403 149 425 149 c 0
 432 149 467 148 467 114 c 0xf4
381 260 m 1
 370 347 316 369 270 369 c 0
 208 369 156 323 140 260 c 1
 381 260 l 1
EndSplineSet
EndChar

StartChar: Ecaron
Encoding: 282 282 218
Width: 525
GlyphClass: 2
Flags: MW
HStem: 0 75<63 93 72 93 176 421> 279 75<176 288 176 288> 536 75<63 436 72 93 176 176 176 399> 757 20G<134.5 152.5 371.5 389.5>
VStem: 93 83<75 279 354 536> 288 83<279 279 354 354> 399 83<492 536 536 536> 421 83<75 134>
LayerCount: 2
Fore
SplineSet
504 48 m 2xed
 504 10 495 0 457 0 c 2
 72 0 l 2
 54 0 24 1 24 37 c 0
 24 74 53 75 72 75 c 2
 93 75 l 1
 93 536 l 1
 72 536 l 2
 54 536 24 537 24 574 c 0
 24 610 54 611 72 611 c 2
 436 611 l 2
 475 611 482 599 482 563 c 2
 482 492 l 2
 482 469 482 444 440 444 c 0
 400 444 399 470 399 492 c 2
 399 536 l 1xaa
 176 536 l 1
 176 354 l 1
 288 354 l 1
 289 394 293 409 330 409 c 0
 370 409 371 384 371 362 c 2
 371 271 l 2
 371 248 370 223 330 223 c 0
 293 223 289 238 288 279 c 1
 176 279 l 1
 176 75 l 1
 421 75 l 1
 421 134 l 2
 421 158 422 182 463 182 c 0
 503 182 504 157 504 134 c 2
 504 48 l 2xed
412 738 m 0x10
 412 718 389 707 356 695 c 2
 278 667 l 2
 265 662 259 662 246 667 c 2
 168 695 l 2
 136 707 112 718 112 738 c 0
 112 756 121 777 148 777 c 0
 157 777 176 771 196 765 c 2
 262 745 l 1
 328 765 l 2
 348 771 367 777 376 777 c 0
 403 777 412 756 412 738 c 0x10
EndSplineSet
EndChar

StartChar: ecaron
Encoding: 283 283 219
Width: 525
GlyphClass: 2
Flags: MW
HStem: -6 75<257.5 303.5 257.5 352> 186 74<140 381 140 420 139 381> 369 75<239 293> 616 20G<137.5 155.5 368.5 386.5>
LayerCount: 2
Fore
SplineSet
467 114 m 0
 467 88 420 -6 284 -6 c 0
 154 -6 52 96 52 219 c 0
 52 343 150 444 270 444 c 0
 401 444 467 345 467 230 c 0
 467 186 445 186 420 186 c 2
 139 186 l 1
 157 112 224 69 291 69 c 0
 316 69 365 77 385 123 c 0
 394 145 403 149 425 149 c 0
 432 149 467 148 467 114 c 0
381 260 m 1
 370 347 316 369 270 369 c 0
 208 369 156 323 140 260 c 1
 381 260 l 1
413 604 m 0
 414 581 397 571 368 552 c 2
 278 494 l 2
 268 487 256 487 246 494 c 2
 156 552 l 2
 126 572 110 581 111 604 c 0
 112 625 124 636 151 636 c 0
 160 636 181 623 194 615 c 2
 262 573 l 1
 330 615 l 2
 341 622 364 636 373 636 c 0
 400 636 412 625 413 604 c 0
EndSplineSet
EndChar

StartChar: Gcircumflex
Encoding: 284 284 220
Width: 525
GlyphClass: 2
Flags: MW
HStem: -11 75<226 285> 204 75<324.5 450 334 366 452 459 334 464.5> 547 75<228.5 281> 663 21G<134.5 152.5 371.5 389.5>
VStem: 36 83<236 377 236 396.5> 287 83 369 83 415 83
LayerCount: 2
Fore
SplineSet
498 242 m 0xec
 498 209 477 204 452 204 c 1
 452 48 l 2x42
 452 25 451 0 411 0 c 0
 380 0 372 13 370 31 c 1
 347 10 309 -11 261 -11 c 0
 142 -11 36 122 36 306 c 0
 36 487 141 622 261 622 c 0
 301 622 339 609 372 583 c 1
 386 613 394 622 415 622 c 0xad
 451 622 452 593 452 574 c 2
 452 439 l 2
 452 415 451 391 410 391 c 0
 379 391 372 405 369 426 c 0x02
 354 525 297 547 265 547 c 0
 192 547 119 449 119 305 c 0
 119 167 188 64 264 64 c 0
 312 64 354 106 366 204 c 1
 334 204 l 2
 315 204 287 205 287 242 c 0
 287 277 316 279 334 279 c 2
 450 279 l 2
 468 279 498 277 498 242 c 0xec
412 702 m 0x10
 412 684 403 663 376 663 c 0
 367 663 348 669 328 675 c 2
 262 695 l 1
 196 675 l 2
 176 669 157 663 148 663 c 0
 121 663 112 684 112 702 c 0
 112 722 135 733 168 745 c 2
 246 773 l 2
 259 778 265 778 278 773 c 2
 356 745 l 2
 388 733 412 722 412 702 c 0x10
EndSplineSet
EndChar

StartChar: gcircumflex
Encoding: 285 285 221
Width: 525
GlyphClass: 2
Flags: MW
HStem: -223 74<216 308 216 327> 4 71<212 277> 113 74<215.5 256.5 209 281> 367 74<209.5 255.5 186 257> 490 21G
VStem: 27 72<-92.5 -66.5> 65 82<257.5 302.5 253 321.5> 151 82 319 84<252.5 292 232.5 301.5> 425 72<-92.5 -53 -115 -34>
LayerCount: 2
Fore
SplineSet
511 386 m 0x12
 511 352 484 338 464 338 c 0
 453 338 429 345 420 371 c 1
 409 369 395 366 380 359 c 1
 395 333 403 306 403 278 c 0
 403 187 328 113 234 113 c 0
 197 113 165 126 151 134 c 1
 149 127 148 121 148 118 c 2
 148 118 149 99 158 88 c 0
 173 70 194 75 212 75 c 2
 281 75 l 2
 371 75 413 53 426 46 c 0
 478 18 497 -34 497 -72 c 0
 497 -158 392 -223 262 -223 c 0
 132 -223 27 -159 27 -72 c 0xe5c0
 27 -61 27 5 96 51 c 1
 87 65 77 88 77 119 c 0
 77 147 85 169 95 185 c 1
 80 205 65 237 65 278 c 0
 65 365 138 441 234 441 c 0
 277 441 310 425 328 414 c 1
 374 445 421 446 432 446 c 0
 491 446 511 411 511 386 c 0x12
319 278 m 0
 319 325 281 367 233 367 c 0
 186 367 147 328 147 277 c 0x9380
 147 229 185 187 233 187 c 0
 280 187 319 227 319 278 c 0
425 -72 m 0
 425 4 318 4 236 4 c 0
 167 4 158 4 136 -10 c 0
 107 -28 99 -56 99 -72 c 0x4440
 99 -113 170 -149 262 -149 c 0
 354 -149 425 -113 425 -72 c 0
377 522 m 0x08
 376 501 364 490 337 490 c 0
 328 490 307 503 294 511 c 2
 226 553 l 1
 158 511 l 2
 147 504 124 490 115 490 c 0
 88 490 76 501 75 522 c 0
 74 545 91 555 120 574 c 2
 210 632 l 2
 220 639 232 639 242 632 c 2
 332 574 l 2
 362 554 378 545 377 522 c 0x08
EndSplineSet
EndChar

StartChar: Gbreve
Encoding: 286 286 222
Width: 525
GlyphClass: 2
Flags: MW
HStem: -11 75<226 285> 204 75<324.5 450 334 366 452 459 334 464.5> 547 75<228.5 281> 673 78<243.5 282 243.5 297> 779 20G<110 136.5 389.5 416.5>
VStem: 36 83<236 377 236 396.5> 287 83 369 83 415 83
LayerCount: 2
Fore
SplineSet
498 242 m 0xe6
 498 209 477 204 452 204 c 1
 452 48 l 2x41
 452 25 451 0 411 0 c 0
 380 0 372 13 370 31 c 1
 347 10 309 -11 261 -11 c 0
 142 -11 36 122 36 306 c 0
 36 487 141 622 261 622 c 0
 301 622 339 609 372 583 c 1
 386 613 394 622 415 622 c 0xa680
 451 622 452 593 452 574 c 2
 452 439 l 2
 452 415 451 391 410 391 c 0
 379 391 372 405 369 426 c 0x01
 354 525 297 547 265 547 c 0
 192 547 119 449 119 305 c 0
 119 167 188 64 264 64 c 0
 312 64 354 106 366 204 c 1
 334 204 l 2
 315 204 287 205 287 242 c 0
 287 277 316 279 334 279 c 2
 450 279 l 2
 468 279 498 277 498 242 c 0xe6
442 761 m 0x18
 442 677 331 673 263 673 c 0
 195 673 84 677 84 761 c 0
 84 784 98 799 122 799 c 0
 151 799 156 779 159 765 c 0
 163 751 224 751 263 751 c 0
 301 751 363 751 367 765 c 0
 370 779 375 799 404 799 c 0
 429 799 442 784 442 761 c 0x18
EndSplineSet
EndChar

StartChar: gbreve
Encoding: 287 287 223
Width: 525
GlyphClass: 2
Flags: MW
HStem: -223 74<216 308 216 327> 4 71<212 277> 113 74<215.5 256.5 209 281> 367 74<209.5 255.5 186 257> 501 78<207.5 246 207.5 261> 607 20G<74 100.5 353.5 380.5>
VStem: 27 72<-92.5 -66.5> 65 82<257.5 302.5 253 321.5> 151 82 319 84<252.5 292 232.5 301.5> 425 72<-92.5 -53 -115 -34>
LayerCount: 2
Fore
SplineSet
511 386 m 0x11
 511 352 484 338 464 338 c 0
 453 338 429 345 420 371 c 1
 409 369 395 366 380 359 c 1
 395 333 403 306 403 278 c 0
 403 187 328 113 234 113 c 0
 197 113 165 126 151 134 c 1
 149 127 148 121 148 118 c 2
 148 118 149 99 158 88 c 0
 173 70 194 75 212 75 c 2
 281 75 l 2
 371 75 413 53 426 46 c 0
 478 18 497 -34 497 -72 c 0
 497 -158 392 -223 262 -223 c 0
 132 -223 27 -159 27 -72 c 0xe2e0
 27 -61 27 5 96 51 c 1
 87 65 77 88 77 119 c 0
 77 147 85 169 95 185 c 1
 80 205 65 237 65 278 c 0
 65 365 138 441 234 441 c 0
 277 441 310 425 328 414 c 1
 374 445 421 446 432 446 c 0
 491 446 511 411 511 386 c 0x11
319 278 m 0
 319 325 281 367 233 367 c 0
 186 367 147 328 147 277 c 0x91c0
 147 229 185 187 233 187 c 0
 280 187 319 227 319 278 c 0
425 -72 m 0
 425 4 318 4 236 4 c 0
 167 4 158 4 136 -10 c 0
 107 -28 99 -56 99 -72 c 0x4220
 99 -113 170 -149 262 -149 c 0
 354 -149 425 -113 425 -72 c 0
406 589 m 0x0c
 406 505 295 501 227 501 c 0
 159 501 48 505 48 589 c 0
 48 612 62 627 86 627 c 0
 115 627 120 607 123 593 c 0
 127 579 188 579 227 579 c 0
 265 579 327 579 331 593 c 0
 334 607 339 627 368 627 c 0
 393 627 406 612 406 589 c 0x0c
EndSplineSet
EndChar

StartChar: Gdotaccent
Encoding: 288 288 224
Width: 525
GlyphClass: 2
Flags: MW
HStem: -11 75<226 285> 204 75<324.5 450 334 366 452 459 334 464.5> 547 75<228.5 281> 674 113<247 279>
VStem: 36 83<236 377 236 396.5> 206 114<715 746.5> 287 83 369 83 415 83
LayerCount: 2
Fore
SplineSet
498 242 m 0xea
 498 209 477 204 452 204 c 1
 452 48 l 2x41
 452 25 451 0 411 0 c 0
 380 0 372 13 370 31 c 1
 347 10 309 -11 261 -11 c 0
 142 -11 36 122 36 306 c 0
 36 487 141 622 261 622 c 0
 301 622 339 609 372 583 c 1
 386 613 394 622 415 622 c 0xaa80
 451 622 452 593 452 574 c 2
 452 439 l 2
 452 415 451 391 410 391 c 0
 379 391 372 405 369 426 c 0x01
 354 525 297 547 265 547 c 0
 192 547 119 449 119 305 c 0
 119 167 188 64 264 64 c 0
 312 64 354 106 366 204 c 1
 334 204 l 2
 315 204 287 205 287 242 c 0
 287 277 316 279 334 279 c 2
 450 279 l 2
 468 279 498 277 498 242 c 0xea
320 731 m 0x14
 320 699 295 674 263 674 c 0
 231 674 206 699 206 731 c 0
 206 762 231 787 263 787 c 0
 295 787 320 762 320 731 c 0x14
EndSplineSet
EndChar

StartChar: gdotaccent
Encoding: 289 289 225
Width: 525
GlyphClass: 2
Flags: MW
HStem: -223 74<216 308 216 327> 4 71<212 277> 113 74<215.5 256.5 209 281> 367 74<209.5 255.5 186 257> 508 113<211 243>
VStem: 27 72<-92.5 -66.5> 65 82<257.5 302.5 253 321.5> 151 82 170 114<549 580.5> 319 84<252.5 292 232.5 301.5> 425 72<-92.5 -53 -115 -34>
LayerCount: 2
Fore
SplineSet
511 386 m 0x12
 511 352 484 338 464 338 c 0
 453 338 429 345 420 371 c 1
 409 369 395 366 380 359 c 1
 395 333 403 306 403 278 c 0
 403 187 328 113 234 113 c 0
 197 113 165 126 151 134 c 1
 149 127 148 121 148 118 c 2
 148 118 149 99 158 88 c 0
 173 70 194 75 212 75 c 2
 281 75 l 2
 371 75 413 53 426 46 c 0
 478 18 497 -34 497 -72 c 0
 497 -158 392 -223 262 -223 c 0
 132 -223 27 -159 27 -72 c 0xe560
 27 -61 27 5 96 51 c 1
 87 65 77 88 77 119 c 0
 77 147 85 169 95 185 c 1
 80 205 65 237 65 278 c 0
 65 365 138 441 234 441 c 0
 277 441 310 425 328 414 c 1
 374 445 421 446 432 446 c 0
 491 446 511 411 511 386 c 0x12
319 278 m 0
 319 325 281 367 233 367 c 0
 186 367 147 328 147 277 c 0x9340
 147 229 185 187 233 187 c 0
 280 187 319 227 319 278 c 0
425 -72 m 0
 425 4 318 4 236 4 c 0
 167 4 158 4 136 -10 c 0
 107 -28 99 -56 99 -72 c 0x4420
 99 -113 170 -149 262 -149 c 0
 354 -149 425 -113 425 -72 c 0
284 565 m 0x0880
 284 533 259 508 227 508 c 0
 195 508 170 533 170 565 c 0
 170 596 195 621 227 621 c 0
 259 621 284 596 284 565 c 0x0880
EndSplineSet
EndChar

StartChar: Gcommaaccent
Encoding: 290 290 226
Width: 525
GlyphClass: 2
Flags: MW
HStem: -225 21G<217 237.5> -124 107<248 262 262 265> -11 75<226 285> 204 75<324.5 450 334 366 452 459 334 464.5> 547 75<228.5 281>
VStem: 36 83<236 377 236 396.5> 208 123<-85.5 -72 -140 -55.5> 287 83 369 83 415 83
LayerCount: 2
Fore
SplineSet
498 242 m 0x3d
 498 209 477 204 452 204 c 1
 452 48 l 2x1080
 452 25 451 0 411 0 c 0
 380 0 372 13 370 31 c 1
 347 10 309 -11 261 -11 c 0
 142 -11 36 122 36 306 c 0
 36 487 141 622 261 622 c 0
 301 622 339 609 372 583 c 1
 386 613 394 622 415 622 c 0x2d40
 451 622 452 593 452 574 c 2
 452 439 l 2
 452 415 451 391 410 391 c 0
 379 391 372 405 369 426 c 0x0080
 354 525 297 547 265 547 c 0
 192 547 119 449 119 305 c 0
 119 167 188 64 264 64 c 0
 312 64 354 106 366 204 c 1
 334 204 l 2
 315 204 287 205 287 242 c 0
 287 277 316 279 334 279 c 2
 450 279 l 2
 468 279 498 277 498 242 c 0x3d
331 -97 m 0xc2
 331 -183 250 -225 225 -225 c 0
 209 -225 194 -208 194 -194 c 0
 194 -175 211 -169 220 -166 c 0
 227 -164 253 -155 265 -124 c 1
 262 -124 l 2
 234 -124 208 -102 208 -69 c 0
 208 -42 229 -17 263 -17 c 0
 299 -17 331 -47 331 -97 c 0xc2
EndSplineSet
EndChar

StartChar: gcommaaccent
Encoding: 291 291 227
Width: 525
GlyphClass: 2
Flags: MW
HStem: -223 74<216 308 216 327> 4 71<212 277> 113 74<215.5 256.5 209 281> 367 74<209.5 255.5 186 257> 462 107<224 227 227 241 224 243> 650 20G<251.5 272>
VStem: 27 72<-92.5 -66.5> 65 82<257.5 302.5 253 321.5> 151 82 158 123<517 530.5> 319 84<252.5 292 232.5 301.5> 425 72<-92.5 -53 -115 -34>
LayerCount: 2
Fore
SplineSet
295 639 m 0x1d40
 295 620 278 614 269 611 c 0
 262 609 236 600 224 569 c 1
 227 569 l 2
 255 569 281 547 281 514 c 0
 281 487 260 462 226 462 c 0
 190 462 158 492 158 542 c 0
 158 628 239 670 264 670 c 0
 280 670 295 653 295 639 c 0x1d40
511 386 m 0
 511 352 484 338 464 338 c 0
 453 338 429 345 420 371 c 1
 409 369 395 366 380 359 c 1
 395 333 403 306 403 278 c 0
 403 187 328 113 234 113 c 0
 197 113 165 126 151 134 c 1xb1a0
 149 127 148 121 148 118 c 2
 148 118 149 99 158 88 c 0
 173 70 194 75 212 75 c 2
 281 75 l 2
 371 75 413 53 426 46 c 0
 478 18 497 -34 497 -72 c 0
 497 -158 392 -223 262 -223 c 0
 132 -223 27 -159 27 -72 c 0xc250
 27 -61 27 5 96 51 c 1
 87 65 77 88 77 119 c 0
 77 147 85 169 95 185 c 1
 80 205 65 237 65 278 c 0
 65 365 138 441 234 441 c 0
 277 441 310 425 328 414 c 1
 374 445 421 446 432 446 c 0
 491 446 511 411 511 386 c 0
319 278 m 0
 319 325 281 367 233 367 c 0
 186 367 147 328 147 277 c 0
 147 229 185 187 233 187 c 0
 280 187 319 227 319 278 c 0
425 -72 m 0
 425 4 318 4 236 4 c 0
 167 4 158 4 136 -10 c 0
 107 -28 99 -56 99 -72 c 0x4210
 99 -113 170 -149 262 -149 c 0
 354 -149 425 -113 425 -72 c 0
EndSplineSet
EndChar

StartChar: Hcircumflex
Encoding: 292 292 228
Width: 525
GlyphClass: 2
Flags: MW
HStem: 0 75<58 84 67 84 167 183 341 357 440 457> 280 75<167 357 167 357> 536 75<58 183 67 84 167 167 167 183 341 357 440 440 440 457> 663 21G<134.5 152.5 371.5 389.5>
VStem: 84 83<75 280 75 355 355 536> 357 83<75 280 280 280 355 536 75 536>
LayerCount: 2
Fore
SplineSet
504 37 m 0
 504 1 475 0 457 0 c 2
 341 0 l 2
 322 0 294 1 294 38 c 0
 294 74 323 75 341 75 c 2
 357 75 l 1
 357 280 l 1
 167 280 l 1
 167 75 l 1
 183 75 l 2
 202 75 230 74 230 37 c 0
 230 1 201 0 183 0 c 2
 67 0 l 2
 49 0 20 1 20 37 c 0
 20 74 48 75 67 75 c 2
 84 75 l 1
 84 536 l 1
 67 536 l 2
 49 536 20 537 20 573 c 0
 20 610 48 611 67 611 c 2
 183 611 l 2
 202 611 230 610 230 573 c 0
 230 537 201 536 183 536 c 2
 167 536 l 1
 167 355 l 1
 357 355 l 1
 357 536 l 1
 341 536 l 2
 322 536 294 537 294 574 c 0
 294 610 323 611 341 611 c 2
 457 611 l 2
 476 611 504 610 504 573 c 0
 504 537 475 536 457 536 c 2
 440 536 l 1
 440 75 l 1
 457 75 l 2
 476 75 504 74 504 37 c 0
412 702 m 0
 412 684 403 663 376 663 c 0
 367 663 348 669 328 675 c 2
 262 695 l 1
 196 675 l 2
 176 669 157 663 148 663 c 0
 121 663 112 684 112 702 c 0
 112 722 135 733 168 745 c 2
 246 773 l 2
 259 778 265 778 278 773 c 2
 356 745 l 2
 388 733 412 722 412 702 c 0
EndSplineSet
EndChar

StartChar: hcircumflex
Encoding: 293 293 229
Width: 525
GlyphClass: 2
Flags: MW
HStem: 0 75<49 93 58 93 176 211 211 212 318 348 431 466 466 467> 366 75<268.5 313.5> 536 75<49 129 58 93> 663 21G<134.5 152.5 371.5 389.5>
VStem: 93 83<75 240 399 536 536 536> 129 83 176 83<19 240 19 75> 348 83<75 288 288 293 75 314.5>
LayerCount: 2
Fore
SplineSet
513 37 m 0xc9
 513 1 483 0 467 0 c 2
 318 0 l 2
 301 0 270 1 270 37 c 0
 270 74 299 75 318 75 c 2
 348 75 l 1
 348 288 l 2
 348 341 337 366 290 366 c 0
 244 366 176 331 176 240 c 2
 176 75 l 1
 211 75 l 2
 230 75 259 74 259 37 c 0xc3
 259 1 229 0 212 0 c 2x84
 57 0 l 2
 41 0 11 1 11 37 c 0
 11 74 39 75 58 75 c 2
 93 75 l 1
 93 536 l 1xa8
 57 536 l 2
 41 536 11 537 11 573 c 0
 11 610 39 611 58 611 c 2
 129 611 l 2x24
 169 611 176 599 176 563 c 2
 176 399 l 1
 200 418 241 441 296 441 c 0
 378 441 431 397 431 293 c 2
 431 75 l 1
 466 75 l 2
 485 75 513 74 513 37 c 0xc9
412 702 m 0x10
 412 684 403 663 376 663 c 0
 367 663 348 669 328 675 c 2
 262 695 l 1
 196 675 l 2
 176 669 157 663 148 663 c 0
 121 663 112 684 112 702 c 0
 112 722 135 733 168 745 c 2
 246 773 l 2
 259 778 265 778 278 773 c 2
 356 745 l 2
 388 733 412 722 412 702 c 0x10
EndSplineSet
EndChar

StartChar: Hbar
Encoding: 294 294 230
Width: 525
GlyphClass: 2
Flags: MW
HStem: 0 75<58 84 67 84 167 183 341 357 440 457> 280 75<167 357 167 357> 416 76<51.5 84 62 84 167 357 440 462> 536 75<58 183 67 84 167 167 167 183 341 357 440 440 440 457>
VStem: 84 83<75 280 75 355 355 416 492 536> 357 83<75 280 280 280 355 416 75 416 492 536>
LayerCount: 2
Fore
SplineSet
504 37 m 0
 504 1 475 0 457 0 c 2
 341 0 l 2
 322 0 294 1 294 38 c 0
 294 74 323 75 341 75 c 2
 357 75 l 1
 357 280 l 1
 167 280 l 1
 167 75 l 1
 183 75 l 2
 202 75 230 74 230 37 c 0
 230 1 201 0 183 0 c 2
 67 0 l 2
 49 0 20 1 20 37 c 0
 20 74 48 75 67 75 c 2
 84 75 l 1
 84 416 l 1
 62 416 l 2
 41 416 24 433 24 454 c 0
 24 475 41 492 62 492 c 2
 84 492 l 1
 84 536 l 1
 67 536 l 2
 49 536 20 537 20 573 c 0
 20 610 48 611 67 611 c 2
 183 611 l 2
 202 611 230 610 230 573 c 0
 230 537 201 536 183 536 c 2
 167 536 l 1
 167 492 l 1
 357 492 l 1
 357 536 l 1
 341 536 l 2
 322 536 294 537 294 574 c 0
 294 610 323 611 341 611 c 2
 457 611 l 2
 476 611 504 610 504 573 c 0
 504 537 475 536 457 536 c 2
 440 536 l 1
 440 492 l 1
 462 492 l 2
 483 492 500 475 500 454 c 0
 500 433 483 416 462 416 c 2
 440 416 l 1
 440 75 l 1
 457 75 l 2
 476 75 504 74 504 37 c 0
357 355 m 1
 357 416 l 1
 167 416 l 1
 167 355 l 1
 357 355 l 1
EndSplineSet
EndChar

StartChar: hbar
Encoding: 295 295 231
Width: 525
GlyphClass: 2
Flags: MW
HStem: 0 75<49 93 58 93 176 211 211 212 318 348 431 466 466 467> 366 75<268.5 313.5> 453 64<42 93 52 93 176 263> 536 75<49 129 58 93>
VStem: 93 83<75 240 399 453 517 536 536 536> 129 83 176 83<19 240 19 75> 348 83<75 288 288 293 75 314.5>
LayerCount: 2
Fore
SplineSet
513 37 m 0xe9
 513 1 483 0 467 0 c 2
 318 0 l 2
 301 0 270 1 270 37 c 0
 270 74 299 75 318 75 c 2
 348 75 l 1
 348 288 l 2
 348 341 337 366 290 366 c 0
 244 366 176 331 176 240 c 2
 176 75 l 1
 211 75 l 2
 230 75 259 74 259 37 c 0xc3
 259 1 229 0 212 0 c 2x84
 57 0 l 2
 41 0 11 1 11 37 c 0
 11 74 39 75 58 75 c 2
 93 75 l 1
 93 453 l 1
 52 453 l 2
 32 453 14 464 14 485 c 0
 14 506 32 517 52 517 c 2
 93 517 l 1
 93 536 l 1xb8
 57 536 l 2
 41 536 11 537 11 573 c 0
 11 610 39 611 58 611 c 2
 129 611 l 2x14
 169 611 176 599 176 563 c 2
 176 517 l 1
 263 517 l 2
 284 517 301 506 301 485 c 0
 301 464 284 453 263 453 c 2
 176 453 l 1
 176 399 l 1
 200 418 241 441 296 441 c 0
 378 441 431 397 431 293 c 2
 431 75 l 1
 466 75 l 2
 485 75 513 74 513 37 c 0xe9
EndSplineSet
EndChar

